<?xml version="1.0" encoding="UTF-8" standalone="no"?>
<!-- Created with Inkscape (http://www.inkscape.org/) -->

<svg
   xmlns:dc="http://purl.org/dc/elements/1.1/"
   xmlns:cc="http://creativecommons.org/ns#"
   xmlns:rdf="http://www.w3.org/1999/02/22-rdf-syntax-ns#"
   xmlns:svg="http://www.w3.org/2000/svg"
   xmlns="http://www.w3.org/2000/svg"
   xmlns:sodipodi="http://sodipodi.sourceforge.net/DTD/sodipodi-0.dtd"
   xmlns:inkscape="http://www.inkscape.org/namespaces/inkscape"
   width="139.46159mm"
   height="196.44mm"
   viewBox="0 0 139.46159 196.44"
   version="1.1"
   id="svg8"
   inkscape:version="0.92.5 (2060ec1f9f, 2020-04-08)"
   sodipodi:docname="Carter.svg"
   inkscape:export-filename="/home/michael/Pictures/Marketing Material/HackSMU IV Assets/Carter.png"
   inkscape:export-xdpi="96"
   inkscape:export-ydpi="96">
  <defs
     id="defs2" />
  <sodipodi:namedview
     id="base"
     pagecolor="#ffffff"
     bordercolor="#666666"
     borderopacity="1.0"
     inkscape:pageopacity="0.0"
     inkscape:pageshadow="2"
     inkscape:zoom="0.53362093"
     inkscape:cx="-298.34966"
     inkscape:cy="432.2849"
     inkscape:document-units="mm"
     inkscape:current-layer="layer1"
     showgrid="false"
     inkscape:window-width="2488"
     inkscape:window-height="1376"
     inkscape:window-x="72"
     inkscape:window-y="27"
     inkscape:window-maximized="1"
     fit-margin-top="0"
     fit-margin-left="0"
     fit-margin-right="0"
     fit-margin-bottom="0" />
  <metadata
     id="metadata5">
    <rdf:RDF>
      <cc:Work
         rdf:about="">
        <dc:format>image/svg+xml</dc:format>
        <dc:type
           rdf:resource="http://purl.org/dc/dcmitype/StillImage" />
        <dc:title></dc:title>
      </cc:Work>
    </rdf:RDF>
  </metadata>
  <g
     inkscape:label="Layer 1"
     inkscape:groupmode="layer"
     id="layer1"
     transform="translate(-39.722441,-43.18104)">
    <path
       style="fill:#ebebff;fill-opacity:1;stroke:#00034b;stroke-width:1.5;stroke-linecap:round;stroke-linejoin:round;stroke-miterlimit:4;stroke-dasharray:none;stroke-opacity:1"
       d="m 169.21766,125.23799 -2.23132,0.91297 6.80615,5.37182 2.87438,-1.58603 1.76997,-1.03243 -2.93749,1.55521 z"
       id="path1689"
       inkscape:connector-curvature="0"
       sodipodi:nodetypes="ccccccc" />
    <circle
       style="opacity:1;fill:#8888ff;fill-opacity:1;stroke:#00034b;stroke-width:1.5;stroke-linecap:round;stroke-linejoin:round;stroke-miterlimit:4;stroke-dasharray:none;stroke-dashoffset:0;stroke-opacity:1"
       id="circle2308"
       cx="167.5668"
       cy="124.50532"
       r="2.1923113" />
    <path
       style="fill:#6e3cfc;fill-opacity:1;stroke:#6e3cfc;stroke-width:0.07642815;stroke-linecap:square;stroke-linejoin:round;stroke-miterlimit:4;stroke-dasharray:none;stroke-opacity:1"
       d="m 166.32758,124.55476 c 0,0 0.33508,1.13446 1.25127,1.11564 0.40031,-0.007 1.01203,-0.3137 1.18854,-0.9687 0.17652,-0.65502 0.005,-0.96077 0.005,-0.96077 0,0 -0.15416,1.39282 -1.07033,1.45404 -0.91618,0.0612 -1.37428,-0.64021 -1.37428,-0.64021 z"
       id="path2310"
       inkscape:connector-curvature="0"
       sodipodi:nodetypes="cczczcc" />
    <circle
       r="2.1923113"
       cy="120.68456"
       cx="151.707"
       id="circle2304"
       style="opacity:1;fill:#8888ff;fill-opacity:1;stroke:#00034b;stroke-width:1.5;stroke-linecap:round;stroke-linejoin:round;stroke-miterlimit:4;stroke-dasharray:none;stroke-dashoffset:0;stroke-opacity:1" />
    <path
       sodipodi:nodetypes="cczczcc"
       inkscape:connector-curvature="0"
       id="path2306"
       d="m 150.46778,120.734 c 0,0 0.33508,1.13446 1.25127,1.11564 0.40031,-0.007 1.01203,-0.3137 1.18854,-0.9687 0.17652,-0.65502 0.005,-0.96077 0.005,-0.96077 0,0 -0.15416,1.39282 -1.07033,1.45404 -0.91618,0.0612 -1.37428,-0.64021 -1.37428,-0.64021 z"
       style="fill:#6e3cfc;fill-opacity:1;stroke:#6e3cfc;stroke-width:0.07642815;stroke-linecap:square;stroke-linejoin:round;stroke-miterlimit:4;stroke-dasharray:none;stroke-opacity:1" />
    <circle
       r="2.6799183"
       cy="109.34647"
       cx="44.022194"
       id="circle2296"
       style="opacity:1;fill:#8888ff;fill-opacity:1;stroke:#00034b;stroke-width:1.36568427;stroke-linecap:round;stroke-linejoin:round;stroke-miterlimit:4;stroke-dasharray:none;stroke-dashoffset:0;stroke-opacity:1" />
    <path
       sodipodi:nodetypes="cczczcc"
       inkscape:connector-curvature="0"
       id="path2298"
       d="m 42.359593,109.70271 c 0,0 0.461876,1.40901 1.724726,1.38562 0.551789,-0.0102 1.394957,-0.38961 1.638267,-1.20313 0.24331,-0.81353 0.0066,-1.19328 0.0066,-1.19328 0,0 -0.21248,1.7299 -1.475328,1.80592 -1.262847,0.076 -1.894275,-0.79513 -1.894275,-0.79513 z"
       style="fill:#6e3cfc;fill-opacity:1;stroke:#6e3cfc;stroke-width:0.1;stroke-linecap:square;stroke-linejoin:round;stroke-miterlimit:4;stroke-dasharray:none;stroke-opacity:1" />
    <circle
       style="opacity:1;fill:#8888ff;fill-opacity:1;stroke:#00034b;stroke-width:1.36568427;stroke-linecap:round;stroke-linejoin:round;stroke-miterlimit:4;stroke-dasharray:none;stroke-dashoffset:0;stroke-opacity:1"
       id="path2203"
       cx="43.085201"
       cy="135.25055"
       r="2.6799183" />
    <path
       style="fill:#6e3cfc;fill-opacity:1;stroke:#6e3cfc;stroke-width:0.1;stroke-linecap:square;stroke-linejoin:round;stroke-miterlimit:4;stroke-dasharray:none;stroke-opacity:1"
       d="m 41.4226,135.60679 c 0,0 0.461876,1.40901 1.724726,1.38562 0.551789,-0.0102 1.394957,-0.38961 1.638267,-1.20313 0.24331,-0.81353 0.0066,-1.19328 0.0066,-1.19328 0,0 -0.21248,1.7299 -1.475328,1.80592 -1.262847,0.076 -1.894275,-0.79513 -1.894275,-0.79513 z"
       id="path2205"
       inkscape:connector-curvature="0"
       sodipodi:nodetypes="cczczcc" />
    <path
       style="fill:#8888ff;fill-opacity:1;stroke:#00034b;stroke-width:1.5;stroke-linecap:round;stroke-linejoin:round;stroke-miterlimit:4;stroke-dasharray:none;stroke-opacity:1"
       d="m 72.165103,183.62604 c 0,0 -2.612761,0.66146 -4.7625,1.88516 -2.149739,1.22369 -4.928482,3.69457 -5.357812,4.2664 -0.274552,0.36568 -0.694702,5.21695 -0.264583,5.68854 0.581671,0.63775 17.92552,13.22917 17.92552,13.22917 0,0 0.727975,-16.26613 0.698259,-23.0301 -0.01548,-3.52258 -0.07613,-12.14378 -0.07613,-12.14378 0.0031,0 -0.552998,0.0239 -1.622355,4e-5 -1.069358,-0.0238 -1.817058,-0.14308 -1.817058,-0.14308 0,0 -1.172208,2.95891 -2.575944,5.74507 -1.492846,2.96302 -2.147389,4.50261 -2.147389,4.50261 z"
       id="path1753"
       inkscape:connector-curvature="0"
       sodipodi:nodetypes="czsscsczcscc" />
    <path
       style="fill:#8888ff;fill-opacity:1;stroke:#00034b;stroke-width:1.5;stroke-linecap:round;stroke-linejoin:round;stroke-miterlimit:4;stroke-dasharray:none;stroke-opacity:1"
       d="m 102.45989,171.38906 c 0,0 -8.003641,-0.13229 -11.840099,0.0661 -3.836459,0.19844 -10.291938,2.06627 -10.291938,2.06627 0,0 0.03933,17.38061 -0.159104,22.80457 -0.198438,5.42396 -0.721277,19.72906 -1.256771,25.00312 -0.535494,5.27406 -0.655621,3.83267 -0.886136,6.4135 -0.230515,2.58083 -0.839442,8.48234 -0.370635,9.06463 0.468807,0.58229 4.497917,1.65364 9.723438,1.85208 5.225521,0.19844 9.598188,0.64979 11.409182,-0.97281 1.810993,-1.6226 1.461203,-4.65393 1.594153,-7.71167 0.13229,-3.0427 0.005,-2.8882 0.35812,-7.71969 0.35264,-4.83149 1.85209,-11.1125 2.11667,-21.23281 0.26458,-10.12031 -0.39688,-29.63333 -0.39688,-29.63333 z"
       id="path1735"
       inkscape:connector-curvature="0"
       sodipodi:nodetypes="cccszzzszszscc" />
    <path
       style="fill:#8888ff;fill-opacity:1;stroke:#00034b;stroke-width:1.5;stroke-linecap:round;stroke-linejoin:round;stroke-miterlimit:4;stroke-dasharray:none;stroke-opacity:1"
       d="m 113.00156,168.84426 c 0,0 5.14493,-3.92886 8.98025,-5.14494 3.83532,-1.21608 7.57709,-1.6838 7.57709,-1.6838 0,0 8.88671,11.50596 11.31887,18.61533 2.43215,7.10936 2.99342,28.71811 2.99342,28.71811 0,0 8.05636,6.27902 9.16734,7.39 1.11098,1.11098 3.91882,4.96789 1.02899,7.85772 -2.88983,2.88983 -6.3778,4.15886 -11.52006,5.69485 0,0 -2.88577,1.50807 -7.56299,-1.01763 -4.67721,-2.5257 -13.52183,-12.07228 -14.12519,-13.2833 -0.26161,-0.52508 -0.12637,-5.38466 -0.0379,-6.63968 0.12907,-1.83097 1.37909,-11.0433 0.44419,-16.15774 -1.59025,-8.69962 -8.26399,-24.34892 -8.26399,-24.34892 z"
       id="path1731"
       inkscape:connector-curvature="0"
       sodipodi:nodetypes="cscsczzcsssccc" />
    <path
       sodipodi:nodetypes="ccccccc"
       style="fill:#ebebff;fill-opacity:1;stroke:#00034b;stroke-width:1.5;stroke-linecap:round;stroke-linejoin:round;stroke-miterlimit:4;stroke-dasharray:none;stroke-opacity:1"
       d="m 45.202503,133.32568 0.7367,-21.73612 c 0,0 -0.933091,-0.76794 -2.119456,-0.77839 -1.186359,-0.0108 -2.201441,0.57894 -2.201441,0.57894 l -0.657602,21.7587 c 0,0 1.188844,0.75039 2.118243,0.70378 0.962883,0.0268 2.123539,-0.52696 2.123539,-0.52696 z"
       id="path1679"
       inkscape:connector-curvature="0" />
    <path
       sodipodi:nodetypes="ccccccc"
       style="fill:none;stroke:#00034b;stroke-width:1.5;stroke-linecap:round;stroke-linejoin:round;stroke-miterlimit:4;stroke-dasharray:none;stroke-opacity:1"
       d="m 120.27236,137.49161 13.29057,-10.40565 c 0,0 -0.008,-0.9379 -0.59407,-1.64864 -0.58537,-0.71079 -1.44247,-1.02001 -1.44247,-1.02001 l -13.2645,10.46402 c 0,0 0.14695,1.08116 0.63835,1.61045 0.46451,0.58582 1.37265,0.99971 1.37265,0.99971 z"
       id="path1683"
       inkscape:connector-curvature="0" />
    <circle
       r="1.5511967"
       cy="124.84836"
       cx="134.06573"
       id="circle1697"
       style="opacity:1;fill:none;fill-opacity:1;stroke:#00034b;stroke-width:1.5;stroke-linecap:round;stroke-linejoin:round;stroke-miterlimit:4;stroke-dasharray:none;stroke-dashoffset:0;stroke-opacity:1" />
    <path
       inkscape:connector-curvature="0"
       id="path1685"
       d="m 166.23818,122.72646 -12.66413,-2.67826 c 0,0 -0.54654,0.46756 -0.67529,1.16185 -0.12892,0.69423 0.11185,1.35017 0.11185,1.35017 l 12.68554,2.63421 c 0,0 0.56269,-0.61926 0.63143,-1.16884 0.1152,-0.56159 -0.0894,-1.29913 -0.0894,-1.29913 z"
       style="fill:#ebebff;fill-opacity:1;stroke:#00034b;stroke-width:1.5;stroke-linecap:round;stroke-linejoin:round;stroke-miterlimit:4;stroke-dasharray:none;stroke-opacity:1"
       sodipodi:nodetypes="ccccccc" />
    <path
       sodipodi:nodetypes="ccccccc"
       style="fill:#ebebff;fill-opacity:1;stroke:#00034b;stroke-width:1.5;stroke-linecap:round;stroke-linejoin:round;stroke-miterlimit:4;stroke-dasharray:none;stroke-opacity:1"
       d="m 149.64428,119.70362 -14.07704,3.26516 c 0,0 -0.33238,0.73095 -0.13509,1.49415 0.19712,0.76323 0.75002,1.31341 0.75002,1.31341 l 14.07793,-3.31983 c 0,0 0.27714,-0.89204 0.0874,-1.48053 -0.14843,-0.62256 -0.7034,-1.27224 -0.7034,-1.27224 z"
       id="path1687"
       inkscape:connector-curvature="0" />
    <path
       inkscape:connector-curvature="0"
       id="path2326"
       d="m 149.19737,121.52472 -17.83644,4.21308"
       style="fill:#b4acff;fill-opacity:1;stroke:#b4acff;stroke-width:0.40000001;stroke-linecap:round;stroke-linejoin:round;stroke-miterlimit:4;stroke-dasharray:none;stroke-opacity:1" />
    <path
       style="fill:#ebebff;fill-opacity:1;stroke:#00034b;stroke-width:1.5;stroke-linecap:round;stroke-linejoin:round;stroke-miterlimit:4;stroke-dasharray:none;stroke-opacity:1"
       d="m 167.46206,122.79429 5.34482,-2.22123 3.6095,4.58128 2.01298,-1.0412 -3.33183,-4.58127 z"
       id="path1691"
       inkscape:connector-curvature="0"
       sodipodi:nodetypes="cccccc" />
    <path
       sodipodi:nodetypes="sssssss"
       inkscape:connector-curvature="0"
       id="path1806"
       d="m 109.17948,69.965493 c 0,3.316893 -1.70131,6.236423 -4.2789,7.933549 -1.49621,0.98513 -3.28767,1.558378 -5.213027,1.558378 -1.549601,0 -3.01247,-0.371333 -4.304491,-1.02987 -3.078822,-1.569265 -5.18743,-4.769415 -5.18743,-8.462057 0,-5.242247 4.24968,-9.491927 9.491921,-9.491927 5.242247,0 9.491927,4.24968 9.491927,9.491927 z"
       style="opacity:1;fill:#8888ff;fill-opacity:1;stroke:#00034b;stroke-width:1.5;stroke-linecap:round;stroke-miterlimit:4;stroke-dasharray:none;stroke-dashoffset:0;stroke-opacity:1" />
    <path
       sodipodi:nodetypes="cszzcszcc"
       inkscape:connector-curvature="0"
       id="path1808"
       d="m 93.081973,74.333265 c 0,0 2.585713,3.635935 6.55597,3.470508 3.175007,-0.132291 4.797257,-1.109151 6.267317,-2.943489 1.47007,-1.834338 1.88516,-3.472657 1.62058,-5.721615 -0.26459,-2.248959 -2.05052,-4.497916 -2.05052,-4.497916 0,0 1.21622,4.853465 -0.0862,7.278677 -0.95912,1.785937 -1.85209,2.38125 -3.37344,2.976562 -1.52136,0.595313 -3.176261,0.899331 -4.861717,0.595313 -1.934944,-0.319904 -4.07198,-1.15804 -4.07198,-1.15804 z"
       style="fill:#6e3cfc;fill-opacity:1;stroke:#6e3cfc;stroke-width:0.26499999;stroke-linecap:round;stroke-linejoin:round;stroke-miterlimit:4;stroke-dasharray:none;stroke-opacity:1" />
    <path
       style="fill:#8888ff;fill-opacity:1;stroke:#00034b;stroke-width:1.5;stroke-linecap:round;stroke-linejoin:round;stroke-miterlimit:4;stroke-dasharray:none;stroke-opacity:1"
       d="m 79.448574,86.776577 c 0.047,-1.385917 0.117198,-2.733676 0.220004,-3.908606 0.463021,-5.291667 2.844271,-15.808854 2.844271,-15.808854 0,0 10.252604,-2.513542 17.793231,-0.859896 7.54063,1.653646 16.33803,7.011458 16.33803,7.011458 0,0 -3.04271,8.400521 -3.57188,12.898437 -0.12083,1.027081 -0.25546,2.357671 -0.39128,3.799606 z"
       id="path1727"
       inkscape:connector-curvature="0"
       sodipodi:nodetypes="cscscccc" />
    <path
       style="fill:#6e3cfc;fill-opacity:1;stroke:#6e3cfc;stroke-width:0.26458332px;stroke-linecap:butt;stroke-linejoin:miter;stroke-opacity:1"
       d="m 101.38135,68.675201 -3.243066,14.46234 12.972286,1.753012 c 0,0 0.3506,-2.454216 1.13946,-5.346684 0.78885,-2.892467 1.84066,-5.434335 1.84066,-5.434335 0,0 -2.54187,-2.015961 -5.34668,-3.067767 -2.80482,-1.051809 -7.36266,-2.366566 -7.36266,-2.366566 z"
       id="path2340"
       inkscape:connector-curvature="0" />
    <path
       style="fill:#8888ff;fill-opacity:1;stroke:#00034b;stroke-width:1.5;stroke-linecap:round;stroke-linejoin:round;stroke-miterlimit:4;stroke-dasharray:none;stroke-opacity:1"
       d="M 89.953305,106.92655 C 75.577625,105.26232 48.514211,109.07944 50.917919,95.304342 53.350072,81.366238 79.7422,81.555684 94.509579,82.896993 c 14.767391,1.341308 49.631021,4.71986 42.282051,16.80393 -9.92548,16.320697 -32.46263,8.889847 -46.838325,7.225627 z"
       id="path1725"
       inkscape:connector-curvature="0"
       sodipodi:nodetypes="zszsz" />
    <path
       style="fill:#ebebff;fill-opacity:1;stroke:#00034b;stroke-width:1.5;stroke-linecap:round;stroke-linejoin:round;stroke-miterlimit:4;stroke-dasharray:none;stroke-opacity:1"
       d="m 65.434259,92.783431 5.238483,-3.89619 -0.233859,-4.583673 -3.086964,0.467722 0.127596,4.336111 -5.716865,4.059493 z"
       id="path1723"
       inkscape:connector-curvature="0"
       sodipodi:nodetypes="ccccccc" />
    <path
       style="fill:#6e3cfc;fill-opacity:1;stroke:#6e3cfc;stroke-width:0.5;stroke-linecap:round;stroke-linejoin:round;stroke-miterlimit:4;stroke-dasharray:none;stroke-opacity:1"
       d="m 72.789409,92.59141 c 0,0 -4.890566,-0.250561 -6.468274,2.028354 -1.577711,2.278914 0.08765,5.259029 0.08765,5.259029 0,0 1.139458,6.135567 15.601799,6.135567 14.462339,0 35.946686,4.89099 41.976566,1.52895 6.02988,-3.36204 9.88947,-5.25464 11.20423,-9.198933 1.31476,-3.944274 -2.80089,-5.901274 -6.9013,-7.405936 -4.10041,-1.504662 -6.67519,-2.325856 -14.60757,-3.552963 -7.93238,-1.227107 -15.890866,-2.441757 -15.890866,-2.441757 0,0 5.111426,2.361838 4.996086,4.207227 -0.13147,2.103613 -6.836747,3.067769 -6.836747,3.067769 z"
       id="path2342"
       inkscape:connector-curvature="0"
       sodipodi:nodetypes="cccszszzcscc" />
    <circle
       style="opacity:1;fill:#8888ff;fill-opacity:1;stroke:#00034b;stroke-width:1.36568427;stroke-linecap:round;stroke-linejoin:round;stroke-miterlimit:4;stroke-dasharray:none;stroke-dashoffset:0;stroke-opacity:1"
       id="circle2300"
       cx="61.59042"
       cy="92.534645"
       r="2.6799183" />
    <path
       style="fill:none;stroke:#00034b;stroke-width:1.5;stroke-linecap:round;stroke-linejoin:round;stroke-miterlimit:4;stroke-dasharray:none;stroke-opacity:1"
       d="m 72.789411,92.59141 c 0,0 10.252603,-1.587501 23.680208,-0.132292 13.427611,1.455209 22.555741,3.571875 22.555741,3.571875"
       id="path1729"
       inkscape:connector-curvature="0"
       sodipodi:nodetypes="czc" />
    <path
       style="fill:#6e3cfc;fill-opacity:1;stroke:#6e3cfc;stroke-width:0.1;stroke-linecap:square;stroke-linejoin:round;stroke-miterlimit:4;stroke-dasharray:none;stroke-opacity:1"
       d="m 59.92782,92.890877 c 0,0 0.461876,1.40901 1.724726,1.38562 0.551789,-0.0102 1.394957,-0.38961 1.638267,-1.20313 0.24331,-0.81353 0.0066,-1.19328 0.0066,-1.19328 0,0 -0.21248,1.7299 -1.475328,1.80592 -1.262847,0.076 -1.894275,-0.79513 -1.894275,-0.79513 z"
       id="path2302"
       inkscape:connector-curvature="0"
       sodipodi:nodetypes="cczczcc" />
    <g
       transform="rotate(14,89.237745,148.59475)"
       id="g1814"
       style="stroke:#00034b;stroke-opacity:1">
      <path
         style="fill:none;fill-opacity:1;stroke:#00034b;stroke-width:1.5;stroke-linecap:round;stroke-linejoin:round;stroke-miterlimit:4;stroke-dasharray:none;stroke-opacity:1"
         d="m 65.752929,60.324724 c 0,0 5.551945,-9.941856 15.235572,-9.812738 9.683624,0.129109 15.106453,9.812738 15.106453,9.812738"
         id="path1810"
         inkscape:connector-curvature="0"
         sodipodi:nodetypes="csc" />
      <path
         style="fill:none;fill-opacity:1;stroke:#00034b;stroke-width:1.5;stroke-linecap:round;stroke-linejoin:round;stroke-miterlimit:4;stroke-dasharray:none;stroke-opacity:1"
         d="m 58.210088,57.992849 c 0,0 8.153139,-14.599808 22.373736,-14.410195 14.220594,0.189599 22.184106,14.410195 22.184106,14.410195"
         id="path1812"
         inkscape:connector-curvature="0"
         sodipodi:nodetypes="csc" />
    </g>
    <path
       style="fill:#ebebff;fill-opacity:1;stroke:#00034b;stroke-width:1.5;stroke-linecap:round;stroke-linejoin:round;stroke-miterlimit:4;stroke-dasharray:none;stroke-opacity:1"
       d="m 78.577241,94.276062 c 0,0 1.469982,20.045218 1.336346,37.685008 -0.133635,17.63978 -1.737252,41.5604 -1.737252,41.5604 0,0 11.123962,0.40713 24.431665,-2.31982 2.52767,-0.51795 5.13413,-1.14898 7.7581,-1.91734 0.76746,-0.22473 1.51717,-0.4507 2.24913,-0.6773 7.45676,-2.30846 13.07082,-4.68259 16.82483,-6.4823 3.7706,-1.80765 5.66468,-3.03579 5.66468,-3.03579 0,0 1.86419,-12.02712 1.99782,-25.3906 0.13363,-13.36348 -1.73054,-27.39513 -1.73054,-27.39513 0,0 -10.72044,-4.34509 -24.48088,-7.349911 C 97.130695,95.948461 78.577241,94.276062 78.577241,94.276062 Z"
       id="path1663"
       inkscape:connector-curvature="0"
       sodipodi:nodetypes="cscssccczczc" />
    <path
       style="fill:none;stroke:#00034b;stroke-width:1.5;stroke-linecap:round;stroke-linejoin:round;stroke-miterlimit:4;stroke-dasharray:none;stroke-opacity:1"
       d="m 143.87119,209.34896 c 0,0 -2.03769,-1.00595 -4.62311,-0.25393 -2.58542,0.75202 -4.74268,1.2248 -7.68932,2.62796 -2.94665,1.40316 -4.33847,2.58382 -4.33847,2.58382"
       id="path1733"
       inkscape:connector-curvature="0"
       sodipodi:nodetypes="czzc" />
    <path
       style="fill:#ebebff;fill-opacity:1;stroke:#00034b;stroke-width:1.5;stroke-linecap:round;stroke-linejoin:round;stroke-miterlimit:4;stroke-dasharray:none;stroke-opacity:1"
       d="m 78.577241,94.27606 c 0,0 -5.612662,0.668177 -13.764381,2.806331 -7.201658,1.888959 -12.828938,4.810849 -12.828938,4.810849 0,0 -2.806329,16.12789 -2.939965,31.49589 -0.133633,15.368 1.804069,30.77791 1.804069,30.77791 0,0 3.824406,2.78829 13.163024,5.87993 9.338618,3.09165 14.165285,3.4745 14.165285,3.4745 0,0 1.737251,-19.77794 1.737252,-38.88771 10e-7,-19.10977 -1.336346,-40.3577 -1.336346,-40.3577 z"
       id="path1665"
       inkscape:connector-curvature="0"
       sodipodi:nodetypes="cscsczczc" />
    <path
       inkscape:connector-curvature="0"
       id="path1681"
       d="M 46.787479,109.22117 61.515751,95.458527 c 0,0 -0.108234,-1.114826 -0.878909,-1.899194 -0.770448,-0.784588 -1.822206,-1.063366 -1.822206,-1.063366 L 44.123403,106.32525 c 0,0 0.287362,1.27092 0.927012,1.84951 0.61352,0.64859 1.737105,1.04633 1.737105,1.04633 z"
       style="fill:#ebebff;fill-opacity:1;stroke:#00034b;stroke-width:1.5;stroke-linecap:round;stroke-linejoin:round;stroke-miterlimit:4;stroke-dasharray:none;stroke-opacity:1"
       sodipodi:nodetypes="ccccccc" />
    <path
       style="fill:#ebebff;fill-opacity:1;stroke:#00034b;stroke-width:1.5;stroke-linecap:round;stroke-linejoin:round;stroke-miterlimit:4;stroke-dasharray:none;stroke-opacity:1"
       d="m 59.634513,91.576641 -2.946648,-4.957852 4.209494,-5.752975 3.320824,-0.701584 -3.905475,5.893295 3.297437,5.229197 z"
       id="path1721"
       inkscape:connector-curvature="0"
       sodipodi:nodetypes="ccccccc" />
    <path
       style="fill:#8888ff;fill-opacity:1;stroke:#00034b;stroke-width:1.5;stroke-linecap:round;stroke-linejoin:round;stroke-miterlimit:4;stroke-dasharray:none;stroke-opacity:1"
       d="m 57.396131,122.8739 c 0,0 -0.801809,5.61266 -0.734991,11.49259 0.06682,5.87993 1.002259,10.28988 1.002259,10.28988 l 13.697563,2.20497 c 0,0 0.267271,-7.48355 0.267271,-12.22758 0,-4.74404 -0.467721,-13.43029 -0.467721,-13.43029 z"
       id="path1671"
       inkscape:connector-curvature="0"
       sodipodi:nodetypes="csccscc" />
    <path
       sodipodi:nodetypes="zcscszczz"
       inkscape:connector-curvature="0"
       id="path2318"
       d="m 69.696117,122.86591 c -0.06514,-0.0651 -10.845045,1.54272 -10.845045,1.54272 0,0 -0.613636,6.05655 -0.613636,8.84516 0,2.78861 0.605056,10.12648 0.605056,10.12648 0,0 0.884102,-8.47264 2.874543,-10.24937 1.208629,-1.07886 3.530454,-2.06443 4.543304,-2.17294 1.012849,-0.10851 2.523344,-1.38366 3.707161,-1.60248 0,0 0.03008,-2.06052 -0.03706,-3.13481 -0.06714,-1.07429 -0.169179,-3.28962 -0.234323,-3.35476 z"
       style="fill:#6e3cfc;fill-opacity:1;stroke:#6e3cfc;stroke-width:0.5;stroke-linecap:round;stroke-linejoin:round;stroke-miterlimit:4;stroke-dasharray:none;stroke-opacity:1" />
    <path
       inkscape:connector-curvature="0"
       id="path1675"
       d="m 66.176287,132.22032 -20.128944,1.07565 c 0,0 -0.633683,0.92358 -0.547504,2.01982 0.08618,1.09622 0.712411,1.98585 0.712411,1.98585 l 20.143416,-1.1505 c 0,0 0.596809,-1.1583 0.478725,-2.01266 -0.05311,-0.89121 -0.658104,-1.91816 -0.658104,-1.91816 z"
       style="fill:#ebebff;fill-opacity:1;stroke:#00034b;stroke-width:1.5;stroke-linecap:round;stroke-linejoin:round;stroke-miterlimit:4;stroke-dasharray:none;stroke-opacity:1"
       sodipodi:nodetypes="ccccccc" />
    <path
       style="fill:#8888ff;fill-opacity:1;stroke:#00034b;stroke-width:1.5;stroke-linecap:round;stroke-linejoin:round;stroke-miterlimit:4;stroke-dasharray:none;stroke-opacity:1"
       d="m 92.207291,116.88489 c 0,0 0.198435,1.7198 0.264583,5.15938 0.06615,3.43958 0.06615,5.22552 0.06615,5.22552 0,0 7.408333,0.46302 9.194266,0.46302 h 7.60677 c 0,0 0.19844,-2.51354 0.13234,-4.89479 -0.0661,-2.38125 -0.19844,-4.16719 -0.19844,-4.16719 0,0 -3.70416,-0.46303 -7.47447,-0.92605 -3.770311,-0.46301 -9.591145,-0.85989 -9.591145,-0.85989 z"
       id="path1755"
       inkscape:connector-curvature="0"
       sodipodi:nodetypes="czcsczczcc" />
    <path
       style="fill:#8888ff;fill-opacity:1;stroke:#00034b;stroke-width:1.5;stroke-linecap:round;stroke-linejoin:round;stroke-miterlimit:4;stroke-dasharray:none;stroke-opacity:1"
       d="m 118.46719,119.59687 11.1125,1.5875 c 0,0 0.19844,1.38907 0.26458,3.57188 0.0661,2.18281 4e-5,3.33469 4e-5,3.33469 0,0 -1.47459,0.10157 -4.91417,0.0354 -3.43958,-0.0662 -6.39677,-0.19041 -6.39677,-0.19041 0,0 0.19844,-1.5922 0.1323,-4.17189 -0.0661,-2.57968 -0.19844,-4.16719 -0.19844,-4.16719 z"
       id="path1757"
       inkscape:connector-curvature="0"
       sodipodi:nodetypes="ccccccccc" />
    <path
       style="fill:#6e3cfc;fill-opacity:1;stroke:#6e3cfc;stroke-width:0.25;stroke-linecap:round;stroke-linejoin:round;stroke-miterlimit:4;stroke-dasharray:none;stroke-opacity:1"
       d="m 93.791907,126.29408 c 0,0 1.147017,-0.0176 1.999,0.0197 0.851983,0.0374 1.513274,0.0839 1.513274,0.0839 l -0.07882,-5.24035 c 0,0 -0.396627,3.90947 -1.022056,4.2285 -0.625428,0.31902 -2.411394,0.90828 -2.411394,0.90828 z"
       id="path2356"
       inkscape:connector-curvature="0"
       sodipodi:nodetypes="czcczc" />
    <path
       style="fill:#00034b;fill-opacity:1;stroke:#00034b;stroke-width:1.5;stroke-linecap:round;stroke-linejoin:round;stroke-miterlimit:4;stroke-dasharray:none;stroke-opacity:1"
       d="m 98.32578,117.38099 0.165365,10.18645 c 0,0 3.009635,0.1323 4.729425,0.1323 1.71979,0 3.6711,0.13229 3.5388,0.0331 -0.13229,-0.0992 0.19844,-2.84427 0.16537,-4.69635 -0.0331,-1.85209 -0.0992,-4.66329 -0.0992,-4.66329 0,0 -1.48828,-0.0992 -3.67109,-0.46302 -2.18282,-0.3638 -4.82865,-0.52916 -4.82865,-0.52916 z"
       id="path1759"
       inkscape:connector-curvature="0" />
    <path
       style="fill:#00034b;fill-opacity:1;stroke:#00034b;stroke-width:1.5;stroke-linecap:round;stroke-linejoin:round;stroke-miterlimit:4;stroke-dasharray:none;stroke-opacity:1"
       d="m 122.40286,120.25833 c 0,0 0.16537,1.75287 0.23151,3.70417 0.0661,1.9513 0.0331,4.13411 0.0331,4.13411 h 5.75468 c 0,0 0.1323,-1.78594 0,-3.60495 -0.13229,-1.81901 -0.3638,-3.50573 -0.3638,-3.50573 z"
       id="path1761"
       inkscape:connector-curvature="0" />
    <path
       style="fill:none;stroke:#00034b;stroke-width:3;stroke-linecap:round;stroke-linejoin:round;stroke-miterlimit:4;stroke-dasharray:none;stroke-opacity:1"
       d="M 92.73651,117.41406 109.80213,119.2"
       id="path1763"
       inkscape:connector-curvature="0" />
    <path
       style="fill:none;stroke:#00034b;stroke-width:3;stroke-linecap:round;stroke-linejoin:round;stroke-miterlimit:4;stroke-dasharray:none;stroke-opacity:1"
       d="m 118.99636,120.12604 11.1125,1.5875"
       id="path1765"
       inkscape:connector-curvature="0" />
    <path
       style="fill:none;stroke:#00034b;stroke-width:1.5;stroke-linecap:round;stroke-linejoin:round;stroke-miterlimit:4;stroke-dasharray:none;stroke-opacity:1"
       d="m 104.51042,146.25364 c 0,0 5.35781,1.38907 8.86354,1.12448 3.50573,-0.26458 6.68073,-1.52135 6.68073,-1.52135"
       id="path1767"
       inkscape:connector-curvature="0" />
    <path
       style="fill:none;stroke:#00034b;stroke-width:1.5;stroke-linecap:round;stroke-linejoin:round;stroke-miterlimit:4;stroke-dasharray:none;stroke-opacity:1"
       d="m 72.165103,183.62604 c 0,0 -0.926041,2.84427 -1.455208,5.55625 -0.529167,2.71198 -0.529167,4.89479 -0.529167,4.89479"
       id="path1769"
       inkscape:connector-curvature="0" />
    <path
       style="fill:none;stroke:#00034b;stroke-width:1.5;stroke-linecap:round;stroke-linejoin:round;stroke-miterlimit:4;stroke-dasharray:none;stroke-opacity:1"
       d="m 82.668033,216.54271 c 0,0 1.897144,-1.10029 4.633001,-1.10029 2.735856,0 5.858718,0.18846 7.786267,0.38669 1.92755,0.19823 2.927544,1.58233 2.927544,1.58233"
       id="path1800"
       inkscape:connector-curvature="0"
       sodipodi:nodetypes="czzc" />
    <path
       style="fill:#b4acff;fill-opacity:1;stroke:#b4acff;stroke-width:0.5;stroke-linecap:round;stroke-linejoin:round;stroke-miterlimit:4;stroke-dasharray:none;stroke-opacity:1"
       d="m 80.784402,171.07216 c 0,0 19.809218,-0.75464 33.298358,-5.56545 13.48914,-4.81081 18.30288,-7.29675 18.77161,-7.92369 0.46873,-0.62694 1.98092,-15.84738 1.98092,-22.16747 0,-6.32008 -1.41495,-27.63858 -1.41495,-27.63858 0,0 -1.22629,31.41178 -9.33863,40.93906 -8.11235,9.5273 -43.297308,22.35613 -43.297308,22.35613 z"
       id="path2312"
       inkscape:connector-curvature="0"
       sodipodi:nodetypes="cszsczc" />
    <path
       style="fill:#b4acff;fill-opacity:1;stroke:#b4acff;stroke-width:0.5;stroke-linecap:round;stroke-linejoin:round;stroke-miterlimit:4;stroke-dasharray:none;stroke-opacity:1"
       d="m 52.495616,163.12688 c 0,0 6.941571,3.53276 10.908181,4.89628 3.966612,1.36352 12.70555,3.16089 12.70555,3.16089 0.979885,-15.34461 1.336745,-19.74555 1.639689,-32.03251 0,0 -1.536885,13.40036 -2.501043,19.1853 -0.980282,5.88169 -3.59367,7.27498 -3.59367,7.27498 -0.815303,0.61251 -4.075749,0.61356 -9.773036,-0.1753 -5.697286,-0.78885 -9.385671,-2.30964 -9.385671,-2.30964 z"
       id="path2314"
       inkscape:connector-curvature="0"
       sodipodi:nodetypes="csccsscc" />
    <path
       style="fill:#b4acff;fill-opacity:1;stroke:#b4acff;stroke-width:0.5;stroke-linecap:round;stroke-linejoin:round;stroke-miterlimit:4;stroke-dasharray:none;stroke-opacity:1"
       d="m 47.002606,135.96403 18.297051,-1.05181"
       id="path2320"
       inkscape:connector-curvature="0" />
    <path
       inkscape:connector-curvature="0"
       id="path2322"
       d="M 44.531054,112.35238 43.935809,132.292"
       style="fill:#b4acff;fill-opacity:1;stroke:#b4acff;stroke-width:0.54422981;stroke-linecap:round;stroke-linejoin:round;stroke-miterlimit:4;stroke-dasharray:none;stroke-opacity:1" />
    <path
       style="fill:#b4acff;fill-opacity:1;stroke:#b4acff;stroke-width:0.5;stroke-linecap:round;stroke-linejoin:round;stroke-miterlimit:4;stroke-dasharray:none;stroke-opacity:1"
       d="M 59.931753,95.12861 46.59149,107.69547"
       id="path2324"
       inkscape:connector-curvature="0" />
    <path
       style="fill:#b4acff;fill-opacity:1;stroke:#b4acff;stroke-width:0.34999999;stroke-linecap:round;stroke-linejoin:round;stroke-miterlimit:4;stroke-dasharray:none;stroke-opacity:1"
       d="m 165.19475,124.01706 -11.19814,-2.32107"
       id="path2328"
       inkscape:connector-curvature="0" />
    <path
       style="fill:#6e3cfc;fill-opacity:1;stroke:#6e3cfc;stroke-width:0.5;stroke-linecap:round;stroke-linejoin:round;stroke-miterlimit:4;stroke-dasharray:none;stroke-opacity:1"
       d="m 100.78841,173.17544 c 0,0 0.40415,15.31318 0.44797,18.16182 0.0438,2.84865 -0.13368,11.9643 -0.13368,11.9643 0,0 -0.2811,5.12756 -0.807,8.1515 -0.525908,3.02394 -1.165134,3.95361 -1.165134,3.95361 0,0 -0.760979,-0.75345 -2.078852,-1.12752 -1.317874,-0.37407 -1.762859,-0.38658 -3.003967,-0.51618 -1.241109,-0.1296 -2.169617,-0.25141 -2.169617,-0.25141 0,0 4.771937,-1.97957 5.629988,-3.86103 0.858051,-1.88146 0.81799,-1.75043 1.392687,-6.76687 0.574697,-5.01644 0.843412,-10.19236 1.158525,-15.34104 0.31511,-5.14867 0.72908,-14.36718 0.72908,-14.36718 z"
       id="path2330"
       inkscape:connector-curvature="0"
       sodipodi:nodetypes="ccccczzczzzc" />
    <path
       style="fill:#6e3cfc;fill-opacity:1;stroke:#6e3cfc;stroke-width:0.5;stroke-linecap:round;stroke-linejoin:round;stroke-miterlimit:4;stroke-dasharray:none;stroke-opacity:1"
       d="m 97.184572,218.74317 c 2.13516,1.21792 1.513414,8.75346 1.33464,14.44723 0,0 -0.04383,3.11159 -1.227109,3.33072 -0.562024,0.10408 -2.906054,0.62106 -5.843291,0.59785 -3.246812,-0.0257 -6.55926,-0.5102 -6.55926,-0.5102 0,0 1.822488,-3.13387 3.449581,-3.48308 0.747075,-0.14784 3.241242,-0.0605 4.889924,-0.24328 2.223661,-0.24649 3.855109,-0.57281 4.056439,-1.9821 0.350606,-2.45421 0.444372,-2.89967 0.488685,-4.89726 0.03932,-2.52768 0.314267,-5.05307 -0.589609,-7.25988 z"
       id="path2332"
       inkscape:connector-curvature="0"
       sodipodi:nodetypes="cccsccsscc" />
    <path
       style="fill:#6e3cfc;fill-opacity:1;stroke:#6e3cfc;stroke-width:0.26499999;stroke-linecap:round;stroke-linejoin:round;stroke-miterlimit:4;stroke-dasharray:none;stroke-opacity:1"
       d="m 69.88053,186.43071 c 0.307893,0.42115 -0.436095,1.90607 -0.712751,3.84266 -0.278903,1.95232 -0.134395,2.67021 -0.650775,3.12991 -0.418352,0.37243 -4.601907,-2.22434 -4.617384,-2.82002 0.210683,-0.7166 5.747753,-4.36378 5.98091,-4.15255 z"
       id="path2334"
       inkscape:connector-curvature="0"
       sodipodi:nodetypes="csscc" />
    <path
       style="fill:#6e3cfc;fill-opacity:1;stroke:#6e3cfc;stroke-width:0.5;stroke-linecap:round;stroke-linejoin:round;stroke-miterlimit:4;stroke-dasharray:none;stroke-opacity:1"
       d="m 129.19691,164.56002 c 0,0 9.25831,11.35088 10.85454,20.54668 1.59624,9.1958 1.63877,21.36532 1.63877,21.36532 0,0 -2.15055,0.24791 -4.16651,0.94912 -2.01596,0.7012 -3.85662,1.49006 -3.85662,1.49006 0,0 0.14449,-1.03291 1.25631,-1.73603 1.1784,-0.74523 3.52236,-1.55303 3.83805,-2.22952 0.61355,-1.31476 -0.13502,-14.37787 -0.96856,-19.09718 -1.13925,-8.07209 -5.12473,-13.15972 -8.59598,-21.28845 z"
       id="path2336"
       inkscape:connector-curvature="0"
       sodipodi:nodetypes="czcccsccc" />
    <path
       style="fill:#6e3cfc;fill-opacity:1;stroke:#6e3cfc;stroke-width:0.5;stroke-linecap:round;stroke-linejoin:round;stroke-miterlimit:4;stroke-dasharray:none;stroke-opacity:1"
       d="m 138.55805,211.30381 c 0,0 1.48276,-0.82022 3.01664,-0.73257 1.53389,0.0876 4.0913,2.16923 6.98472,4.6053 2.89341,2.43608 3.73653,2.89817 4.52538,4.56353 0.78886,1.66536 0.72909,1.96412 0.46127,2.83398 -0.26782,0.86985 -0.85494,1.59383 -2.3396,2.58174 -1.48465,0.98792 -4.04795,2.1125 -4.04795,2.1125 0,0 0.0462,-0.6232 1.03818,-1.47939 1.33916,-1.15585 3.79392,-2.33214 3.68044,-4.57169 -0.11348,-2.23955 -7.2602,-7.28158 -9.25063,-8.68667 -1.99043,-1.40509 -2.45375,-0.65722 -4.06845,-1.22673 z"
       id="path2338"
       inkscape:connector-curvature="0"
       sodipodi:nodetypes="cczzzzcszzc" />
    <path
       sodipodi:nodetypes="czcczc"
       inkscape:connector-curvature="0"
       id="path2360"
       d="m 119.68131,126.93928 c 0,0 0.62968,-0.0121 1.0974,0.0136 0.46773,0.0258 0.83076,0.0578 0.83076,0.0578 l -0.0433,-3.6135 c 0,0 -0.21774,2.69578 -0.56109,2.91578 -0.34335,0.21997 -1.3238,0.6263 -1.3238,0.6263 z"
       style="fill:#6e3cfc;fill-opacity:1;stroke:#6e3cfc;stroke-width:0.25;stroke-linecap:round;stroke-linejoin:round;stroke-miterlimit:4;stroke-dasharray:none;stroke-opacity:1" />
    <rect
       style="display:inline;opacity:1;fill:#ebebff;fill-opacity:1;stroke:#ebebff;stroke-width:0.74721843;stroke-linecap:round;stroke-linejoin:round;stroke-miterlimit:4;stroke-dasharray:none;stroke-dashoffset:0;stroke-opacity:1"
       id="rect2368"
       width="3.0008583"
       height="3.1162765"
       x="107.59671"
       y="116.2494"
       transform="rotate(3)" />
    <rect
       transform="rotate(3)"
       y="116.65766"
       x="130.7896"
       height="3.1162765"
       width="3.0008583"
       id="rect2589"
       style="display:inline;opacity:1;fill:#ebebff;fill-opacity:1;stroke:#ebebff;stroke-width:0.74721843;stroke-linecap:round;stroke-linejoin:round;stroke-miterlimit:4;stroke-dasharray:none;stroke-dashoffset:0;stroke-opacity:1" />
  </g>
</svg>
