<?xml version="1.0" encoding="UTF-8" standalone="no"?>
<!-- Created with Inkscape (http://www.inkscape.org/) -->

<svg
   xmlns:dc="http://purl.org/dc/elements/1.1/"
   xmlns:cc="http://creativecommons.org/ns#"
   xmlns:rdf="http://www.w3.org/1999/02/22-rdf-syntax-ns#"
   xmlns:svg="http://www.w3.org/2000/svg"
   xmlns="http://www.w3.org/2000/svg"
   xmlns:sodipodi="http://sodipodi.sourceforge.net/DTD/sodipodi-0.dtd"
   xmlns:inkscape="http://www.inkscape.org/namespaces/inkscape"
   width="134.40488mm"
   height="178.58823mm"
   viewBox="0 0 134.40488 178.58823"
   version="1.1"
   id="svg8"
   inkscape:version="0.92.5 (2060ec1f9f, 2020-04-08)"
   sodipodi:docname="Charlotte.svg"
   inkscape:export-filename="/home/michael/Pictures/Marketing Material/HackSMU IV Assets/Charlotte.png"
   inkscape:export-xdpi="96"
   inkscape:export-ydpi="96">
  <defs
     id="defs2" />
  <sodipodi:namedview
     id="base"
     pagecolor="#ffffff"
     bordercolor="#666666"
     borderopacity="1.0"
     inkscape:pageopacity="0.0"
     inkscape:pageshadow="2"
     inkscape:zoom="0.7"
     inkscape:cx="561.43993"
     inkscape:cy="248.13212"
     inkscape:document-units="mm"
     inkscape:current-layer="layer1"
     showgrid="false"
     inkscape:window-width="2488"
     inkscape:window-height="1376"
     inkscape:window-x="72"
     inkscape:window-y="27"
     inkscape:window-maximized="1"
     showguides="false"
     fit-margin-top="0"
     fit-margin-left="0"
     fit-margin-right="0"
     fit-margin-bottom="0" />
  <metadata
     id="metadata5">
    <rdf:RDF>
      <cc:Work
         rdf:about="">
        <dc:format>image/svg+xml</dc:format>
        <dc:type
           rdf:resource="http://purl.org/dc/dcmitype/StillImage" />
        <dc:title></dc:title>
      </cc:Work>
    </rdf:RDF>
  </metadata>
  <g
     inkscape:label="Layer 1"
     inkscape:groupmode="layer"
     id="layer1"
     transform="translate(-31.708744,-52.498983)">
    <path
       style="fill:#ebebff;fill-opacity:1;stroke:#00034b;stroke-width:1.5;stroke-linecap:round;stroke-linejoin:round;stroke-miterlimit:4;stroke-dasharray:none;stroke-opacity:1"
       d="m 103.09301,78.624254 -14.079619,9.638393 c 0,0 -4.346725,5.197173 -14.835565,25.985863 C 63.688988,135.0372 58.964284,146.1875 58.964284,146.1875 l 13.796132,10.77232 63.972474,3.49628 22.48958,-16.81994 c 0,0 -3.87426,-14.74107 -14.45759,-32.97842 C 134.18155,92.420386 128.03943,88.451636 128.03943,88.451636 l -7.65402,-3.779762 z"
       id="path4429"
       inkscape:connector-curvature="0"
       sodipodi:nodetypes="ccsccccsccc" />
    <path
       style="fill:none;stroke:#00034b;stroke-width:1.5;stroke-linecap:round;stroke-linejoin:round;stroke-miterlimit:4;stroke-dasharray:none;stroke-opacity:1"
       d="m 103.09301,78.624252 c 0,0 -10.205362,21.544648 -15.9695,36.569198 -5.764136,15.02455 -14.363094,41.76637 -14.363094,41.76637"
       id="path4431"
       inkscape:connector-curvature="0" />
    <path
       style="fill:none;stroke:#00034b;stroke-width:1.5;stroke-linecap:round;stroke-linejoin:round;stroke-miterlimit:4;stroke-dasharray:none;stroke-opacity:1"
       d="m 120.38541,84.671873 c 0,0 7.74852,20.977677 10.77233,38.270087 3.0238,17.29242 5.57515,37.51414 5.57515,37.51414"
       id="path4433"
       inkscape:connector-curvature="0"
       sodipodi:nodetypes="czc" />
    <path
       style="fill:#b4acff;fill-opacity:1;stroke:#b4acff;stroke-width:0.5;stroke-linecap:round;stroke-linejoin:round;stroke-miterlimit:4;stroke-dasharray:none;stroke-opacity:1"
       d="m 76.839989,154.67897 56.794771,2.73952 c 0,0 -2.19354,-20.39691 -4.74488,-33.72058 -2.55134,-13.32366 -3.1183,-14.36309 -3.1183,-14.36309 0,0 2.07887,25.70238 -7.18155,32.03348 -9.26042,6.3311 -41.750041,13.31067 -41.750041,13.31067 z"
       id="path4584"
       inkscape:connector-curvature="0" />
    <path
       style="fill:#b4acff;fill-opacity:1;stroke:#b4acff;stroke-width:0.5;stroke-linecap:round;stroke-linejoin:round;stroke-miterlimit:4;stroke-dasharray:none;stroke-opacity:1"
       d="m 61.071087,145.79226 10.490327,7.2831 c 0,0 8.018087,-22.6511 10.49033,-29.13238 2.472242,-6.48129 3.006783,-7.684 3.006783,-7.684 0,0 -11.960312,30.93645 -16.437076,30.66918 -4.476765,-0.26727 -7.550364,-1.1359 -7.550364,-1.1359 z"
       id="path4592"
       inkscape:connector-curvature="0" />
    <ellipse
       style="opacity:1;fill:#00034b;fill-opacity:1;stroke:#00034b;stroke-width:1.5;stroke-linecap:round;stroke-linejoin:round;stroke-miterlimit:4;stroke-dasharray:none;stroke-dashoffset:0;stroke-opacity:1"
       id="path4443"
       cx="109.78802"
       cy="130.22087"
       rx="2.6726952"
       ry="6.8153729"
       transform="rotate(9)" />
    <ellipse
       transform="matrix(0.94217344,0.33512566,-0.28650952,0.9580774,0,0)"
       ry="6.2753229"
       rx="2.1039104"
       cy="109.62491"
       cx="108.89981"
       id="ellipse4445"
       style="opacity:1;fill:#00034b;fill-opacity:1;stroke:#00034b;stroke-width:1.27703667;stroke-linecap:round;stroke-linejoin:round;stroke-miterlimit:4;stroke-dasharray:none;stroke-dashoffset:0;stroke-opacity:1" />
    <path
       style="fill:#ebebff;fill-opacity:1;stroke:#00034b;stroke-width:1.5;stroke-linecap:round;stroke-linejoin:round;stroke-miterlimit:4;stroke-dasharray:none;stroke-opacity:1"
       d="m 131.36297,178.66642 20.24567,3.60813 c 0,0 1.55603,-0.32721 1.13589,3.00678 l -0.42013,3.334 -43.16437,41.72188 -18.846648,-4.89002 c 0,0 -1.728358,-5.59163 -0.825339,-8.07395 0.903019,-2.48231 0.967934,-2.76372 3.321299,-5.5654 2.353365,-2.80168 35.880938,-32.2728 35.880938,-32.2728 0,0 0.60135,-0.66817 1.40316,-0.66817 0.80181,0 1.26953,-0.20045 1.26953,-0.20045 z"
       id="path4455"
       inkscape:connector-curvature="0"
       sodipodi:nodetypes="cccccczzcsc" />
    <path
       style="fill:none;stroke:#00034b;stroke-width:1.5;stroke-linecap:round;stroke-linejoin:round;stroke-miterlimit:4;stroke-dasharray:none;stroke-opacity:1"
       d="m 152.3244,188.61533 c 0,0 2.07887,-10.58334 -5.00818,-4.34673 -7.08706,6.2366 -32.97842,29.48214 -32.97842,29.48214 0,0 -6.14212,5.1963 -6.14212,10.29985 0,5.10356 0.96435,6.28662 0.96435,6.28662 z"
       id="path4451"
       inkscape:connector-curvature="0"
       sodipodi:nodetypes="ccczcc" />
    <path
       inkscape:connector-curvature="0"
       id="path4459"
       d="m 92.245205,171.24648 18.959675,3.37894 c 0,0 1.45719,-0.30642 1.06374,2.81579 l -0.39344,3.12223 -40.422597,39.07173 -17.64952,-4.57941 c 0,0 -1.632808,-4.54653 -0.728668,-7.51685 0.90414,-2.97032 1.497981,-3.49417 3.066086,-5.25613 1.568105,-1.76196 33.601802,-30.22285 33.601802,-30.22285 0,0 0.563152,-0.62573 1.314032,-0.62573 0.750879,0 1.18889,-0.18772 1.18889,-0.18772 z"
       style="fill:#ebebff;fill-opacity:1;stroke:#00034b;stroke-width:1.5;stroke-linecap:round;stroke-linejoin:round;stroke-miterlimit:4;stroke-dasharray:none;stroke-opacity:1"
       sodipodi:nodetypes="cccccczzcsc" />
    <path
       sodipodi:nodetypes="ccczcc"
       inkscape:connector-curvature="0"
       id="path4457"
       d="m 111.87518,180.56344 c 0,0 1.94682,-9.91109 -4.69007,-4.07063 -6.63689,5.84046 -30.883646,27.60945 -30.883646,27.60945 0,0 -5.751976,4.86624 -5.751976,9.64561 0,4.77939 0.903095,5.8873 0.903095,5.8873 z"
       style="fill:none;stroke:#00034b;stroke-width:1.5;stroke-linecap:round;stroke-linejoin:round;stroke-miterlimit:4;stroke-dasharray:none;stroke-opacity:1" />
    <path
       style="fill:#b4acff;fill-opacity:1;stroke:#b4acff;stroke-width:0.26458332px;stroke-linecap:butt;stroke-linejoin:miter;stroke-opacity:1"
       d="m 97.391682,225.20368 9.008618,2.53218 c 0,0 -1.46466,-5.00818 0.0472,-7.9375 1.51191,-2.92932 5.14993,-6.61458 5.14993,-6.61458 l 27.63951,-26.36384 c 0,0 -25.79974,22.4125 -27.73401,24.04873 -1.93427,1.63623 -5.30717,5.14853 -6.14211,6.66183 -0.83494,1.5133 -0.95587,4.86464 -2.93168,5.86257 -1.97581,0.99793 -4.490381,-0.28324 -4.864315,0.47247 -0.373933,0.75571 -0.173143,1.33814 -0.173143,1.33814 z"
       id="path4624"
       inkscape:connector-curvature="0"
       sodipodi:nodetypes="ccccczzzzc" />
    <path
       style="fill:#b4acff;fill-opacity:1;stroke:#b4acff;stroke-width:0.26458332px;stroke-linecap:butt;stroke-linejoin:miter;stroke-opacity:1"
       d="m 110.7164,225.77267 39.62271,-37.55137 c 0,0 -0.20046,-3.87541 -2.60588,-1.73725 -2.40543,2.13815 -32.78209,29.50092 -34.01005,30.66918 -1.22796,1.16826 -2.67269,2.93996 -2.93996,4.67721 -0.26727,1.73725 -0.0668,3.94223 -0.0668,3.94223 z"
       id="path4600"
       inkscape:connector-curvature="0"
       sodipodi:nodetypes="ccczscc" />
    <circle
       style="opacity:1;fill:#8888ff;fill-opacity:1;stroke:#00034b;stroke-width:1.5;stroke-linecap:round;stroke-linejoin:round;stroke-miterlimit:4;stroke-dasharray:none;stroke-dashoffset:0;stroke-opacity:1"
       id="path4447"
       cx="128.79538"
       cy="180.67781"
       r="18.310846" />
    <path
       style="fill:#6e3cfc;fill-opacity:1;stroke:#6e3cfc;stroke-width:0.542252;stroke-linecap:round;stroke-linejoin:round;stroke-miterlimit:4;stroke-dasharray:none;stroke-opacity:1"
       d="m 114.87583,189.19478 c 0,0 5.29094,7.43999 13.41506,7.10149 6.4968,-0.27072 9.8163,-2.2696 12.82439,-6.02308 3.0081,-3.75349 3.85747,-7.10586 3.31608,-11.70777 -0.54141,-4.6019 -4.19584,-9.20378 -4.19584,-9.20378 0,0 3.22365,11.26767 0.55849,16.23022 -1.96258,3.65444 -3.78982,4.87261 -6.90285,6.09074 -3.11302,1.21817 -6.49936,1.84025 -9.94822,1.21817 -3.95934,-0.65461 -9.0672,-3.70599 -9.0672,-3.70599 z"
       id="path4596"
       inkscape:connector-curvature="0"
       sodipodi:nodetypes="cszzcszccc" />
    <path
       sodipodi:nodetypes="ssssssss"
       inkscape:connector-curvature="0"
       id="path4439"
       d="m 117.45588,78.455498 c 0,4.89833 -3.71037,8.930057 -8.47391,9.437975 -0.33446,0.03566 -0.6741,0.05395 -1.01802,0.05395 -2.76658,-2e-6 -5.25672,-1.183616 -6.99166,-3.072087 -1.55249,-1.689886 -2.50026,-3.944181 -2.50026,-6.41984 0,-5.242244 4.24968,-9.491924 9.49192,-9.491928 5.24225,-2e-6 9.49193,4.24968 9.49193,9.491928 z"
       style="opacity:1;fill:#8888ff;fill-opacity:1;stroke:#00034b;stroke-width:1.5;stroke-linecap:round;stroke-miterlimit:4;stroke-dasharray:none;stroke-dashoffset:0;stroke-opacity:1" />
    <path
       style="fill:#ebebff;fill-opacity:1;stroke:#00034b;stroke-width:1.5;stroke-linecap:round;stroke-linejoin:round;stroke-miterlimit:4;stroke-dasharray:none;stroke-opacity:1"
       d="m 46.585565,186.44196 -3.307291,8.07924 -5.38616,2.45685 -4.441222,-1.88988 5.462475,-2.70119 3.892435,-7.45692 z"
       id="path4465"
       inkscape:connector-curvature="0"
       sodipodi:nodetypes="ccccccc" />
    <path
       style="fill:#b4acff;fill-opacity:1;stroke:#b4acff;stroke-width:0.26499999;stroke-linecap:round;stroke-linejoin:round;stroke-miterlimit:4;stroke-dasharray:none;stroke-opacity:1"
       d="m 36.699446,194.96986 c 0,0 3.956841,-1.7491 4.186076,-1.96336 0.229236,-0.21426 1.719708,-3.63715 1.719708,-3.63715 l 1.059928,0.25511 c 0,0 -1.107173,3.69728 -1.336347,3.90882 -0.229174,0.21154 -4.46006,2.07134 -4.46006,2.07134 z"
       id="path4616"
       inkscape:connector-curvature="0"
       sodipodi:nodetypes="czcczcc" />
    <path
       style="fill:#ebebff;fill-opacity:1;stroke:#00034b;stroke-width:1.5;stroke-linecap:round;stroke-linejoin:round;stroke-miterlimit:4;stroke-dasharray:none;stroke-opacity:1"
       d="m 32.458705,191.49739 c 0,0 3.590774,-6.00037 7.60677,-10.91406 4.015997,-4.91369 7.039806,-5.81138 7.039806,-5.81138 0,0 7.748513,0.0472 12.662204,0.51971 4.913691,0.47247 8.835192,0.75596 8.835192,0.75596 0,0 1.653645,0.7087 1.559152,2.69308 -0.09449,1.98437 -1.795386,2.50409 -1.795386,2.50409 0,0 -9.21317,-3.35454 -15.024555,0.23623 -5.811382,3.59078 -15.024552,11.76451 -15.024552,11.76451 z"
       id="path4463"
       inkscape:connector-curvature="0"
       sodipodi:nodetypes="cscccccccc" />
    <path
       sodipodi:nodetypes="ccczscc"
       inkscape:connector-curvature="0"
       id="path4602"
       d="m 73.169671,215.35181 39.622719,-37.55137 c 0,0 -0.20046,-3.87541 -2.60588,-1.73725 -2.40543,2.13815 -32.782099,29.50092 -34.010059,30.66918 -1.22796,1.16826 -2.67269,2.93996 -2.93996,4.67721 -0.26727,1.73725 -0.0668,3.94223 -0.0668,3.94223 z"
       style="fill:#b4acff;fill-opacity:1;stroke:#b4acff;stroke-width:0.26458332px;stroke-linecap:butt;stroke-linejoin:miter;stroke-opacity:1" />
    <path
       sodipodi:nodetypes="ccccczzzzc"
       inkscape:connector-curvature="0"
       id="path4626"
       d="m 59.972931,214.3026 8.958652,2.51813 c 0,0 -0.986687,-4.41659 0.516788,-7.32966 1.503524,-2.91307 5.121366,-6.57789 5.121366,-6.57789 l 27.486213,-26.21762 c 0,0 -25.703632,22.00629 -27.627173,23.63344 -1.923542,1.62716 -5.277735,5.11997 -6.108044,6.62488 -0.830309,1.50491 -1.373433,4.55575 -3.338284,5.54815 -1.964851,0.99239 -4.465475,-0.28167 -4.837335,0.46985 -0.371859,0.75152 -0.172183,1.33072 -0.172183,1.33072 z"
       style="fill:#b4acff;fill-opacity:1;stroke:#b4acff;stroke-width:0.26311582px;stroke-linecap:butt;stroke-linejoin:miter;stroke-opacity:1" />
    <circle
       r="17.176147"
       cy="178.17371"
       cx="81.784592"
       id="circle4449"
       style="opacity:1;fill:#8888ff;fill-opacity:1;stroke:#00034b;stroke-width:1.5;stroke-linecap:round;stroke-linejoin:round;stroke-miterlimit:4;stroke-dasharray:none;stroke-dashoffset:0;stroke-opacity:1" />
    <path
       sodipodi:nodetypes="cszzcszccc"
       inkscape:connector-curvature="0"
       id="path4604"
       d="m 68.294532,185.61108 c 0,0 5.103941,7.17704 12.940929,6.8505 6.267182,-0.26115 9.46936,-2.18938 12.371135,-5.8102 2.901784,-3.62083 3.721134,-6.85472 3.198879,-11.29398 -0.522275,-4.43925 -4.047546,-8.87849 -4.047546,-8.87849 0,0 3.109716,10.86944 0.538751,15.65659 -1.893216,3.52528 -3.655875,4.7004 -6.658881,5.87548 -3.002996,1.17511 -6.269652,1.77521 -9.596618,1.17511 -3.819404,-0.63147 -8.746736,-3.57501 -8.746736,-3.57501 z"
       style="fill:#6e3cfc;fill-opacity:1;stroke:#6e3cfc;stroke-width:0.52308708;stroke-linecap:round;stroke-linejoin:round;stroke-miterlimit:4;stroke-dasharray:none;stroke-opacity:1" />
    <path
       style="fill:#ebebff;fill-opacity:1;stroke:#00034b;stroke-width:1.5;stroke-linecap:round;stroke-linejoin:round;stroke-miterlimit:4;stroke-dasharray:none;stroke-opacity:1"
       d="m 58.964284,146.1875 30.236919,39.02702 30.067817,-7.81764 17.46387,-16.94078 -63.972474,-3.49628 z"
       id="path4435"
       inkscape:connector-curvature="0" />
    <path
       style="fill:none;stroke:#00034b;stroke-width:1.5;stroke-linecap:round;stroke-linejoin:round;stroke-miterlimit:4;stroke-dasharray:none;stroke-opacity:1"
       d="m 38.317336,193.24553 c 0,0 4.211926,-7.02875 7.786656,-10.33621 3.57473,-3.30746 6.180608,-4.9779 6.180608,-4.9779 0,0 7.817633,-0.36749 12.127354,0.13364"
       id="path4467"
       inkscape:connector-curvature="0" />
    <path
       style="fill:none;stroke:#00034b;stroke-width:1.5;stroke-linecap:round;stroke-linejoin:round;stroke-miterlimit:4;stroke-dasharray:none;stroke-opacity:1"
       d="m 72.760416,156.95982 16.440787,28.2547"
       id="path4437"
       inkscape:connector-curvature="0" />
    <path
       style="fill:none;stroke:#00034b;stroke-width:1.5;stroke-linecap:round;stroke-linejoin:round;stroke-miterlimit:4;stroke-dasharray:none;stroke-opacity:1"
       d="m 153.74181,192.72581 10.22898,-12.00074 c 0,0 1.03944,-0.99219 1.2048,-2.33873 0.16537,-1.34654 0.16537,-2.7167 0.16537,-2.7167 0,0 0.29269,0.1322 -1.25205,2.8112 -1.54474,2.67899 -6.7146,9.22946 -10.3471,14.24497 z"
       id="path4473"
       inkscape:connector-curvature="0"
       sodipodi:nodetypes="cccczc" />
    <path
       style="fill:#ebebff;fill-opacity:1;stroke:#00034b;stroke-width:1.5;stroke-linecap:round;stroke-linejoin:round;stroke-miterlimit:4;stroke-dasharray:none;stroke-opacity:1"
       d="m 159.34059,186.32384 -1.18118,6.99256 -4.55934,3.89788 -5.19717,-1.86625 5.17355,-3.28367 1.65365,-7.03981 z"
       id="path4475"
       inkscape:connector-curvature="0" />
    <path
       sodipodi:nodetypes="czcczcc"
       inkscape:connector-curvature="0"
       id="path4620"
       d="m 151.15763,194.93645 c 0,0 4.05706,-2.38386 4.28629,-2.59812 0.22924,-0.21426 1.18517,-4.40555 1.18517,-4.40555 l 1.05993,0.25511 c 0,0 -0.70627,4.46568 -0.93544,4.67722 -0.22917,0.21154 -3.59144,2.90655 -3.59144,2.90655 z"
       style="fill:#b4acff;fill-opacity:1;stroke:#b4acff;stroke-width:0.26499999;stroke-linecap:round;stroke-linejoin:round;stroke-miterlimit:4;stroke-dasharray:none;stroke-opacity:1" />
    <path
       style="fill:#ebebff;fill-opacity:1;stroke:#00034b;stroke-width:1.5;stroke-linecap:round;stroke-linejoin:round;stroke-miterlimit:4;stroke-dasharray:none;stroke-opacity:1"
       d="m 155.56447,180.90832 -15.85502,0.99793 c 0,0 -1.88988,-2.88207 -2.22061,-4.8192 -0.33073,-1.93713 0.56696,-5.5279 0.56696,-5.5279 0,0 7.32329,-0.61421 11.38653,-0.70871 4.06325,-0.0945 7.74852,0 7.74852,0 0,0 9.73288,1.84264 7.89025,5.81139 -1.84263,3.96875 -11.33929,16.06398 -11.33929,16.06398 l -5.19717,-1.70089 c 0,0 2.78758,-3.73251 4.34673,-5.90588 1.55915,-2.17336 2.22061,-3.1183 2.22061,-3.1183 0,0 1.18117,-1.65364 0.75595,-4.20498 -0.42522,-2.55134 -1.79539,-3.3073 -1.79539,-3.3073 0,0 1.63026,1.05131 1.79539,3.3073 0.16513,2.25599 -0.30346,3.11256 -0.30346,3.11256 z"
       id="path4469"
       inkscape:connector-curvature="0"
       sodipodi:nodetypes="ccscscsccccsczc" />
    <path
       style="fill:none;stroke:#00034b;stroke-width:1.5;stroke-linecap:round;stroke-linejoin:round;stroke-miterlimit:4;stroke-dasharray:none;stroke-opacity:1"
       d="m 154.07254,174.48846 c 0,0 -3.2323,-0.0315 -5.80477,0.0353 -2.57247,0.0668 -7.93449,0.42047 -7.93449,0.42047"
       id="path4479"
       inkscape:connector-curvature="0"
       sodipodi:nodetypes="csc" />
    <path
       sodipodi:nodetypes="cszzcszcc"
       inkscape:connector-curvature="0"
       id="path4441"
       d="m 101.49755,82.600694 c 0,0 2.50931,3.528516 6.36229,3.367976 3.0812,-0.128383 4.65552,-1.076382 6.08215,-2.856527 1.42664,-1.780145 1.82946,-3.370062 1.5727,-5.552577 -0.25677,-2.182517 -1.98994,-4.365031 -1.98994,-4.365031 0,0 1.18029,4.710075 -0.0837,7.063638 -0.93079,1.733173 -1.79738,2.310899 -3.27378,2.888623 -1.4764,0.577725 -3.08242,0.872761 -4.71809,0.577725 -1.87777,-0.310453 -3.95167,-1.123827 -3.95167,-1.123827 z"
       style="fill:#6e3cfc;fill-opacity:1;stroke:#6e3cfc;stroke-width:0.25717089;stroke-linecap:round;stroke-linejoin:round;stroke-miterlimit:4;stroke-dasharray:none;stroke-opacity:1" />
    <path
       style="fill:#b4acff;fill-opacity:1;stroke:#b4acff;stroke-width:0.5;stroke-linecap:round;stroke-linejoin:round;stroke-miterlimit:4;stroke-dasharray:none;stroke-opacity:1"
       d="m 138.84652,154.94624 17.63979,-12.96257 c 0,0 -5.27858,-13.69756 -11.55941,-25.3906 -6.28084,-11.69305 -15.83572,-24.922886 -15.83572,-24.922886 l 4.11073,23.010116 c 3.06379,18.0351 2.98457,21.02419 5.64461,40.26594 z"
       id="path4586"
       inkscape:connector-curvature="0"
       sodipodi:nodetypes="ccsccc" />
    <path
       style="fill:#b4acff;fill-opacity:1;stroke:#b4acff;stroke-width:0.26458332px;stroke-linecap:butt;stroke-linejoin:miter;stroke-opacity:1"
       d="m 90.470735,182.34137 27.061035,-7.01582 13.09621,-12.89576 -53.119817,-2.87315 z"
       id="path4590"
       inkscape:connector-curvature="0" />
    <path
       style="fill:#b4acff;fill-opacity:1;stroke:#b4acff;stroke-width:0.26458332px;stroke-linecap:butt;stroke-linejoin:miter;stroke-opacity:1"
       d="m 66.750564,154.14444 5.011304,4.40994 6.548104,10.28988 z"
       id="path4594"
       inkscape:connector-curvature="0" />
    <path
       style="fill:#b4acff;fill-opacity:1;stroke:#b4acff;stroke-width:0.26499999;stroke-linecap:round;stroke-linejoin:round;stroke-miterlimit:4;stroke-dasharray:none;stroke-opacity:1"
       d="m 45.215402,185.54427 c 0,0 7.734992,-5.32762 7.968043,-5.43579 0.307438,-0.14271 0.817175,-0.39551 1.447951,-0.59463 l 1.322917,-0.41761 c 0,0 -2.802878,0.0253 -3.179387,0.16413 -0.376509,0.13885 -3.391223,2.34082 -4.617762,3.45329 -1.226539,1.11248 -2.941762,2.83057 -2.941762,2.83057 z"
       id="path4606"
       inkscape:connector-curvature="0"
       sodipodi:nodetypes="cssczzcc" />
    <path
       style="fill:#b4acff;fill-opacity:1;stroke:#b4acff;stroke-width:0.26458332px;stroke-linecap:round;stroke-linejoin:round;stroke-opacity:1"
       d="m 34.544587,190.79377 3.107007,0.90203 c 0,0 3.841999,-5.98015 5.746294,-8.15171 1.904296,-2.17157 7.015825,-6.04698 7.015825,-6.04698 0,0 -6.147194,3.34086 -9.588293,7.65059 -2.248029,2.81549 -4.339633,4.26176 -5.450267,4.99569 -0.589431,0.38951 -0.830566,0.65038 -0.830566,0.65038 z"
       id="path4618"
       inkscape:connector-curvature="0"
       sodipodi:nodetypes="cczcssc" />
    <path
       sodipodi:nodetypes="cczcssc"
       inkscape:connector-curvature="0"
       id="path4622"
       d="m 150.56393,190.31189 2.82353,0.83116 c 0,0 4.33808,-5.93289 6.07702,-8.22258 1.73894,-2.28969 4.39362,-6.61394 4.39362,-6.61394 0,0 -3.52498,3.90782 -6.96608,8.21755 -2.24803,2.81549 -4.33964,4.26176 -5.45027,4.99569 -0.58943,0.38951 -0.87782,0.79212 -0.87782,0.79212 z"
       style="fill:#b4acff;fill-opacity:1;stroke:#b4acff;stroke-width:0.26458332px;stroke-linecap:round;stroke-linejoin:round;stroke-opacity:1" />
    <g
       id="g4632"
       transform="rotate(6,2.0725913,336.2203)">
      <path
         sodipodi:nodetypes="csc"
         inkscape:connector-curvature="0"
         id="path4628"
         d="m 65.752929,60.324724 c 0,0 5.551945,-9.941856 15.235572,-9.812738 9.683624,0.129109 15.106453,9.812738 15.106453,9.812738"
         style="fill:none;fill-opacity:1;stroke:#00034b;stroke-width:1.5;stroke-linecap:round;stroke-linejoin:round;stroke-miterlimit:4;stroke-dasharray:none;stroke-opacity:1" />
      <path
         sodipodi:nodetypes="csc"
         inkscape:connector-curvature="0"
         id="path4630"
         d="m 58.210088,57.992849 c 0,0 8.153139,-14.599808 22.373736,-14.410195 14.220594,0.189599 22.184106,14.410195 22.184106,14.410195"
         style="fill:none;fill-opacity:1;stroke:#00034b;stroke-width:1.5;stroke-linecap:round;stroke-linejoin:round;stroke-miterlimit:4;stroke-dasharray:none;stroke-opacity:1" />
    </g>
  </g>
</svg>
