<?xml version="1.0" encoding="UTF-8" standalone="no"?>
<!-- Created with Inkscape (http://www.inkscape.org/) -->

<svg
   xmlns:dc="http://purl.org/dc/elements/1.1/"
   xmlns:cc="http://creativecommons.org/ns#"
   xmlns:rdf="http://www.w3.org/1999/02/22-rdf-syntax-ns#"
   xmlns:svg="http://www.w3.org/2000/svg"
   xmlns="http://www.w3.org/2000/svg"
   xmlns:sodipodi="http://sodipodi.sourceforge.net/DTD/sodipodi-0.dtd"
   xmlns:inkscape="http://www.inkscape.org/namespaces/inkscape"
   width="108.40173mm"
   height="57.550659mm"
   viewBox="0 0 108.40173 57.550659"
   version="1.1"
   id="svg8"
   inkscape:version="0.92.5 (2060ec1f9f, 2020-04-08)"
   sodipodi:docname="cloud-lg.svg"
   inkscape:export-filename="/home/michael/cloud-lg.png"
   inkscape:export-xdpi="96"
   inkscape:export-ydpi="96">
  <defs
     id="defs2" />
  <sodipodi:namedview
     id="base"
     pagecolor="#a5a5a5"
     bordercolor="#666666"
     borderopacity="1.0"
     inkscape:pageopacity="0"
     inkscape:pageshadow="2"
     inkscape:zoom="0.98994949"
     inkscape:cx="90.317286"
     inkscape:cy="17.78728"
     inkscape:document-units="mm"
     inkscape:current-layer="layer1"
     showgrid="false"
     inkscape:window-width="1920"
     inkscape:window-height="1043"
     inkscape:window-x="2560"
     inkscape:window-y="0"
     inkscape:window-maximized="1"
     fit-margin-top="0"
     fit-margin-left="0"
     fit-margin-right="0"
     fit-margin-bottom="0" />
  <metadata
     id="metadata5">
    <rdf:RDF>
      <cc:Work
         rdf:about="">
        <dc:format>image/svg+xml</dc:format>
        <dc:type
           rdf:resource="http://purl.org/dc/dcmitype/StillImage" />
        <dc:title></dc:title>
      </cc:Work>
    </rdf:RDF>
  </metadata>
  <g
     inkscape:label="Layer 1"
     inkscape:groupmode="layer"
     id="layer1"
     transform="translate(-56.181455,-117.75192)">
    <path
       style="opacity:1;fill:#ffffff;fill-opacity:1;stroke:#ffffff;stroke-width:0.94999999;stroke-linecap:round;stroke-linejoin:round;stroke-miterlimit:4;stroke-dasharray:none;stroke-dashoffset:0;stroke-opacity:1"
       d="m 86.056096,160.12776 a 14.699824,14.699824 0 0 1 -14.699821,14.69982 14.699824,14.699824 0 0 1 -14.69982,-14.69982 14.699824,14.699824 0 0 1 14.69982,-14.69983 14.699824,14.699824 0 0 1 14.699821,14.69983 z"
       id="path978"
       inkscape:connector-curvature="0" />
    <path
       style="opacity:1;fill:#ffffff;fill-opacity:1;stroke:#ffffff;stroke-width:0.94999999;stroke-linecap:round;stroke-linejoin:round;stroke-miterlimit:4;stroke-dasharray:none;stroke-dashoffset:0;stroke-opacity:1"
       d="m 105.34491,144.45502 a 14.699824,14.699824 0 0 1 -14.699825,14.69982 14.699824,14.699824 0 0 1 -14.69983,-14.69982 14.699824,14.699824 0 0 1 14.69983,-14.69982 14.699824,14.699824 0 0 1 14.699825,14.69982 z"
       id="circle982"
       inkscape:connector-curvature="0" />
    <path
       style="opacity:1;fill:#ffffff;fill-opacity:1;stroke:#ffffff;stroke-width:0.94999999;stroke-linecap:round;stroke-linejoin:round;stroke-miterlimit:4;stroke-dasharray:none;stroke-dashoffset:0;stroke-opacity:1"
       d="m 127.83449,132.92675 a 14.699824,14.699824 0 0 1 -14.69982,14.69982 14.699824,14.699824 0 0 1 -14.699833,-14.69982 14.699824,14.699824 0 0 1 14.699833,-14.69983 14.699824,14.699824 0 0 1 14.69982,14.69983 z"
       id="circle988"
       inkscape:connector-curvature="0" />
    <path
       style="opacity:1;fill:#ffffff;fill-opacity:1;stroke:#ffffff;stroke-width:0.94999999;stroke-linecap:round;stroke-linejoin:round;stroke-miterlimit:4;stroke-dasharray:none;stroke-dashoffset:0;stroke-opacity:1"
       d="m 150.89104,143.69907 a 14.699824,14.699824 0 0 1 -14.69982,14.69982 14.699824,14.699824 0 0 1 -14.69983,-14.69982 14.699824,14.699824 0 0 1 14.69983,-14.69983 14.699824,14.699824 0 0 1 14.69982,14.69983 z"
       id="circle990"
       inkscape:connector-curvature="0" />
    <path
       style="opacity:1;fill:#ffffff;fill-opacity:1;stroke:#ffffff;stroke-width:0.94999999;stroke-linecap:round;stroke-linejoin:round;stroke-miterlimit:4;stroke-dasharray:none;stroke-dashoffset:0;stroke-opacity:1"
       d="m 164.10818,160.12776 a 14.699824,14.699824 0 0 1 -14.69983,14.69982 14.699824,14.699824 0 0 1 -14.69982,-14.69982 14.699824,14.699824 0 0 1 14.69982,-14.69983 14.699824,14.699824 0 0 1 14.69983,14.69983 z"
       id="circle992"
       inkscape:connector-curvature="0" />
    <rect
       style="opacity:1;fill:#ffffff;fill-opacity:1;stroke:#ffffff;stroke-width:0.73490089;stroke-linecap:round;stroke-linejoin:round;stroke-miterlimit:4;stroke-dasharray:none;stroke-dashoffset:0;stroke-opacity:1"
       id="rect957-3"
       width="76.732704"
       height="28.82423"
       x="71.502235"
       y="146.10307" />
  </g>
</svg>
