<?xml version="1.0" encoding="UTF-8" standalone="no"?>
<!-- Created with Inkscape (http://www.inkscape.org/) -->

<svg
   xmlns:dc="http://purl.org/dc/elements/1.1/"
   xmlns:cc="http://creativecommons.org/ns#"
   xmlns:rdf="http://www.w3.org/1999/02/22-rdf-syntax-ns#"
   xmlns:svg="http://www.w3.org/2000/svg"
   xmlns="http://www.w3.org/2000/svg"
   xmlns:sodipodi="http://sodipodi.sourceforge.net/DTD/sodipodi-0.dtd"
   xmlns:inkscape="http://www.inkscape.org/namespaces/inkscape"
   width="209.02959mm"
   height="194.41699mm"
   viewBox="0 0 209.02959 194.41699"
   version="1.1"
   id="svg8"
   inkscape:version="0.92.5 (2060ec1f9f, 2020-04-08)"
   sodipodi:docname="dallas-texas.svg"
   inkscape:export-filename="/home/michael/Documents/Drawing/Artwork/dallas-texas.png"
   inkscape:export-xdpi="96"
   inkscape:export-ydpi="96">
  <defs
     id="defs2" />
  <sodipodi:namedview
     id="base"
     pagecolor="#979797"
     bordercolor="#666666"
     borderopacity="1.0"
     inkscape:pageopacity="0"
     inkscape:pageshadow="2"
     inkscape:zoom="0.64"
     inkscape:cx="-313.06551"
     inkscape:cy="640.99703"
     inkscape:document-units="mm"
     inkscape:current-layer="layer1"
     showgrid="false"
     inkscape:window-width="2488"
     inkscape:window-height="1376"
     inkscape:window-x="72"
     inkscape:window-y="27"
     inkscape:window-maximized="1"
     showguides="false"
     fit-margin-top="0"
     fit-margin-left="0"
     fit-margin-right="0"
     fit-margin-bottom="0" />
  <metadata
     id="metadata5">
    <rdf:RDF>
      <cc:Work
         rdf:about="">
        <dc:format>image/svg+xml</dc:format>
        <dc:type
           rdf:resource="http://purl.org/dc/dcmitype/StillImage" />
        <dc:title></dc:title>
      </cc:Work>
    </rdf:RDF>
  </metadata>
  <g
     inkscape:label="Layer 1"
     inkscape:groupmode="layer"
     id="layer1"
     transform="translate(-17.13108,-42.534284)">
    <path
       style="fill:#ffffff;fill-opacity:1;stroke:#ffffff;stroke-width:1;stroke-linecap:round;stroke-linejoin:round;stroke-miterlimit:4;stroke-dasharray:none;stroke-opacity:1"
       d="m 17.631073,134.94564 c 0,0 0.58466,4.7503 3.581,7.30814 2.99634,2.55785 5.48111,2.92326 5.48111,2.92326 0,0 0.8039,2.7771 2.26553,4.01948 1.46163,1.24239 1.60779,1.24239 1.60779,1.24239 0,0 1.53471,2.33861 2.99634,3.50791 1.46163,1.16931 3.21559,2.04628 3.21559,2.04628 0,0 2.19245,0.73082 2.63093,2.11937 0.43849,1.38855 1.6078,3.87332 1.6078,3.87332 l 2.41169,3.65407 c 0,0 0.14616,1.53472 0.73081,4.09257 0.58465,2.55785 1.24239,4.60413 1.24239,4.60413 0,0 1.1693,0.36541 2.55785,2.19245 1.38855,1.82704 2.04628,2.77709 2.04628,2.77709 l 3.069433,1.09623 c 0,0 0,1.31547 2.48477,1.75395 l 2.48477,0.43849 c 0,0 1.09622,0.65774 1.68087,1.75396 0.58466,1.09622 1.02315,1.38855 1.02315,1.38855 0,0 -0.29233,0.51157 1.97319,0.65773 2.26553,0.14617 1.82704,-0.65773 1.82704,-0.65773 0,0 0.0731,-0.95006 0.58465,-1.75396 0.51158,-0.8039 1.38855,-1.90012 1.38855,-1.90012 0,0 1.53472,-0.95006 1.97321,-2.19244 0.43848,-1.24239 0.58465,-2.41169 0.58465,-2.41169 0,0 -0.0731,-1.02314 0.58465,-2.33861 0.65773,-1.31547 0.65773,-1.46163 0.65773,-1.46163 l 2.63094,-1.09622 c 0,0 -0.43849,0.14616 0.80389,-0.51157 1.24239,-0.65774 1.53472,-0.73082 1.53472,-0.73082 0,0 0.95006,-0.36541 1.75395,0.29233 0.8039,0.65773 0.51157,0.65773 0.8039,0.73081 0.29232,0.0731 0.3654,0 2.70401,0.29233 2.33861,0.29232 3.21559,0 3.21559,0 0,0 0.73082,-0.51157 1.75396,-0.0731 1.02314,0.43848 2.704007,1.9732 2.704007,1.9732 0,0 -0.21924,0.43849 1.46163,1.9732 1.68088,1.53471 3.28867,2.77709 3.28867,2.77709 0,0 0.87698,0.58466 1.9732,1.82704 1.09622,1.24239 2.41169,2.63094 2.41169,2.63094 0,0 0.21924,2.33861 0.87698,4.16564 0.65773,1.82704 1.75396,4.60414 1.75396,4.60414 0,0 0.657727,2.7771 2.630927,4.7503 1.9732,1.9732 3.581,3.80024 3.581,3.80024 0,0 1.24238,1.9732 1.60779,3.1425 0.36541,1.1693 1.1693,3.50791 1.1693,3.50791 0,0 0,0.36541 1.68088,1.46163 1.68088,1.09623 1.24239,2.19245 1.24239,2.19245 0,0 -0.0731,1.02314 0.51157,2.63093 0.58465,1.6078 1.1693,2.85018 1.1693,2.85018 0,0 0.14616,1.02314 0.0731,1.9732 l -0.0731,0.95006 c 0,0 1.90012,1.9732 2.48477,3.36175 0.58465,1.38855 0.8039,1.82704 0.8039,1.82704 0,0 0.29233,0.21925 0.43849,1.53471 0.14616,1.31547 0.0731,1.75396 0.0731,1.75396 0,0 3.36175,1.60779 5.04262,2.19244 1.68088,0.58465 2.70402,1.02314 2.70402,1.02314 0,0 1.24238,-0.0731 2.3386,1.24239 1.09622,1.31547 1.90012,1.53471 1.90012,1.53471 0,0 0.29232,-0.0731 1.68087,0.36541 1.38855,0.43849 3.36175,0.29232 3.36175,0.29232 0,0 0.95006,-0.3654 1.75396,-0.51156 0.80389,-0.14617 0.95006,-0.14617 0.95006,-0.14617 0,0 0.65773,0.51157 0.80389,1.09622 0.14617,0.58466 0.29233,0.8039 0.29233,0.8039 0,0 1.1693,-0.0731 2.48477,0.21924 1.31547,0.29233 2.33861,-0.43848 2.33861,-0.43848 0,0 -0.29233,-2.63094 -0.58465,-3.06943 -0.29233,-0.43849 -1.02314,-1.1693 -1.24239,-1.9732 -0.21924,-0.80389 -0.36541,-0.43849 -0.29232,-3.50791 0.0731,-3.06942 0,-11.76612 0,-11.76612 0,0 0.58465,-0.51157 -0.95006,-0.8039 -1.53472,-0.29233 -1.68088,-0.29233 -1.68088,-0.29233 0,0 -1.1693,0.0731 -1.53471,-0.51157 -0.36541,-0.58465 -1.02314,-1.46163 -1.1693,-1.90012 -0.14617,-0.43849 -0.8039,-1.31546 -0.21925,-1.31546 0.58465,0 0.51157,-0.21925 0.87698,0.0731 0.36541,0.29232 0.65773,0.51157 1.09622,1.24238 0.43849,0.73082 0.8039,0.0731 0.8039,0.0731 0,0 0,-0.65774 0.29232,-0.65774 0.29233,0 1.24239,0.65774 1.38855,0.95006 0.14617,0.29233 0.65774,0.43849 0.87698,-0.21924 0.21925,-0.65774 0.36541,-2.41169 0.65773,-2.85018 0.29233,-0.43849 0.8039,-3.43483 0.87698,-4.09257 0.0731,-0.65773 0.29233,-1.31546 0.29233,-1.31546 0,0 0.8039,1.1693 1.1693,0.14616 0.36541,-1.02314 0.43849,-1.1693 -0.0731,-1.53471 -0.51157,-0.36541 -1.24239,-0.8039 -1.1693,-1.46163 0.0731,-0.65774 0.51157,-1.31547 1.09622,-1.53471 0.58465,-0.21925 1.53471,-0.51158 2.63093,-0.51158 1.09623,0 1.6078,-0.14616 1.6078,-0.14616 0,0 0.51157,0.73082 0.58465,-1.24238 0.0731,-1.9732 0.58465,-2.99635 0.58465,-2.99635 0,0 -0.0731,-1.1693 0.8039,-0.21924 0.87698,0.95006 0.43849,1.9732 0.43849,1.9732 0,0 0,0.51157 1.09622,-0.29233 1.09622,-0.80389 1.68087,-1.90011 1.68087,-1.90011 0,0 0,-0.51158 -0.3654,-0.95006 -0.36541,-0.43849 -1.68088,-1.53472 -1.75396,-1.82704 -0.0731,-0.29233 -0.58465,-1.24239 0.21925,-1.53471 0.80389,-0.29233 1.75395,0.0731 1.75395,0.0731 0,0 0.36541,1.38855 0.95006,1.1693 0.58465,-0.21924 0.95006,-0.73081 0.95006,-0.73081 0,0 0,-0.73082 1.02314,0 1.02314,0.73081 1.16931,1.46163 1.16931,1.46163 0,0 0.43849,0.51157 1.09622,0.51157 0.65773,0 2.19244,-0.36541 2.70401,-0.73082 0.51158,-0.36541 2.7771,-2.55785 4.67722,-3.58099 1.90012,-1.02314 3.581,-1.9732 3.581,-1.9732 0,0 0.87697,-0.21925 0.43848,-1.31547 -0.43848,-1.09622 -1.68087,-1.60779 -0.51156,-2.33861 1.1693,-0.73081 1.53471,-1.09622 1.53471,-1.09622 0,0 1.1693,-0.0731 2.19244,-1.53471 1.02314,-1.46163 1.16931,-1.82704 1.16931,-1.82704 0,0 -0.43849,-0.87698 -0.8039,-2.04628 -0.36541,-1.16931 -0.36541,-2.19245 -0.14616,-2.55785 0.21924,-0.36541 0.58465,-1.38855 1.24238,-1.38855 0.65773,0 1.46163,0.0731 1.46163,0.0731 0,0 0.65774,0.21924 0.36541,1.09622 -0.29233,0.87698 -0.36541,1.38855 -0.36541,1.38855 0,0 0.87698,1.82704 1.90012,0.87698 1.02314,-0.95006 1.68088,-1.24239 1.68088,-1.24239 0,0 0.95006,-0.0731 0.87697,0.73082 -0.0731,0.80389 -0.0731,1.46163 -0.0731,1.46163 0,0 0.95006,0.43848 1.6078,-0.36541 0.65773,-0.8039 0.43849,-0.8039 0.87697,-1.24239 0.43849,-0.43849 1.38855,-0.87698 2.7771,-0.95006 1.38855,-0.0731 1.82704,-1.38854 1.82704,-1.38854 0,0 0.43849,-1.6078 1.09622,-2.4117 0.65773,-0.80389 0.73082,-1.02314 0.87698,-1.31546 0.14616,-0.29233 1.68088,-2.04628 1.53471,-2.85018 l -0.14616,-0.8039 -0.0731,-0.65773 c 0,0 -1.53472,-0.51157 -1.24239,-1.31547 0.29233,-0.8039 0.29233,-1.24238 0.29233,-1.24238 0,0 0.0731,-1.46163 0.51157,-3.14251 0.43849,-1.68087 0.3654,-2.11936 0.3654,-2.11936 0,0 1.82704,-1.02314 1.75396,-1.82704 -0.0731,-0.8039 0.36541,-3.43483 0.36541,-3.43483 0,0 -0.36541,-0.58465 -0.8039,-2.41169 -0.43849,-1.82704 -0.80389,-2.04628 -0.80389,-2.04628 0,0 -0.51158,-0.43849 -0.58466,-1.38855 -0.0731,-0.95006 -0.0731,-1.16931 -0.0731,-1.16931 0,0 -1.82703,-1.09622 -1.68087,-1.9732 0.14616,-0.87697 0.21924,-1.90011 0.21924,-1.90011 0,0 0,-1.90012 -0.87698,-2.70401 -0.87697,-0.8039 -1.46163,-1.31547 -1.46163,-1.31547 0,0 -0.95006,-1.1693 -1.02314,-2.26553 -0.0731,-1.09622 -0.0731,-2.11936 -0.0731,-2.11936 v -23.16684 h -4.09256 c 0,0 -0.95006,-0.29233 -2.11937,-1.09622 -1.1693,-0.8039 -2.04628,-1.75396 -2.04628,-1.75396 0,0 -1.82704,0.36541 -3.28867,-1.02314 -1.46163,-1.38855 -2.48477,-2.33861 -2.48477,-2.33861 0,0 0.21925,-0.36541 -1.09622,0 -1.31547,0.36541 -1.6078,0.51157 -1.6078,0.51157 0,0 -0.73081,0.65774 -2.41168,0.21925 -1.68088,-0.43849 -2.04629,-0.73082 -2.04629,-0.73082 0,0 -2.19244,-1.09622 -2.85017,-0.65773 -0.65774,0.43849 -0.14617,0.0731 -0.8039,0.51157 -0.65774,0.43849 -2.63094,0.87698 -2.63094,0.87698 0,0 -0.73081,-1.24239 -2.48477,-0.73082 -1.75395,0.51157 -3.06942,0.73082 -3.06942,0.73082 0,0 -1.24239,0.95006 -2.04629,0.43849 -0.80389,-0.51157 -1.68087,-0.58466 -1.68087,-0.58466 0,0 -1.1693,0.0731 -1.68087,0.58466 -0.51158,0.51157 -2.48477,1.24238 -2.48477,1.24238 0,0 -0.95006,0.29233 -1.6078,0.0731 -0.65773,-0.21924 -1.68087,-0.58465 -1.68087,-0.58465 0,0 -0.0731,0.8039 -0.8039,-0.21924 -0.73081,-1.02314 -1.75396,-1.53471 -1.75396,-1.53471 0,0 -2.04628,0.14616 -2.99634,1.09622 -0.95006,0.95006 -1.82704,-0.0731 -1.82704,-0.0731 0,0 -0.0731,-1.09623 -0.87697,-1.90012 -0.8039,-0.8039 -1.24239,-1.46163 -1.24239,-1.46163 0,0 -1.24238,0.51157 -1.9732,0.0731 -0.73081,-0.43849 -0.87698,-1.096235 -0.87698,-1.096235 0,0 -0.51157,-0.58465 -1.02314,0 -0.51157,0.584665 -1.38855,0.657745 -1.38855,0.657745 0,0 -0.36541,0.21924 -1.46162,-0.438495 -1.09622,-0.65773 -1.53471,-0.65773 -1.53471,-0.65773 0,0 0.36541,0.87698 -1.02314,0.58465 -1.38855,-0.29233 -1.24239,-0.29233 -1.75396,-0.43849 -0.51157,-0.14616 -2.63093,-0.21924 -2.85018,-1.02314 -0.21924,-0.8039 -0.29232,-1.46163 -0.51157,-1.90012 -0.21924,-0.438489 0.51157,-2.192446 -1.53471,-1.680877 -2.04628,0.511572 -2.41169,0.657736 -2.85018,0.87698 -0.43849,0.219244 -1.68087,1.753957 -3.21558,-0.146164 -1.53472,-1.900118 -3.06943,-2.777098 -3.14251,-4.384889 -0.0731,-1.607793 0,-30.40191 0,-30.40191 H 65.572546 v 74.396985 z"
       id="path960"
       inkscape:connector-curvature="0"
       sodipodi:nodetypes="cscccccsccscsccccscccsccccccccccccccscccccccscccccccscscccccccccccccccccccccscccscccccccccscccccccccccccccscsccccccccscscsccccccccccccscccccscccscccccccccscsccccccccccscccccscccccccscsscccscccccc" />
    <g
       id="g1010">
      <path
         sodipodi:nodetypes="cscsccsc"
         inkscape:connector-curvature="0"
         id="path981"
         d="m 166.0726,91.199236 c 0,-6.760601 -5.48055,-12.241152 -12.24115,-12.241154 -6.76061,0 -12.24116,5.480551 -12.24116,12.241154 0,0 -0.055,7.271611 5.86466,13.556624 5.9196,6.28501 6.35809,14.4336 6.35809,14.4336 v 0 c 0,0 0.4753,-8.14859 6.3949,-14.4336 5.91961,-6.285013 5.86466,-13.556624 5.86466,-13.556624"
         style="opacity:1;fill:#490000;fill-opacity:1;stroke:#490000;stroke-width:1;stroke-linecap:round;stroke-linejoin:round;stroke-miterlimit:4;stroke-dasharray:none;stroke-dashoffset:0;stroke-opacity:1" />
      <circle
         r="4.403161"
         cy="91.36689"
         cx="153.85486"
         id="path994"
         style="opacity:1;fill:#fffafa;fill-opacity:1;stroke:#ffffff;stroke-width:1;stroke-linecap:round;stroke-linejoin:round;stroke-miterlimit:4;stroke-dasharray:none;stroke-dashoffset:0;stroke-opacity:1" />
    </g>
    <g
       id="g1015">
      <rect
         y="50.196728"
         x="138.07845"
         height="10.497378"
         width="80.419769"
         id="rect1004"
         style="opacity:1;fill:#490000;fill-opacity:1;stroke:#490000;stroke-width:15.32488823;stroke-linecap:round;stroke-linejoin:round;stroke-miterlimit:4;stroke-dasharray:none;stroke-dashoffset:0;stroke-opacity:1" />
      <text
         id="text1002"
         y="59.875542"
         x="137.10481"
         style="font-style:normal;font-variant:normal;font-weight:600;font-stretch:normal;font-size:15.04286385px;line-height:1.25;font-family:Lato;-inkscape-font-specification:'Lato, Semi-Bold';font-variant-ligatures:normal;font-variant-caps:normal;font-variant-numeric:normal;font-feature-settings:normal;text-align:start;letter-spacing:0px;word-spacing:0px;writing-mode:lr-tb;text-anchor:start;fill:#000000;fill-opacity:1;stroke:none;stroke-width:0.38010854"
         xml:space="preserve"><tspan
           style="font-style:normal;font-variant:normal;font-weight:600;font-stretch:normal;font-size:15.04286385px;font-family:Lato;-inkscape-font-specification:'Lato, Semi-Bold';font-variant-ligatures:normal;font-variant-caps:normal;font-variant-numeric:normal;font-feature-settings:normal;text-align:start;writing-mode:lr-tb;text-anchor:start;fill:#ffffff;fill-opacity:1;stroke-width:0.38010854"
           y="59.875542"
           x="137.10481"
           id="tspan1000"
           sodipodi:role="line">DALLAS, TX</tspan></text>
    </g>
  </g>
</svg>
