<?xml version="1.0" encoding="UTF-8" standalone="no"?>
<!-- Created with Inkscape (http://www.inkscape.org/) -->

<svg
   xmlns:dc="http://purl.org/dc/elements/1.1/"
   xmlns:cc="http://creativecommons.org/ns#"
   xmlns:rdf="http://www.w3.org/1999/02/22-rdf-syntax-ns#"
   xmlns:svg="http://www.w3.org/2000/svg"
   xmlns="http://www.w3.org/2000/svg"
   xmlns:sodipodi="http://sodipodi.sourceforge.net/DTD/sodipodi-0.dtd"
   xmlns:inkscape="http://www.inkscape.org/namespaces/inkscape"
   width="131.72307mm"
   height="189.76393mm"
   viewBox="0 0 131.72307 189.76393"
   version="1.1"
   id="svg8"
   inkscape:version="0.92.5 (2060ec1f9f, 2020-04-08)"
   sodipodi:docname="Momin.svg">
  <defs
     id="defs2" />
  <sodipodi:namedview
     id="base"
     pagecolor="#ffffff"
     bordercolor="#666666"
     borderopacity="1.0"
     inkscape:pageopacity="0.0"
     inkscape:pageshadow="2"
     inkscape:zoom="0.70710678"
     inkscape:cx="186.32873"
     inkscape:cy="473.57903"
     inkscape:document-units="mm"
     inkscape:current-layer="layer1"
     showgrid="false"
     inkscape:window-width="2488"
     inkscape:window-height="1376"
     inkscape:window-x="72"
     inkscape:window-y="27"
     inkscape:window-maximized="1"
     fit-margin-top="0"
     fit-margin-left="0"
     fit-margin-right="0"
     fit-margin-bottom="0" />
  <metadata
     id="metadata5">
    <rdf:RDF>
      <cc:Work
         rdf:about="">
        <dc:format>image/svg+xml</dc:format>
        <dc:type
           rdf:resource="http://purl.org/dc/dcmitype/StillImage" />
        <dc:title></dc:title>
      </cc:Work>
    </rdf:RDF>
  </metadata>
  <g
     inkscape:label="Layer 1"
     inkscape:groupmode="layer"
     id="layer1"
     transform="translate(-36.950529,-45.997976)">
    <ellipse
       style="opacity:1;fill:#ffe8e8;fill-opacity:1;stroke:#4a0000;stroke-width:1.39353573;stroke-linecap:round;stroke-linejoin:round;stroke-miterlimit:4;stroke-dasharray:none;stroke-dashoffset:0;stroke-opacity:1"
       id="ellipse1381"
       cx="158.34058"
       cy="204.47057"
       rx="7.5497007"
       ry="16.723465" />
    <path
       style="fill:#ffa99f;fill-opacity:1;stroke:#ffa99f;stroke-width:0.10724903;stroke-linecap:round;stroke-linejoin:round;stroke-miterlimit:4;stroke-dasharray:none;stroke-opacity:1"
       d="m 153.61379,214.27622 c 0.91988,2.5576 3.1621,5.38069 5.77434,4.01717 1.05162,-0.59218 2.23994,-2.11472 3.05152,-4.47904 0.81158,-2.36433 0.88739,-3.17789 1.30883,-6.44727 0.42146,-3.26937 -0.3294,-9.03353 -0.3294,-9.03353 0.092,4.24564 -0.75653,9.14125 -1.74518,12.46395 -0.76488,2.56782 -2.09191,4.03218 -2.88785,4.18394 -0.91445,0.17436 -2.17169,-0.15641 -3.11297,-1.18116 -0.94127,-1.02475 -1.28525,-1.68909 -2.14934,-3.3904 -0.8641,-1.70132 -1.53594,-3.46659 -1.88572,-4.91351 0.3712,3.13837 1.21775,6.75055 1.97577,8.77985 z"
       id="path1485"
       inkscape:connector-curvature="0"
       sodipodi:nodetypes="cczzccszzcc" />
    <ellipse
       ry="16.723465"
       rx="7.5497007"
       cy="205.96295"
       cx="148.85956"
       id="ellipse1383"
       style="opacity:1;fill:#ffe8e8;fill-opacity:1;stroke:#4a0000;stroke-width:1.39353573;stroke-linecap:round;stroke-linejoin:round;stroke-miterlimit:4;stroke-dasharray:none;stroke-dashoffset:0;stroke-opacity:1" />
    <path
       sodipodi:nodetypes="cczzccszzcc"
       inkscape:connector-curvature="0"
       id="path1483"
       d="m 144.53999,215.58584 c 0.91988,2.5576 3.1621,5.38069 5.77434,4.01717 1.05162,-0.59218 2.23994,-2.11472 3.05152,-4.47904 0.81158,-2.36433 0.88739,-3.17789 1.30883,-6.44727 0.42146,-3.26937 -0.3294,-9.03353 -0.3294,-9.03353 0.092,4.24564 -0.75653,9.14125 -1.74518,12.46395 -0.76488,2.56782 -2.09191,4.03218 -2.88785,4.18394 -0.91445,0.17436 -2.17169,-0.15641 -3.11297,-1.18116 -0.94127,-1.02475 -1.28525,-1.68909 -2.14934,-3.3904 -0.8641,-1.70132 -1.53594,-3.46659 -1.88572,-4.91351 0.3712,3.13837 1.21775,6.75055 1.97577,8.77985 z"
       style="fill:#ffa99f;fill-opacity:1;stroke:#ffa99f;stroke-width:0.10724903;stroke-linecap:round;stroke-linejoin:round;stroke-miterlimit:4;stroke-dasharray:none;stroke-opacity:1" />
    <path
       style="fill:#ff8787;fill-opacity:1;stroke:#4a0000;stroke-width:1.5;stroke-linecap:round;stroke-linejoin:round;stroke-miterlimit:4;stroke-dasharray:none;stroke-opacity:1"
       d="m 73.79985,168.48809 c 0,0 0.377976,4.15774 0,7.84301 -0.377976,3.68527 -0.566965,5.38616 -0.566965,5.38616 0,0 5.197173,6.70908 9.543899,14.93006 4.346726,8.22098 13.418156,23.34003 13.418156,23.34003 0,0 12.94569,-0.94494 26.08036,-2.45685 13.13467,-1.51191 21.92261,-3.87425 21.92261,-3.87425 0,0 2.36236,-8.50447 3.49629,-17.76488 1.13392,-9.26042 1.48423,-12.89508 1.48423,-12.89508 0,0 -9.46447,2.28685 -26.44572,4.50607 -16.83061,2.19953 -33.152356,1.20746 -33.152356,1.20746 z"
       id="path1369"
       inkscape:connector-curvature="0"
       sodipodi:nodetypes="cscsczcccscc" />
    <path
       style="fill:#be2311;fill-opacity:1;stroke:#be2311;stroke-width:0.26499999;stroke-linecap:round;stroke-linejoin:round;stroke-miterlimit:4;stroke-dasharray:none;stroke-opacity:1"
       d="m 75.604687,180.58333 20.042187,36.04948 c 0,0 0.529166,-9.78958 1.124479,-15.54427 0.595312,-5.75469 0.859896,-12.7 0.859896,-12.7 0,0 -2.447396,13.16302 -3.638021,16.86719 -1.190625,3.70416 -0.926042,2.51354 -0.926042,2.51354 0,0 -6.614583,-9.85573 -10.186458,-15.875 -3.571875,-6.01927 -7.276041,-11.31094 -7.276041,-11.31094 z"
       id="path1509"
       inkscape:connector-curvature="0" />
    <path
       style="fill:#ff8787;fill-opacity:1;stroke:#4a0000;stroke-width:1.55999994;stroke-linecap:round;stroke-linejoin:round;stroke-miterlimit:4;stroke-dasharray:none;stroke-opacity:1"
       d="m 91.659225,92.325893 c 0,0 1.322918,28.915177 0.755953,49.892857 -0.566965,20.97768 -2.834822,46.49107 -2.834822,46.49107 0,0 21.799214,1.0542 41.955354,-2.45685 20.03274,-3.48956 27.59226,-5.85863 27.59226,-5.85863 0,0 5.63328,-15.68601 7.81336,-40.30982 2.18009,-24.6238 -0.0648,-44.923807 -0.0648,-44.923807 0,0 -19.27679,-2.456845 -34.77381,-2.645834 -15.49703,-0.188986 -40.443455,-0.188986 -40.443455,-0.188986 z"
       id="path1345"
       inkscape:connector-curvature="0"
       sodipodi:nodetypes="cscsczcscc" />
    <path
       style="fill:#ff8787;fill-opacity:1;stroke:#4a0000;stroke-width:1.5;stroke-linecap:round;stroke-linejoin:round;stroke-miterlimit:4;stroke-dasharray:none;stroke-opacity:1"
       d="m 91.659225,92.325893 c 0,0 -4.93976,7.523689 -15.229638,10.062747 -10.289876,2.53906 -16.026673,1.50912 -16.026673,1.50912 0,0 0.290197,13.09065 -0.511612,25.78365 -0.801809,12.693 -3.497432,20.85489 -3.497432,20.85489 0,0 9.001281,8.07802 15.615121,15.81754 7.416847,8.67919 17.571363,22.35598 17.571363,22.35598 0,0 2.666771,-33.9989 2.800407,-47.62965 0.133636,-13.63074 -0.721536,-48.754277 -0.721536,-48.754277 z"
       id="path1359"
       inkscape:connector-curvature="0"
       sodipodi:nodetypes="csczcscsc" />
    <path
       style="fill:#ffe8e8;fill-opacity:1;stroke:#4a0000;stroke-width:1.5;stroke-linecap:round;stroke-linejoin:round;stroke-miterlimit:4;stroke-dasharray:none;stroke-opacity:1"
       d="m 113.86533,92.420386 c 0,0 3.1183,-3.118305 2.64583,-7.087055 -0.47247,-3.96875 -0.94494,-6.520087 -0.94494,-6.520087 l 10.67783,-0.755955 c 0,0 3.2128,3.212799 4.34672,7.559524 1.13393,4.346726 1.03944,6.992559 1.03944,6.992559 z"
       id="path1367"
       inkscape:connector-curvature="0" />
    <path
       sodipodi:nodetypes="csc"
       inkscape:connector-curvature="0"
       id="path1399"
       d="m 103.99553,65.825185 c 0,0 3.9283,-10.687968 13.51292,-12.075295 9.58461,-1.387333 16.45551,7.32876 16.45551,7.32876"
       style="fill:none;fill-opacity:1;stroke:#4a0000;stroke-width:1.5;stroke-linecap:round;stroke-linejoin:round;stroke-miterlimit:4;stroke-dasharray:none;stroke-opacity:1" />
    <path
       sodipodi:nodetypes="csc"
       inkscape:connector-curvature="0"
       id="path1401"
       d="m 96.18074,64.701981 c 0,0 5.76886,-15.695496 19.84404,-17.732807 14.07519,-2.037327 24.16524,10.762422 24.16524,10.762422"
       style="fill:none;fill-opacity:1;stroke:#4a0000;stroke-width:1.5;stroke-linecap:round;stroke-linejoin:round;stroke-miterlimit:4;stroke-dasharray:none;stroke-opacity:1" />
    <path
       sodipodi:nodetypes="cczsczcc"
       inkscape:connector-curvature="0"
       id="path1421"
       d="m 100.82743,216.35141 c 0,0 16.77116,-0.93544 24.58879,-2.07133 7.81764,-1.1359 16.49436,-2.50341 16.97162,-3.00678 0.47726,-0.50338 1.3243,-3.62379 2.64502,-10.42548 1.33635,-6.88219 1.51387,-13.94075 1.51387,-13.94075 0,0 -1.75303,7.85557 -5.29535,13.86615 -3.54233,6.01058 -15.42325,11.06216 -21.1003,12.18811 -9.81405,1.81692 -19.32365,3.39008 -19.32365,3.39008 z"
       style="fill:#be2311;fill-opacity:1;stroke:#be2311;stroke-width:0.26499999;stroke-linecap:round;stroke-linejoin:round;stroke-miterlimit:4;stroke-dasharray:none;stroke-opacity:1" />
    <path
       style="fill:#be2311;fill-opacity:1;stroke:#be2311;stroke-width:0.40666002;stroke-linecap:round;stroke-linejoin:round;stroke-miterlimit:4;stroke-dasharray:none;stroke-opacity:1"
       d="m 94.08287,186.70923 c 0,0 23.1974,-0.96777 35.19407,-2.71088 11.99668,-1.74311 27.6603,-5.18436 27.6603,-5.18436 0,0 2.55018,-5.35485 4.57164,-15.79351 2.03225,-10.49436 3.49844,-30.51719 3.49844,-30.51719 0,0 -6.34218,20.89479 -8.96562,28.72394 -2.62347,7.82915 -2.69319,12.76757 -2.69319,12.76757 0,0 -14.07954,5.51252 -29.21132,8.31393 -15.06031,2.78819 -30.05432,4.4005 -30.05432,4.4005 z"
       id="path1423"
       inkscape:connector-curvature="0"
       sodipodi:nodetypes="cccsczcsc" />
    <path
       sodipodi:nodetypes="cscsczcscc"
       inkscape:connector-curvature="0"
       id="path1347"
       d="m 100.92774,105.23051 c 0,0 1.04862,23.09834 0.5992,39.85596 -0.4494,16.75762 -2.247022,37.13851 -2.247022,37.13851 0,0 16.092532,0.34062 32.186842,-1.69535 16.74759,-2.11861 22.94009,-4.94732 22.94009,-4.94732 0,0 4.46522,-12.53047 6.19326,-32.20073 1.72806,-19.67026 -0.0513,-35.88653 -0.0513,-35.88653 0,0 -15.27975,-1.96261 -27.56346,-2.11358 -12.28372,-0.15096 -32.05752,-0.15096 -32.05752,-0.15096 z"
       style="fill:#ffe8e8;fill-opacity:1;stroke:#4a0000;stroke-width:1.5;stroke-linecap:round;stroke-linejoin:round;stroke-miterlimit:4;stroke-dasharray:none;stroke-opacity:1" />
    <g
       id="g1413"
       style="fill:#ff8787;fill-opacity:1;stroke-linecap:round;stroke-linejoin:round">
      <path
         sodipodi:nodetypes="cscsccscscc"
         inkscape:connector-curvature="0"
         id="path1349"
         d="m 65.200892,108.0119 c 0,0 -0.850445,2.55134 -9.35491,6.04762 -8.504465,3.49628 -16.063989,2.83482 -16.063989,2.83482 0,0 -0.283483,21.07218 -0.850445,36.00224 -0.566965,14.93005 -1.039434,22.1116 -1.039434,22.1116 l 6.047617,2.17335 c 0,0 1.583471,-22.81219 1.866953,-32.63957 0.283483,-9.82738 1.176426,-25.85697 1.176426,-25.85697 0,0 12.438256,-2.0605 17.515791,-4.90894 4.991974,-2.80044 6.655116,-5.61905 6.655116,-5.61905 z"
         style="fill:#ff8787;fill-opacity:1;stroke:#4a0000;stroke-width:1.5;stroke-linecap:round;stroke-linejoin:round;stroke-miterlimit:4;stroke-dasharray:none;stroke-opacity:1" />
      <path
         sodipodi:nodetypes="cc"
         inkscape:connector-curvature="0"
         id="path1355"
         d="m 46.98311,118.68499 -7.201117,-1.79065"
         style="fill:#ff8787;fill-opacity:1;stroke:#4a0000;stroke-width:1.5;stroke-linecap:round;stroke-linejoin:round;stroke-miterlimit:4;stroke-dasharray:none;stroke-opacity:1" />
    </g>
    <path
       style="fill:#be2311;fill-opacity:1;stroke:#be2311;stroke-width:0.26458332px;stroke-linecap:butt;stroke-linejoin:miter;stroke-opacity:1"
       d="m 62.904687,154.25729 c 0,0 7.938717,8.30363 12.083856,13.04408 C 79.133682,172.04182 87.77552,182.7 87.77552,182.7 c 0,0 1.785937,-23.01875 2.050521,-34.06511 0.264583,-11.04635 -0.198438,-50.072393 -0.198438,-50.072393 0,0 -2.513542,56.422393 -3.505729,64.690623 -0.992188,8.26823 -1.389063,10.25261 -1.389063,10.25261 0,0 -8.353748,-7.02281 -12.143435,-10.46709 -3.789686,-3.44429 -9.684689,-8.78135 -9.684689,-8.78135 z"
       id="path1513"
       inkscape:connector-curvature="0"
       sodipodi:nodetypes="czcscsczc" />
    <path
       style="fill:#ff8787;fill-opacity:1;stroke:#4a0000;stroke-width:1.5;stroke-linecap:round;stroke-linejoin:round;stroke-miterlimit:4;stroke-dasharray:none;stroke-opacity:1"
       d="m 46.98311,118.68499 c 0,0 -1.079569,23.3655 -1.346838,30.58178 -0.267271,7.21627 -1.696543,27.91476 -1.696543,27.91476 0,0 15.861826,-13.4154 19.469964,-16.28855 3.608138,-2.87315 4.276315,-4.47676 4.276315,-4.47676 0,0 1.603618,-13.16301 2.739511,-23.45289 1.135896,-10.28988 0.728498,-24.80633 0.728498,-24.80633 0,0 -1.797574,3.82567 -6.942514,6.23109 -5.144939,2.40543 -17.228393,4.2969 -17.228393,4.2969 z"
       id="path1357"
       inkscape:connector-curvature="0"
       sodipodi:nodetypes="csczcsccc" />
    <path
       style="fill:none;stroke:#4a0000;stroke-width:1.5;stroke-linecap:round;stroke-linejoin:round;stroke-miterlimit:4;stroke-dasharray:none;stroke-opacity:1"
       d="m 71.154017,108.157 c 0,0 4.363489,-0.16941 8.773816,-1.513 4.410327,-1.3436 7.241986,-3.45633 7.241986,-3.45633 0,0 0.561402,23.16073 0.360951,33.91833 -0.200454,10.7576 -2.071339,39.48907 -2.071339,39.48907 0,0 -7.884451,-9.42124 -10.623965,-12.76211 -2.739512,-3.34087 -8.218538,-9.42126 -10.824416,-11.49259 -2.605876,-2.07134 -4.009041,-2.80633 -3.80859,-3.20724 0.200454,-0.4009 10.951557,-40.97613 10.951557,-40.97613 z"
       id="path1361"
       inkscape:connector-curvature="0"
       sodipodi:nodetypes="czcscsccc" />
    <path
       style="fill:#be2311;fill-opacity:1;stroke:#be2311;stroke-width:0.26458332px;stroke-linecap:round;stroke-linejoin:round;stroke-opacity:1"
       d="m 49.859131,120.48184 c 0,0 -0.748356,17.86697 -1.309622,26.56659 -0.561266,8.69962 -1.777341,24.78925 -1.777341,24.78925 0,0 9.635066,-7.95127 12.534939,-10.57051 2.899876,-2.61924 7.202914,-6.92228 7.202914,-6.92228 0,0 1.403165,-12.53494 1.590254,-20.29912 0.18709,-7.76418 0.18709,-17.67988 0.18709,-17.67988 z"
       id="path1497"
       inkscape:connector-curvature="0"
       sodipodi:nodetypes="cscscscc" />
    <path
       style="fill:#c3c3c3;fill-opacity:1;stroke:#4a0000;stroke-width:1.5;stroke-linecap:round;stroke-linejoin:round;stroke-miterlimit:4;stroke-dasharray:none;stroke-opacity:1"
       d="m 87.169817,103.18767 c 0,0 -1.910839,2.58098 -4.717169,-0.35898 -2.806329,-2.939969 -4.142676,-5.211758 -4.142676,-5.211758 0,0 -2.271792,-2.939965 -4.075861,-3.808592 -1.80407,-0.868625 -1.937706,-2.80633 -1.937706,-2.80633 0,0 -0.668173,-0.868627 0.935445,-2.939965 1.603616,-2.071338 1.737252,-4.075859 1.737252,-4.075859 0,0 0.668173,-0.801809 -0.267269,-2.271791 -0.935445,-1.469983 -2.672696,-2.672697 -2.672696,-2.672697 0,0 -1.135896,-0.935442 0.334086,-2.138156 1.469983,-1.202711 3.741775,-6.681737 3.741775,-6.681737 0,0 0.334086,-0.868627 -2.138156,-3.274052 -2.472243,-2.405425 -3.274052,-4.610399 -3.274052,-4.610399 0,0 -1.603619,-2.33861 -2.873148,-3.274052 -1.269531,-0.935442 -1.269531,-2.739512 -1.269531,-2.739512 0,0 0.53454,-4.34313 -0.46772,-5.612662 -1.00226,-1.269529 -1.403165,-2.071338 -2.672697,-0.534537 -1.269529,1.5368 -1.737251,1.737251 -1.737251,1.737251 0,0 -1.469983,0.601356 -1.135896,-1.737251 0.334087,-2.33861 -2.405425,-2.939966 -2.405425,-2.939966 0,0 -1.269532,-0.400904 -3.80859,0.668174 -2.539061,1.069078 -4.610401,4.142679 -4.610401,4.142679 0,0 -1.403165,3.474503 -1.670434,0.534538 -0.267269,-2.939966 -4.810853,3.34087 -4.810853,3.34087 0,0 -2.672693,2.071338 -0.534537,6.681737 2.138156,4.610399 -1.80407,5.612661 -1.80407,5.612661 0,0 -3.942225,1.870885 -1.937705,5.61266 2.004523,3.741771 3.541321,6.815372 3.541321,6.815372 0,0 1.536801,2.739512 -3.00678,5.813113 -4.543581,3.073599 1.00226,6.214015 1.00226,6.214015 0,0 3.006783,0.200453 3.207234,2.472243 0.200454,2.271792 1.603618,5.813113 1.603618,5.813113 0,0 1.403165,3.34087 3.875408,4.14268 2.472243,0.80181 4.209494,2.67269 4.209494,2.67269 0,0 1.135896,2.07134 -0.935442,1.60362 -2.071341,-0.46772 -3.140419,1.80407 -3.140419,1.80407 0,0 -2.138156,4.47676 3.541324,5.54584 5.679476,1.06908 4.075858,5.61266 4.075858,5.61266 0,0 -3.274052,5.81311 1.269532,7.2831 4.543581,1.46998 3.541321,7.01582 3.541321,7.01582 0,0 -0.06682,3.14042 -1.469983,2.80633 -1.403165,-0.33408 -2.672696,1.87089 -2.672696,1.87089 0,0 -1.603616,4.40994 1.804069,3.87541 3.407688,-0.53454 5.946748,3.14041 5.946748,3.14041 0,0 0.668174,2.60588 -1.00226,2.20498 -1.670436,-0.40091 3.340867,5.87992 3.340867,5.87992 0,0 5.078122,4.14268 7.617183,7.81764 2.53906,3.67496 10.15624,12.36121 10.15624,12.36121 0,0 2.271792,-33.20823 2.138158,-40.35769 -0.133635,-7.14946 -0.42777,-33.04971 -0.42777,-33.04971 z"
       id="path1363"
       inkscape:connector-curvature="0" />
    <path
       style="fill:none;stroke:#4a0000;stroke-width:1.5;stroke-linecap:round;stroke-linejoin:round;stroke-miterlimit:4;stroke-dasharray:none;stroke-opacity:1"
       d="m 96.19494,219.98735 c 0,0 2.173361,-9.35491 2.929315,-18.99331 0.755952,-9.63839 0.850445,-11.81175 0.850445,-11.81175"
       id="path1371"
       inkscape:connector-curvature="0" />
    <ellipse
       ry="18.001116"
       rx="8.1264877"
       cy="215.40439"
       cx="96.289429"
       id="ellipse1375"
       style="opacity:1;fill:#ffe8e8;fill-opacity:1;stroke:#4a0000;stroke-width:1.5;stroke-linecap:round;stroke-linejoin:round;stroke-miterlimit:4;stroke-dasharray:none;stroke-dashoffset:0;stroke-opacity:1" />
    <path
       style="fill:#ffa99f;fill-opacity:1;stroke:#ffa99f;stroke-width:0.117;stroke-linecap:round;stroke-linejoin:round;stroke-miterlimit:4;stroke-dasharray:none;stroke-opacity:1"
       d="m 91.619922,226.28227 c 1.003513,2.79013 3.449598,5.8699 6.299343,4.3824 1.147223,-0.64602 2.443585,-2.30698 3.328955,-4.88627 0.88537,-2.57929 0.96807,-3.46682 1.42783,-7.03344 0.45977,-3.56662 -0.35935,-9.85485 -0.35935,-9.85485 0.10038,4.63165 -0.82532,9.97236 -1.90385,13.59716 -0.834421,2.80128 -2.282111,4.39878 -3.150405,4.56434 -0.99759,0.19021 -2.369146,-0.17064 -3.395999,-1.28855 -1.026852,-1.11792 -1.402108,-1.84266 -2.344768,-3.69866 -0.94266,-1.856 -1.675577,-3.78176 -2.057162,-5.36024 0.404944,3.42371 1.328466,7.36431 2.155406,9.57811 z"
       id="path1481"
       inkscape:connector-curvature="0"
       sodipodi:nodetypes="cczzccszzcc" />
    <ellipse
       style="opacity:1;fill:#ffe8e8;fill-opacity:1;stroke:#4a0000;stroke-width:1.5;stroke-linecap:round;stroke-linejoin:round;stroke-miterlimit:4;stroke-dasharray:none;stroke-dashoffset:0;stroke-opacity:1"
       id="path1373"
       cx="86.084076"
       cy="217.01079"
       rx="8.1264877"
       ry="18.001116" />
    <ellipse
       style="opacity:1;fill:#ffe8e8;fill-opacity:1;stroke:#4a0000;stroke-width:1.22116506;stroke-linecap:round;stroke-linejoin:round;stroke-miterlimit:4;stroke-dasharray:none;stroke-dashoffset:0;stroke-opacity:1"
       id="ellipse1385"
       cx="73.276535"
       cy="183.94237"
       rx="6.6158552"
       ry="14.654889" />
    <path
       sodipodi:nodetypes="cczzccszzcc"
       inkscape:connector-curvature="0"
       id="path1489"
       d="m 69.345293,192.4789 c 0.794426,2.2088 2.73086,4.64689 4.986848,3.46931 0.908194,-0.51142 1.934452,-1.82631 2.635354,-3.86819 0.700902,-2.04189 0.766371,-2.74449 1.130339,-5.568 0.363968,-2.8235 -0.284485,-7.80155 -0.284485,-7.80155 0.07947,3.66663 -0.653359,7.89458 -1.507174,10.76413 -0.660564,2.21763 -1.806622,3.48228 -2.494003,3.61334 -0.789737,0.15059 -1.875524,-0.13508 -2.688428,-1.02007 -0.812903,-0.88499 -1.109973,-1.45873 -1.856226,-2.92803 -0.746252,-1.46929 -1.326463,-2.99381 -1.628543,-4.2434 0.320572,2.71036 1.051674,5.82992 1.706318,7.58246 z"
       style="fill:#ffa99f;fill-opacity:1;stroke:#ffa99f;stroke-width:0.09262256;stroke-linecap:round;stroke-linejoin:round;stroke-miterlimit:4;stroke-dasharray:none;stroke-opacity:1" />
    <ellipse
       ry="14.654889"
       rx="6.6158552"
       cy="185.25015"
       cx="64.968254"
       id="ellipse1387"
       style="opacity:1;fill:#ffe8e8;fill-opacity:1;stroke:#4a0000;stroke-width:1.22116506;stroke-linecap:round;stroke-linejoin:round;stroke-miterlimit:4;stroke-dasharray:none;stroke-dashoffset:0;stroke-opacity:1" />
    <ellipse
       style="opacity:1;fill:#ff8787;fill-opacity:1;stroke:#4a0000;stroke-width:1.5;stroke-linecap:round;stroke-linejoin:round;stroke-miterlimit:4;stroke-dasharray:none;stroke-dashoffset:0;stroke-opacity:1"
       id="path1389"
       cx="129.90169"
       cy="131.45647"
       rx="5.0447121"
       ry="12.327806"
       transform="rotate(3)" />
    <path
       sodipodi:nodetypes="cczzccszzcc"
       inkscape:connector-curvature="0"
       id="path1503"
       d="m 119.90363,145.15405 c 0.46137,2.00785 1.72425,4.26361 3.38412,3.29305 0.66997,-0.42419 1.4616,-1.56357 2.05598,-3.36618 0.59435,-1.80263 0.6739,-2.42947 1.06531,-4.94468 0.39141,-2.5152 0.16384,-6.9978 0.16384,-6.9978 -0.11558,3.28685 -0.8353,7.04617 -1.57723,9.58437 -0.57392,1.96153 -1.44842,3.05143 -1.94349,3.14319 -0.56878,0.10545 -1.32764,-0.19092 -1.86429,-1.01379 -0.53665,-0.82291 -0.72101,-1.34784 -1.18282,-2.69159 -0.46181,-1.34374 -0.80294,-2.73077 -0.95915,-3.86118 0.1008,2.43941 0.47437,5.26058 0.85773,6.85461 z"
       style="fill:#be2311;fill-opacity:1;stroke:#be2311;stroke-width:0.07402662;stroke-linecap:round;stroke-linejoin:round;stroke-miterlimit:4;stroke-dasharray:none;stroke-opacity:1" />
    <ellipse
       transform="rotate(3)"
       ry="11.833294"
       rx="4.8423505"
       cy="130.4438"
       cx="148.14824"
       id="ellipse1391"
       style="opacity:1;fill:#ff8787;fill-opacity:1;stroke:#4a0000;stroke-width:1.43982971;stroke-linecap:round;stroke-linejoin:round;stroke-miterlimit:4;stroke-dasharray:none;stroke-dashoffset:0;stroke-opacity:1" />
    <ellipse
       style="opacity:1;fill:#4a0000;fill-opacity:1;stroke:#4a0000;stroke-width:1.5;stroke-linecap:round;stroke-linejoin:round;stroke-miterlimit:4;stroke-dasharray:none;stroke-dashoffset:0;stroke-opacity:1"
       id="path1393"
       cx="147.1752"
       cy="152.8275"
       rx="3.8419993"
       ry="7.6839986"
       transform="rotate(6)" />
    <path
       style="fill:none;stroke:#4a0000;stroke-width:1.5;stroke-linecap:round;stroke-linejoin:round;stroke-miterlimit:4;stroke-dasharray:none;stroke-opacity:1"
       d="m 120.76339,118.17001 c 0,0 2.31511,-2.12611 4.72471,-1.88988 2.40959,0.23624 3.77976,2.36235 3.77976,2.36235"
       id="path1395"
       inkscape:connector-curvature="0" />
    <path
       inkscape:connector-curvature="0"
       id="path1397"
       d="m 138.84044,118.77658 c 0,0 2.30892,-1.90762 4.58995,-1.56267 2.28102,0.34495 3.47877,2.43634 3.47877,2.43634"
       style="fill:none;stroke:#4a0000;stroke-width:1.5;stroke-linecap:round;stroke-linejoin:round;stroke-miterlimit:4;stroke-dasharray:none;stroke-opacity:1" />
    <ellipse
       transform="rotate(3)"
       ry="7.6321979"
       rx="3.1232028"
       cy="131.5112"
       cx="130.04649"
       id="ellipse1405"
       style="opacity:1;fill:#4a0000;fill-opacity:1;stroke:#4a0000;stroke-width:1.5;stroke-linecap:round;stroke-linejoin:round;stroke-miterlimit:4;stroke-dasharray:none;stroke-dashoffset:0;stroke-opacity:1" />
    <path
       style="fill:#be2311;fill-opacity:1;stroke:#be2311;stroke-width:0.07019474;stroke-linecap:round;stroke-linejoin:round;stroke-miterlimit:4;stroke-dasharray:none;stroke-opacity:1"
       d="m 138.24586,144.79476 c 0.43748,1.90391 1.63499,4.04291 3.20894,3.12259 0.63529,-0.40224 1.38594,-1.48264 1.94956,-3.19194 0.56358,-1.70932 0.63901,-2.30371 1.01016,-4.68872 0.37115,-2.38501 0.15536,-6.63557 0.15536,-6.63557 -0.1096,3.11671 -0.79206,6.68143 -1.49559,9.08825 -0.54421,1.85999 -1.37344,2.89347 -1.84288,2.98048 -0.53934,0.1 -1.25892,-0.18103 -1.76779,-0.96131 -0.50887,-0.78031 -0.68369,-1.27807 -1.12159,-2.55226 -0.43791,-1.27419 -0.76138,-2.58942 -0.90951,-3.66131 0.0956,2.31313 0.44982,4.98827 0.81334,6.49979 z"
       id="path1505"
       inkscape:connector-curvature="0"
       sodipodi:nodetypes="cczzccszzcc" />
    <ellipse
       style="opacity:1;fill:#4a0000;fill-opacity:1;stroke:#4a0000;stroke-width:1.5;stroke-linecap:round;stroke-linejoin:round;stroke-miterlimit:4;stroke-dasharray:none;stroke-dashoffset:0;stroke-opacity:1"
       id="ellipse1407"
       cx="148.26244"
       cy="130.62488"
       rx="2.8779037"
       ry="7.0327582"
       transform="rotate(3)" />
    <path
       sodipodi:nodetypes="czcsczcsc"
       inkscape:connector-curvature="0"
       id="path1425"
       d="m 102.41267,180.16535 c 0,0 16.25318,0.12114 28.12873,-1.38146 11.87554,-1.5026 21.41182,-4.85189 21.41182,-4.85189 0,0 3.43372,-10.46102 4.9571,-18.32762 1.5315,-7.90857 2.27902,-22.38455 2.27902,-22.38455 0,0 -4.81379,20.80546 -6.79082,26.70552 -1.97706,5.90006 -4.85067,9.24097 -4.85067,9.24097 0,0 -8.626,5.76065 -20.02934,7.8718 -11.34948,2.10118 -25.10584,3.12723 -25.10584,3.12723 z"
       style="fill:#ffa99f;fill-opacity:1;stroke:#ffa99f;stroke-width:0.30645984;stroke-linecap:round;stroke-linejoin:round;stroke-miterlimit:4;stroke-dasharray:none;stroke-opacity:1" />
    <path
       style="fill:#ff8787;fill-opacity:1;stroke:#4a0000;stroke-width:1.5;stroke-linecap:round;stroke-linejoin:round;stroke-miterlimit:4;stroke-dasharray:none;stroke-opacity:1"
       d="m 126.52753,167.25967 c 0,0 2.36235,-0.8032 4.11049,-0.75595 1.74814,0.0472 3.59077,0.89769 3.59077,0.89769 0,0 -0.28348,7.51228 -4.20498,7.60677 -3.92151,0.0945 -3.49628,-7.74851 -3.49628,-7.74851 z"
       id="path1409"
       inkscape:connector-curvature="0" />
    <ellipse
       style="opacity:1;fill:#ffe8e8;fill-opacity:1;stroke:#ffe8e8;stroke-width:0.68321592;stroke-linecap:round;stroke-linejoin:round;stroke-miterlimit:4;stroke-dasharray:none;stroke-dashoffset:0;stroke-opacity:1"
       id="ellipse1415"
       cx="130.69643"
       cy="132.09529"
       rx="1.4225479"
       ry="3.4762926"
       transform="rotate(3)" />
    <ellipse
       transform="rotate(3)"
       ry="3.4762926"
       rx="1.4225479"
       cy="131.15112"
       cx="148.71239"
       id="ellipse1417"
       style="opacity:1;fill:#ffe8e8;fill-opacity:1;stroke:#ffe8e8;stroke-width:0.68321592;stroke-linecap:round;stroke-linejoin:round;stroke-miterlimit:4;stroke-dasharray:none;stroke-dashoffset:0;stroke-opacity:1" />
    <path
       sodipodi:nodetypes="cczzccszzcc"
       inkscape:connector-curvature="0"
       id="path1479"
       d="m 81.499609,228.2005 c 1.003513,2.79013 3.449598,5.8699 6.299343,4.3824 1.147223,-0.64602 2.443582,-2.30698 3.328956,-4.88627 0.885373,-2.57929 0.968073,-3.46682 1.427834,-7.03344 0.459761,-3.56662 -0.359359,-9.85485 -0.359359,-9.85485 0.100382,4.63165 -0.825318,9.97236 -1.903849,13.59716 -0.834418,2.80128 -2.282108,4.39878 -3.150402,4.56434 -0.99759,0.19021 -2.369146,-0.17064 -3.395999,-1.28855 -1.026852,-1.11792 -1.402108,-1.84266 -2.344768,-3.69866 -0.94266,-1.856 -1.675577,-3.78176 -2.057162,-5.36024 0.404944,3.42371 1.328466,7.36431 2.155406,9.57811 z"
       style="fill:#ffa99f;fill-opacity:1;stroke:#ffa99f;stroke-width:0.117;stroke-linecap:round;stroke-linejoin:round;stroke-miterlimit:4;stroke-dasharray:none;stroke-opacity:1" />
    <path
       style="fill:#ffa99f;fill-opacity:1;stroke:#ffa99f;stroke-width:0.09262256;stroke-linecap:round;stroke-linejoin:round;stroke-miterlimit:4;stroke-dasharray:none;stroke-opacity:1"
       d="m 61.30048,193.97561 c 0.794426,2.2088 2.73086,4.64689 4.986848,3.46931 0.908194,-0.51142 1.934452,-1.82631 2.635354,-3.86819 0.700902,-2.04189 0.766371,-2.74449 1.130339,-5.568 0.363968,-2.8235 -0.284485,-7.80155 -0.284485,-7.80155 0.07947,3.66663 -0.653359,7.89458 -1.507174,10.76413 -0.660564,2.21763 -1.806622,3.48228 -2.494003,3.61334 -0.789737,0.15059 -1.875524,-0.13508 -2.688428,-1.02007 -0.812903,-0.88499 -1.109973,-1.45873 -1.856226,-2.92803 -0.746252,-1.46929 -1.326463,-2.99381 -1.628543,-4.2434 0.320572,2.71036 1.051674,5.82992 1.706318,7.58246 z"
       id="path1487"
       inkscape:connector-curvature="0"
       sodipodi:nodetypes="cczzccszzcc" />
    <circle
       r="9.3265619"
       cy="70.994629"
       cx="120.18308"
       id="circle1493"
       style="opacity:1;fill:#ff8787;fill-opacity:1;stroke:#4a0000;stroke-width:1.5;stroke-linecap:round;stroke-linejoin:round;stroke-miterlimit:4;stroke-dasharray:none;stroke-dashoffset:0;stroke-opacity:1" />
    <path
       sodipodi:nodetypes="cszzcszcc"
       inkscape:connector-curvature="0"
       id="path1495"
       d="m 113.30085,75.000213 c 0,0 2.58571,3.635935 6.55597,3.470508 3.175,-0.132291 4.79726,-1.109151 6.26732,-2.943489 1.47007,-1.834338 1.88516,-3.472657 1.62058,-5.721615 -0.26459,-2.248959 -2.05053,-4.497916 -2.05053,-4.497916 0,0 1.21623,4.853465 -0.0862,7.278677 -0.95911,1.785937 -1.85208,2.38125 -3.37343,2.976562 -1.52136,0.595313 -3.17626,0.899331 -4.86172,0.595313 -1.93495,-0.319904 -4.07198,-1.15804 -4.07198,-1.15804 z"
       style="fill:#be2311;fill-opacity:1;stroke:#be2311;stroke-width:0.26499999;stroke-linecap:round;stroke-linejoin:round;stroke-miterlimit:4;stroke-dasharray:none;stroke-opacity:1" />
    <path
       style="fill:#be2311;fill-opacity:1;stroke:#be2311;stroke-width:0.26499999;stroke-linecap:round;stroke-linejoin:round;stroke-miterlimit:4;stroke-dasharray:none;stroke-opacity:1"
       d="m 39.290624,172.34818 c 0.267388,0.4881 3.358076,1.21068 3.358076,1.21068 0,0 0.875258,-10.04116 1.536716,-25.85001 0.661458,-15.80885 1.105105,-27.38907 1.105105,-27.38907 -0.364558,3.15829 -1.070332,8.16214 -1.597288,17.33567 -0.80753,14.05791 -2.078716,33.09974 -2.872166,33.47006 -0.944184,0.44067 -1.69406,0.92399 -1.530443,1.22267 z"
       id="path1499"
       inkscape:connector-curvature="0"
       sodipodi:nodetypes="scscsss" />
    <path
       sodipodi:nodetypes="czccsc"
       inkscape:connector-curvature="0"
       id="path1501"
       d="m 127.62917,168.44175 c 0,0 1.22887,-0.37536 3.16904,-0.242 1.94016,0.13336 2.09757,0.39435 2.09757,0.39435 0,0 -0.26985,1.15022 -0.43951,2.11306 -0.21186,-0.42836 -0.44696,-1.27926 -1.55795,-1.70526 -1.27638,-0.48945 -3.26915,-0.56015 -3.26915,-0.56015 z"
       style="fill:#be2311;fill-opacity:1;stroke:#be2311;stroke-width:0.26499999;stroke-linecap:round;stroke-linejoin:round;stroke-miterlimit:4;stroke-dasharray:none;stroke-opacity:1" />
    <path
       style="fill:#ffa99f;fill-opacity:1;stroke:#ffa99f;stroke-width:0.26499999;stroke-linecap:round;stroke-linejoin:round;stroke-miterlimit:4;stroke-dasharray:none;stroke-opacity:1"
       d="m 124.92846,91.155691 c 0.25319,0.286048 4.96666,0.155801 5.09816,0 0.23141,-0.274174 -0.23386,-3.741775 -0.93544,-5.706205 -0.70158,-1.964431 -1.1693,-2.61924 -1.1693,-2.61924 0,0 1.02898,3.133733 0.28063,4.864303 -0.74835,1.730571 -3.48927,3.217992 -3.27405,3.461142 z"
       id="path1507"
       inkscape:connector-curvature="0"
       sodipodi:nodetypes="ssscss" />
    <path
       style="fill:#959595;fill-opacity:1;stroke:#959595;stroke-width:0.26458332px;stroke-linecap:butt;stroke-linejoin:miter;stroke-opacity:1"
       d="m 63.103124,131.43698 c 0,0 1.521354,1.25677 0.661459,5.42395 -0.859896,4.16719 -2.38125,4.49792 -2.38125,4.49792 0,0 -3.108855,-0.0661 -1.785938,1.38906 1.322917,1.45521 3.108854,1.12448 3.108854,1.12448 0,0 5.357813,0.59532 4.960938,3.70417 -0.396875,3.10885 -1.256771,4.49792 -1.256771,4.49792 l 3.571875,4.10104 c 0,0 4.828646,4.49791 6.283854,5.75468 1.455208,1.25678 3.704166,4.96094 3.704166,4.96094 0,0 0.529167,1.19063 2.182813,2.91042 1.653646,1.71979 1.5875,1.71979 1.5875,1.71979 0,0 1.455208,-17.99167 1.521354,-30.69167 0.06615,-12.7 -0.198437,-24.73854 -0.198437,-24.73854 0,0 -1.389063,8.00365 -4.630209,9.32657 -3.241145,1.32291 -8.003645,0.92604 -8.003645,0.92604 0,0 -4.365625,0.46302 -5.88698,2.51354 -1.521354,2.05052 -3.439583,2.57969 -3.439583,2.57969 z"
       id="path1515"
       inkscape:connector-curvature="0" />
    <path
       style="fill:#959595;fill-opacity:1;stroke:#959595;stroke-width:0.26458332px;stroke-linecap:butt;stroke-linejoin:miter;stroke-opacity:1"
       d="m 70.31302,88.177602 c 0,0 -2.116667,2.248958 0.264583,4.497916 2.38125,2.248959 3.439584,3.373438 3.439584,3.373438 0,0 1.25677,0.661458 2.513541,3.241146 1.256771,2.579688 3.307292,3.770308 3.307292,3.770308 0,0 2.248958,2.84427 -0.529167,2.84427 -2.778125,0 -7.739062,-1.05833 -8.135937,-0.92604 -0.396875,0.13229 -1.256771,-1.19062 -3.902604,0.13229 -2.645834,1.32292 -7.209896,2.18282 -7.209896,2.18282 0,0 -2.447396,0.46302 -2.778125,-1.38907 -0.330729,-1.85208 -1.653646,-2.24895 -1.653646,-2.24895 0,0 -2.778125,-1.5875 -1.190625,-2.4474 1.5875,-0.8599 8.929688,-2.381249 8.929688,-2.381249 0,0 2.513541,-0.06615 3.968749,-3.175 1.455209,-3.108854 0.132292,-5.093229 0.132292,-5.093229 0,0 -1.455208,-2.050521 0.330729,-2.38125 1.785938,-0.330729 2.513542,0 2.513542,0 z"
       id="path1517"
       inkscape:connector-curvature="0" />
    <path
       style="fill:#959595;fill-opacity:1;stroke:#959595;stroke-width:0.26458332px;stroke-linecap:butt;stroke-linejoin:miter;stroke-opacity:1"
       d="m 83.394774,109.30329 c 0,0 -0.18709,1.12253 -2.011204,1.82412 -1.824114,0.70158 -4.583673,0.56126 -4.583673,0.56126 0,0 -2.666013,0.42095 -2.666013,1.1693 0,0.74836 0.233862,1.3564 0.233862,1.3564 0,0 -0.280633,0.60804 1.169302,0.60804 1.449938,0 5.051396,-2.01121 5.051396,-2.01121 0,0 1.824115,-0.79512 3.133733,-0.46772 1.309622,0.32741 1.356395,-1.40316 1.356395,-1.40316 l -0.04677,-4.86431 c 0,0 -0.42095,0.18709 -1.028986,-0.0468 -0.608039,-0.23386 -0.654812,1.30962 -0.654812,1.30962 z"
       id="path1519"
       inkscape:connector-curvature="0" />
    <path
       style="fill:#959595;fill-opacity:1;stroke:#959595;stroke-width:0.26458332px;stroke-linecap:butt;stroke-linejoin:miter;stroke-opacity:1"
       d="m 42.333333,86.292445 c -1.190625,0.661459 -1.819011,1.190625 -1.686719,1.223698 0.132292,0.03307 -1.124479,1.058334 0.694531,0.760677 1.819011,-0.297656 3.307292,-1.02526 3.307292,-1.02526 0,0 0.661458,-0.628385 2.348177,-0.529167 1.686719,0.09922 3.505729,0.529167 4.960937,-0.330729 1.455209,-0.859896 1.91823,-1.289843 1.91823,-1.289843 0,0 1.455208,-0.892969 -0.429948,-1.157553 -1.885157,-0.264583 -3.340365,0.760678 -3.340365,0.760678 0,0 -0.396875,0.429947 -1.521354,0 -1.124479,-0.429948 -3.075781,-0.628386 -3.075781,-0.628386 0,0 -0.231511,-0.595312 -1.025261,0.06615 -1.04419,0.645363 -1.111357,1.274136 -2.149739,2.149735 z"
       id="path1523"
       inkscape:connector-curvature="0"
       sodipodi:nodetypes="ccsccscscsccc" />
    <path
       style="fill:#959595;fill-opacity:1;stroke:#959595;stroke-width:0.26458332px;stroke-linecap:butt;stroke-linejoin:miter;stroke-opacity:1"
       d="m 74.050259,70.285154 c 0,0 -0.132291,1.951302 -1.091406,2.877344 -0.959114,0.926041 -2.083593,2.248958 -2.215885,2.414323 -0.132292,0.165364 -2.215886,2.05052 -1.091406,3.075781 1.124479,1.02526 0.363802,2.315104 0.363802,2.315104 0,0 -0.463021,1.918229 -2.348177,2.050521 -1.885157,0.132291 -4.795573,1.885156 -4.994011,1.918229 -0.198437,0.03307 -4.266406,1.852083 -3.869531,-0.727604 0.396875,-2.579688 3.108854,-5.126302 3.935677,-5.423958 0.826823,-0.297657 3.373438,-0.198438 4.365625,-2.546615 0.992188,-2.348177 2.083594,-5.820833 2.315104,-5.953125 0.231511,-0.132292 0.694531,-4.729427 2.745052,-2.414323 2.050521,2.315104 1.885156,2.414323 1.885156,2.414323 z"
       id="path1525"
       inkscape:connector-curvature="0" />
    <path
       style="fill:#959595;fill-opacity:1;stroke:#959595;stroke-width:0.26458332px;stroke-linecap:butt;stroke-linejoin:miter;stroke-opacity:1"
       d="m 44.946093,67.473956 c -1.190625,1.620573 -2.910416,2.182813 -2.910416,2.182813 0,0 -3.274219,1.984375 -0.396875,2.811198 2.877343,0.826822 6.383072,-2.050521 6.383072,-2.050521 0,0 1.554427,-2.910417 3.373438,-2.447396 1.81901,0.463021 4.431771,0 4.431771,0 0,0 3.009635,-0.595313 0.694531,-2.61276 -2.315104,-2.017448 -5.820833,-1.389063 -6.316927,-1.12448 -0.496094,0.264584 -3.274219,-3.671093 -3.274219,-3.671093 0,0 -3.454681,-1.203594 -2.315104,1.02526 1.139578,2.228855 0.630497,5.443165 0.330729,5.886979 z"
       id="path1527"
       inkscape:connector-curvature="0"
       sodipodi:nodetypes="ccscscscczc" />
    <path
       style="fill:#959595;fill-opacity:1;stroke:#959595;stroke-width:0.26458332px;stroke-linecap:butt;stroke-linejoin:miter;stroke-opacity:1"
       d="m 58.109114,116.91797 c 0,0 2.083594,1.0914 1.322917,3.07578 -0.760678,1.98437 -1.620573,5.06015 -1.620573,5.06015 0,0 -0.694532,3.70417 1.5875,3.30729 2.282031,-0.39687 4.299479,-3.40651 4.299479,-3.40651 0,0 2.513541,-4.13411 4.034895,-3.77031 1.521355,0.3638 2.976563,-3.175 2.976563,-3.175 0,0 2.546614,-6.31692 -2.61276,-3.86953 -5.159375,2.4474 -6.68073,-0.42995 -6.68073,-0.42995 0,0 -2.678906,-1.88515 -4.365624,0.42995 -1.686719,2.31511 1.058333,2.77813 1.058333,2.77813 z"
       id="path1537"
       inkscape:connector-curvature="0" />
    <path
       style="fill:#959595;fill-opacity:1;stroke:#959595;stroke-width:0.26458332px;stroke-linecap:butt;stroke-linejoin:miter;stroke-opacity:1"
       d="m 43.755362,91.553254 c 0,0 1.730571,0.584652 2.057974,2.759556 0.327406,2.174907 0.912059,5.191713 1.028989,5.308643 0.11693,0.116929 2.174907,4.232877 4.115951,1.122527 1.941044,-3.110345 2.432153,-6.056991 2.38538,-6.24408 -0.04677,-0.18709 0.912058,-4.934463 -3.227279,-4.326425 -4.139338,0.608037 -4.887693,-0.327406 -4.887693,-0.327406 0,0 -1.496708,-0.748355 -2.034588,0.30402 -0.537879,1.052372 0.561266,1.403165 0.561266,1.403165 z"
       id="path1539"
       inkscape:connector-curvature="0" />
  </g>
</svg>
