<?xml version="1.0" encoding="UTF-8" standalone="no"?>
<!-- Created with Inkscape (http://www.inkscape.org/) -->

<svg
   xmlns:dc="http://purl.org/dc/elements/1.1/"
   xmlns:cc="http://creativecommons.org/ns#"
   xmlns:rdf="http://www.w3.org/1999/02/22-rdf-syntax-ns#"
   xmlns:svg="http://www.w3.org/2000/svg"
   xmlns="http://www.w3.org/2000/svg"
   xmlns:sodipodi="http://sodipodi.sourceforge.net/DTD/sodipodi-0.dtd"
   xmlns:inkscape="http://www.inkscape.org/namespaces/inkscape"
   width="135.32967mm"
   height="219.89374mm"
   viewBox="0 0 135.32967 219.89374"
   version="1.1"
   id="svg8"
   inkscape:version="0.92.5 (2060ec1f9f, 2020-04-08)"
   sodipodi:docname="Robin.svg">
  <defs
     id="defs2" />
  <sodipodi:namedview
     id="base"
     pagecolor="#ffffff"
     bordercolor="#666666"
     borderopacity="1.0"
     inkscape:pageopacity="0.0"
     inkscape:pageshadow="2"
     inkscape:zoom="0.35355339"
     inkscape:cx="-151.48427"
     inkscape:cy="137.14505"
     inkscape:document-units="mm"
     inkscape:current-layer="layer1"
     showgrid="false"
     inkscape:window-width="2488"
     inkscape:window-height="1376"
     inkscape:window-x="72"
     inkscape:window-y="27"
     inkscape:window-maximized="1"
     showguides="false"
     fit-margin-top="0"
     fit-margin-left="0"
     fit-margin-right="0"
     fit-margin-bottom="0" />
  <metadata
     id="metadata5">
    <rdf:RDF>
      <cc:Work
         rdf:about="">
        <dc:format>image/svg+xml</dc:format>
        <dc:type
           rdf:resource="http://purl.org/dc/dcmitype/StillImage" />
        <dc:title></dc:title>
      </cc:Work>
    </rdf:RDF>
  </metadata>
  <g
     inkscape:label="Layer 1"
     inkscape:groupmode="layer"
     id="layer1"
     transform="translate(-37.335167,-38.553131)">
    <g
       id="g987"
       transform="translate(-3.2999401,6.6212173)">
      <path
         sodipodi:nodetypes="cccccsccsccsssssssscssc"
         inkscape:connector-curvature="0"
         id="path2095"
         d="m 87.295609,168.682 c -1.026166,1.39166 -1.954128,2.90808 -2.774521,4.53079 l -1.833049,16.88998 c 0.330046,3.92998 1.151299,7.74281 2.414313,11.22719 l 8.410863,12.67759 c 3.222705,2.662 7.073015,4.22812 11.440885,4.22812 4.96552,0 9.06527,-1.97902 12.5594,-4.99788 l 8.45286,-12.7143 c 1.06478,-3.54909 1.63053,-7.46899 1.63053,-11.60307 0,-2.12363 -0.43689,-3.89299 -0.78972,-5.88969 l -5.03907,-14.35664 c -5.39101,0.49791 -11.14714,0.66445 -17.12538,0.66445 -30.467132,0 -55.165624,-4.32557 -55.165625,-34.7927 -10e-7,-20.29183 10.955947,-38.024773 27.275207,-47.606178 2.830119,-1.661626 5.821541,-3.078094 8.945096,-4.220233 5.908169,-2.160344 12.289076,-3.339214 18.945322,-3.339214 4.92065,0 9.67709,0.644366 14.19622,1.853291 3.04443,0.814423 5.98116,1.885064 8.78784,3.187525 18.8231,8.734976 31.7973,27.896569 32.18156,50.124809 l 0.0524,3.03119 c 0,0 -12.03939,17.97474 -24.51199,26.71794 -3.76436,2.63879 -10.93493,4.07595 -13.58065,4.37912 -11.41188,1.30767 -34.472491,0.008 -34.472491,0.008 z"
         style="opacity:1;fill:#8888ff;fill-opacity:1;stroke:#00034b;stroke-width:1.5;stroke-linecap:round;stroke-miterlimit:4;stroke-dasharray:none;stroke-dashoffset:0;stroke-opacity:1" />
      <path
         sodipodi:nodetypes="ssszzcscszsss"
         inkscape:connector-curvature="0"
         id="path936-7"
         d="m 54.58906,147.92934 c -0.538956,0.23995 5.395207,10.22142 14.042231,14.22691 6.438259,2.98236 15.657863,4.22051 24.569941,4.63002 14.321268,0.65808 18.652248,0.46816 26.118708,-0.0208 7.46647,-0.48896 15.93477,-1.49081 24.45931,-5.74232 8.52454,-4.25153 11.8675,-11.26378 11.8675,-11.26378 0,0 2.56294,-8.99998 1.22575,-18.71775 -1.33718,-9.71778 -2.67437,-11.70549 -2.67437,-11.70549 0,0 2.62872,6.23547 -0.31202,18.71545 -1.00985,4.28561 -3.16917,9.53756 -10.16378,15.31256 -6.99461,5.775 -15.51947,7.96699 -34.19372,8.35741 -9.41427,0.19683 -20.643669,-0.16353 -29.97907,-2.64243 C 62.795,154.63016 55.263456,147.62908 54.58906,147.92934 Z"
         style="fill:#6e3cfc;fill-opacity:1;stroke:#6e3cfc;stroke-width:0.5;stroke-linecap:round;stroke-linejoin:round;stroke-miterlimit:4;stroke-dasharray:none;stroke-opacity:1" />
      <path
         sodipodi:nodetypes="czzzzczzzzc"
         inkscape:connector-curvature="0"
         id="path957"
         d="m 85.442775,197.16493 c 0,0 7.025796,13.82106 9.645041,15.50485 2.619245,1.68379 5.378524,3.77547 10.476954,3.74177 5.09843,-0.0337 13.98489,-5.42557 17.35248,-13.14298 3.36759,-7.71741 3.05238,-10.13597 2.94665,-15.57513 -0.10573,-5.43916 -3.55468,-16.32348 -3.55468,-16.32348 0,0 3.04018,18.3347 1.35639,24.22799 -1.68379,5.89328 -2.91624,8.7294 -5.84652,11.73981 -2.93029,3.01041 -7.57343,6.45456 -12.34785,6.45456 -4.77442,0 -7.113958,-1.28754 -10.991463,-4.95786 -3.877505,-3.67033 -9.037002,-11.66953 -9.037002,-11.66953 z"
         style="fill:#6e3cfc;fill-opacity:1;stroke:#6e3cfc;stroke-width:0.5;stroke-linecap:round;stroke-linejoin:round;stroke-miterlimit:4;stroke-dasharray:none;stroke-opacity:1" />
      <path
         sodipodi:nodetypes="cssscssssc"
         inkscape:connector-curvature="0"
         id="path938"
         d="m 141.16333,157.79825 c -8.20111,6.23936 -21.34603,7.44524 -36.16333,7.44524 -24.856701,0 -45.007041,-3.39355 -45.007039,-28.25025 2e-6,-24.85671 20.150341,-45.007051 45.007039,-45.007048 22.20146,3e-6 40.64836,16.075308 44.33607,37.221298 0,0 1.33927,2.39796 0.41499,7.31336 -0.29807,1.58515 -0.64218,1.92856 -1.85893,4.9619 -0.39543,0.98582 -1.15695,-0.28154 -1.60831,0.82511 -0.87079,2.13501 1.08814,4.83363 0.29564,7.25021 -1.4522,4.42818 -5.41613,8.24018 -5.41613,8.24018 z"
         style="opacity:1;fill:#ebebff;fill-opacity:1;stroke:#00034b;stroke-width:1.5;stroke-linecap:round;stroke-miterlimit:4;stroke-dasharray:none;stroke-dashoffset:0;stroke-opacity:1" />
      <path
         sodipodi:nodetypes="ssszzcscszsss"
         inkscape:connector-curvature="0"
         id="path936"
         d="m 63.081216,147.00465 c -0.452439,0.20326 3.918338,8.37838 11.1773,11.77143 5.404758,2.52635 12.439769,3.97577 19.903994,4.59446 12.1334,1.00571 15.6581,0.22848 21.92601,-0.18571 6.26791,-0.4142 13.37684,-1.26286 20.53298,-4.86431 7.15614,-3.60146 9.96247,-9.54152 9.96247,-9.54152 0,0 2.15152,-7.62386 1.02899,-15.85576 -1.12253,-8.23191 -2.24507,-9.9157 -2.24507,-9.9157 0,0 2.20675,5.28205 -0.26193,15.85382 -0.84774,3.63033 -2.66044,8.07924 -8.53224,12.97123 -5.87181,4.89199 -13.02821,6.74882 -28.70478,7.07955 -7.903049,0.16673 -17.32985,-0.13853 -25.166687,-2.2384 -14.06502,-3.76871 -19.054898,-9.92344 -19.621037,-9.66909 z"
         style="fill:#b4acff;fill-opacity:1;stroke:#b4acff;stroke-width:0.26458332px;stroke-linecap:butt;stroke-linejoin:miter;stroke-opacity:1" />
      <path
         sodipodi:nodetypes="cscsccccc"
         inkscape:connector-curvature="0"
         id="path907"
         d="m 118.83894,81.233506 c 0,0 2.48806,-0.648324 3.0961,-4.577188 0.60804,-3.928861 0.95063,-5.441428 0.95063,-5.441428 0,0 1.82078,1.946502 4.05399,2.611713 2.1983,0.654811 3.95569,0.406424 3.95569,0.406424 0,0 0.39412,0.926583 -0.63486,4.247405 -1.02899,3.320825 -2.63371,5.940599 -2.63371,5.940599 0,0 -2.02013,-0.912589 -4.0781,-1.731104 -2.0346,-0.701581 -4.70974,-1.456421 -4.70974,-1.456421 z"
         style="fill:#ebebff;fill-opacity:1;stroke:#00034b;stroke-width:1.5;stroke-linecap:butt;stroke-linejoin:miter;stroke-miterlimit:4;stroke-dasharray:none;stroke-opacity:1" />
      <path
         sodipodi:nodetypes="ssssssss"
         inkscape:connector-curvature="0"
         id="path885"
         d="m 139.36926,64.795052 c 0,4.89833 -3.71037,8.930057 -8.47391,9.437975 -0.33446,0.03566 -0.6741,0.05395 -1.01802,0.05395 -2.76658,-2e-6 -5.25672,-1.183616 -6.99166,-3.072087 -1.55249,-1.689886 -2.50026,-3.944181 -2.50026,-6.41984 0,-5.242244 4.24968,-9.491924 9.49192,-9.491928 5.24225,-2e-6 9.49193,4.24968 9.49193,9.491928 z"
         style="opacity:1;fill:#8888ff;fill-opacity:1;stroke:#00034b;stroke-width:1.5;stroke-linecap:round;stroke-miterlimit:4;stroke-dasharray:none;stroke-dashoffset:0;stroke-opacity:1" />
      <path
         sodipodi:nodetypes="cccscccc"
         inkscape:connector-curvature="0"
         id="path902"
         d="m 86.043235,74.150735 c 0,0 -0.02922,1.99109 -0.07599,4.657103 -0.04677,2.666013 -0.269847,3.911591 -0.269847,3.911591 0,0 -2.371425,0.98721 -4.241467,1.778609 -1.970675,0.833986 -4.703629,2.441624 -4.703629,2.441624 0,0 1.624933,-4.303902 1.170131,-6.915749 h -3e-6 c -0.561266,-2.759556 -1.396719,-5.34467 -1.396719,-5.34467"
         style="fill:#ebebff;fill-opacity:1;stroke:#00034b;stroke-width:1.5;stroke-linecap:round;stroke-linejoin:miter;stroke-miterlimit:4;stroke-dasharray:none;stroke-opacity:1" />
      <path
         sodipodi:nodetypes="sssssss"
         inkscape:connector-curvature="0"
         id="path885-1"
         d="m 90.322135,66.217186 c 0,3.316893 -1.701313,6.236423 -4.2789,7.933549 -1.496209,0.98513 -3.287673,1.558378 -5.213027,1.558378 -1.549605,0 -3.01248,-0.371333 -4.304497,-1.02987 -3.078822,-1.569265 -5.18743,-4.769415 -5.18743,-8.462057 0,-5.242247 4.24968,-9.491927 9.491927,-9.491927 5.242247,0 9.491927,4.24968 9.491927,9.491927 z"
         style="opacity:1;fill:#8888ff;fill-opacity:1;stroke:#00034b;stroke-width:1.5;stroke-linecap:round;stroke-miterlimit:4;stroke-dasharray:none;stroke-dashoffset:0;stroke-opacity:1" />
      <path
         inkscape:connector-curvature="0"
         id="path944"
         d="m 137.38848,130.89607 -11.24479,-9.72344 -10.45104,11.77396"
         style="fill:none;stroke:#00034b;stroke-width:1.5;stroke-linecap:round;stroke-linejoin:round;stroke-miterlimit:4;stroke-dasharray:none;stroke-opacity:1" />
      <path
         inkscape:connector-curvature="0"
         id="path944-0"
         d="m 72.611521,130.89607 11.244792,-9.72344 10.451037,11.77396"
         style="fill:none;stroke:#00034b;stroke-width:1.5;stroke-linecap:round;stroke-linejoin:round;stroke-miterlimit:4;stroke-dasharray:none;stroke-opacity:1" />
      <path
         sodipodi:nodetypes="csc"
         inkscape:connector-curvature="0"
         id="path905"
         d="m 96.235595,151.47917 c 0,0 4.564065,4.29948 8.598955,4.29948 4.0349,0 8.92969,-4.29948 8.92969,-4.29948"
         style="fill:none;stroke:#00034b;stroke-width:1.5;stroke-linecap:round;stroke-linejoin:miter;stroke-miterlimit:4;stroke-dasharray:none;stroke-opacity:1" />
      <path
         inkscape:connector-curvature="0"
         id="path941"
         d="m 118.10672,189.37833 a 12.964583,17.724693 0 0 1 -12.96458,17.72469 12.964583,17.724693 0 0 1 -12.964576,-17.72469 12.964583,17.724693 0 0 1 12.964576,-17.7247 12.964583,17.724693 0 0 1 12.96458,17.7247 z"
         style="opacity:1;fill:#ebebff;fill-opacity:1;stroke:#00034b;stroke-width:1.5;stroke-linecap:round;stroke-miterlimit:4;stroke-dasharray:none;stroke-dashoffset:0;stroke-opacity:1" />
      <g
         style="fill:#ebebff;fill-opacity:1;stroke:#00034b;stroke-opacity:1"
         id="g924">
        <path
           style="fill:#ebebff;fill-opacity:1;stroke:#00034b;stroke-width:1.5;stroke-linecap:round;stroke-linejoin:miter;stroke-miterlimit:4;stroke-dasharray:none;stroke-opacity:1"
           d="m 84.521086,173.21275 c 0,0 -13.134673,3.68527 -18.70982,12.18974 -5.575149,8.50446 -8.220982,23.718 -7.276041,28.25372 0.944938,4.53571 5.008184,11.62277 5.008184,11.62277 0,0 2.078868,2.26785 5.953125,2.64583 2.828581,0.27596 4.498671,-0.30436 5.194141,-0.63772 0.319752,-0.12408 0.377254,-0.19696 0.450002,-0.5025 l 0.288146,-1.21022 c 0.158035,-0.49131 0.117516,-0.48352 -0.332708,-0.66039 l -4.295605,-1.68756 c -0.729565,-0.25427 -0.482881,-0.2142 0.144146,-0.20357 l 4.369976,0.0741 c 0.560905,0.0567 0.515289,-0.0164 0.562692,-0.53789 l 0.07672,-0.8439 c 0.06794,-0.59642 0.181062,-0.67992 -0.409508,-0.7221 l -2.173746,-0.15527 1.497031,-2.16237 c 0.236947,-0.2546 0.19567,-0.4595 0.172485,-0.71339 -0.07008,-0.75921 -0.286003,-2.47262 -0.913562,-4.49477 -0.61545,-1.98311 -1.824746,-3.52084 -2.446067,-4.21924 -0.447124,-0.38079 -0.366608,-0.55799 -0.278445,-0.99746 0.372938,-1.85203 1.738536,-7.68986 4.80338,-11.69773 3.685272,-4.8192 6.482427,-6.45007 6.482427,-6.45007 0,0 6.463257,-4.03877 6.55775,-9.23595 0.0945,-5.19717 -4.724701,-7.65402 -4.724701,-7.65402 z"
           id="path2087"
           inkscape:connector-curvature="0"
           sodipodi:nodetypes="csscsccccccccccccccccscccc" />
        <path
           style="fill:#ebebff;fill-opacity:1;stroke:#00034b;stroke-width:1.5;stroke-linecap:round;stroke-linejoin:miter;stroke-miterlimit:4;stroke-dasharray:none;stroke-opacity:1"
           d="m 73.370788,220.83776 -3.118303,2.17336 -1.264665,0.77826 c -0.828621,0.61726 -0.461303,0.0237 -0.364398,-0.50701 0.116227,-0.65069 0.203217,-1.61899 0.02266,-2.7281 -0.330729,-2.03162 -2.078868,-4.44122 -2.078868,-4.44122"
           id="path2089"
           inkscape:connector-curvature="0"
           sodipodi:nodetypes="ccccsc" />
      </g>
      <g
         style="fill:#ebebff;fill-opacity:1;stroke:#00034b;stroke-opacity:1"
         id="g920">
        <path
           style="fill:#ebebff;fill-opacity:1;stroke:#00034b;stroke-width:1.5;stroke-linecap:butt;stroke-linejoin:miter;stroke-miterlimit:4;stroke-dasharray:none;stroke-opacity:1"
           d="m 126.80717,183.03073 c 0,0 11.72934,-2.49343 17.99681,-9.41571 5.65378,-6.24447 10.7747,-14.84872 11.72335,-16.47386 0.10293,-0.25905 0.24407,-0.30806 0.43461,-0.39069 0.83199,-0.3779 3.32923,-1.64749 4.68002,-3.80875 1.63702,-2.61924 1.07576,-5.3788 1.07576,-5.3788 0,0 2.10474,-1.30962 3.18051,-5.14493 0.72828,-2.59652 1.04927,-4.14261 1.18064,-4.8705 0.12914,-0.47519 0.0251,-0.78032 -0.16383,-1.06619 -0.26809,-0.39783 -0.82832,-1.00025 -1.99903,-1.78072 -1.43822,-0.95881 -2.74207,-1.6297 -3.49348,-1.98809 -0.86668,-0.5166 -0.66892,-0.0427 -0.71571,0.60477 -0.0743,1.00936 -0.26488,2.67211 -0.74866,4.00256 -0.74835,2.05797 -3.41437,5.56589 -3.41437,5.56589 0,0 1.1693,-4.77076 0.0935,-7.67064 -0.8121,-2.18914 -1.97072,-4.40494 -2.48987,-5.35958 -0.21941,-0.56327 -0.45914,-0.50435 -0.91048,-0.54834 -0.44354,-0.0433 -1.0835,-0.10709 -1.81074,-0.18384 -1.43476,-0.11167 -2.62802,-0.56252 -2.17531,0.9056 0.36878,1.20251 0.98945,3.72159 0.51089,5.84094 -0.65481,2.89988 -2.33861,5.56589 -2.33861,5.56589 0,0 -1.07576,0 -1.44994,0.98222 -0.28683,0.75293 0.33333,4.3093 0.63849,5.92861 0.15557,0.67112 0.078,1.00557 -0.16083,1.41659 -1.30413,2.24331 -6.98229,11.72591 -10.71408,14.34983 -4.23333,2.97656 -13.49375,4.36562 -13.49375,4.36562 0,0 -2.31511,3.70417 -1.19063,7.47448 1.12448,3.77031 5.75469,7.07761 5.75469,7.07761 z"
           id="path2091"
           inkscape:connector-curvature="0"
           sodipodi:nodetypes="cscccccccccccccccccsccccccscc" />
        <path
           style="fill:#ebebff;fill-opacity:1;stroke:#00034b;stroke-width:1.5;stroke-linecap:round;stroke-linejoin:miter;stroke-miterlimit:4;stroke-dasharray:none;stroke-opacity:1"
           d="m 147.42317,141.43574 c 0,0 7.47104,0.69479 9.12062,1.44997 1.64958,0.75517 1.68265,1.54892 1.68265,1.54892 0,0 -0.0992,1.12448 -0.79375,2.34818 -0.69453,1.2237 -1.25677,1.91823 -1.25677,1.91823 0,0 -0.89297,-0.46302 -2.84427,-0.92604 -1.9513,-0.46302 -2.8112,-0.46302 -2.8112,-0.46302"
           id="path2093"
           inkscape:connector-curvature="0" />
      </g>
      <path
         sodipodi:nodetypes="cscccscccccsc"
         inkscape:connector-curvature="0"
         id="path2103"
         d="m 78.84583,229.90282 c 0,0 -1.7653,-10.35753 -0.829855,-15.4557 0.935442,-5.09816 7.086377,-13.11716 7.086377,-13.11716 0,0 5.682425,-1.00803 8.629071,3.43532 1.875711,2.79177 1.411282,6.38955 -0.233863,9.21412 0,0 -3.507912,4.81753 -2.8531,8.74639 0.65481,3.92887 2.8531,9.30767 2.8531,9.30767 l -0.514493,8.2319 c 0,0 -4.34981,1.96443 -9.027027,2.10474 -4.677217,0.14032 -9.027028,-2.57246 -9.027028,-2.57246 0,0 -0.514495,-4.16273 0.841899,-6.87551 0.646345,-1.29269 1.9193,-2.30925 3.074919,-3.01931 1.269515,-0.78004 2.397424,-1.19019 2.397424,-1.19019"
         style="fill:#ebebff;fill-opacity:1;stroke:#00034b;stroke-width:1.5;stroke-linecap:round;stroke-linejoin:miter;stroke-miterlimit:4;stroke-dasharray:none;stroke-opacity:1" />
      <path
         sodipodi:nodetypes="ccccccscsccc"
         inkscape:connector-curvature="0"
         id="path2101-0"
         d="m 129.7549,227.97875 c 0,0 4.11596,1.49671 5.47235,4.2095 1.35639,2.71278 0.8419,6.87551 0.8419,6.87551 0,0 -4.34981,2.71278 -9.02703,2.57246 -4.67722,-0.14031 -9.02703,-2.10474 -9.02703,-2.10474 l -0.51449,-8.2319 c 0,0 2.19829,-5.3788 2.8531,-9.30767 0.65481,-3.92886 -2.8531,-8.74639 -2.8531,-8.74639 0,0 -3.18051,-4.77076 -0.23386,-9.21412 2.94664,-4.44335 8.69962,-3.50791 8.69962,-3.50791 0,0 6.08038,8.09159 7.01582,13.18975 0.93545,5.09817 -0.98221,15.38804 -0.98221,15.38804"
         style="fill:#ebebff;fill-opacity:1;stroke:#00034b;stroke-width:1.5;stroke-linecap:round;stroke-linejoin:miter;stroke-miterlimit:4;stroke-dasharray:none;stroke-opacity:1" />
      <path
         sodipodi:nodetypes="czzscsssc"
         inkscape:connector-curvature="0"
         id="path930"
         d="m 91.215103,204.59427 c 0,0 2.19084,2.33058 1.97635,4.66701 -0.21449,2.33642 -0.329196,2.57242 -1.419784,4.60142 -1.090589,2.029 -3.158951,4.77994 -2.762076,8.21952 0.396875,3.43959 2.800823,9.89642 2.800823,9.89642 0,0 -4.365625,-9.12812 -4.497917,-11.70781 -0.132292,-2.57969 1.360608,-4.52799 2.711979,-6.41614 0.959472,-1.34058 1.708443,-1.74054 2.039172,-4.58481 0.33073,-2.84427 -0.848547,-4.67561 -0.848547,-4.67561 z"
         style="fill:#b4acff;fill-opacity:1;stroke:#b4acff;stroke-width:0.5;stroke-linecap:round;stroke-linejoin:round;stroke-miterlimit:4;stroke-dasharray:none;stroke-opacity:1" />
      <path
         sodipodi:nodetypes="cszzczzzc"
         inkscape:connector-curvature="0"
         id="path932"
         d="m 87.44479,179.72343 c 0,0 0.727605,1.98438 -0.661458,4.36563 -1.053954,1.80678 -3.422388,3.7422 -5.886979,5.29167 -2.46459,1.54946 -4.696354,3.83646 -7.209895,7.67292 -2.513542,3.83645 -3.902605,11.97239 -3.902605,11.97239 0,0 0.19844,-6.87916 0.926042,-9.59114 0.727602,-2.71198 2.195948,-5.45225 3.902604,-7.40834 1.706656,-1.95609 3.174999,-3.30729 5.886979,-4.82864 2.711979,-1.52136 6.945312,-7.47449 6.945312,-7.47449 z"
         style="fill:#b4acff;fill-opacity:1;stroke:#b4acff;stroke-width:0.5;stroke-linecap:round;stroke-linejoin:round;stroke-miterlimit:4;stroke-dasharray:none;stroke-opacity:1" />
      <path
         sodipodi:nodetypes="ssszzczccs"
         inkscape:connector-curvature="0"
         id="path934"
         d="m 124.78814,179.08736 c -0.0842,0.48484 1.5048,2.04292 2.19829,2.29184 0,0 4.92152,-1.12825 9.35444,-3.55469 4.44335,-2.43215 6.3782,-4.30733 9.12056,-7.43677 2.74236,-3.12944 5.28526,-6.87551 7.24969,-9.77538 1.96443,-2.89988 2.38538,-4.30304 2.38538,-4.30304 0,0 -3.50791,4.86431 -6.87551,8.51254 -3.36759,3.64823 -7.99803,7.57708 -7.99803,7.57708 0,0 -3.22728,2.5257 -6.82874,3.92887 -3.60146,1.40316 -8.43389,1.76846 -8.60608,2.75955 z"
         style="fill:#b4acff;fill-opacity:1;stroke:#b4acff;stroke-width:0.5;stroke-linecap:round;stroke-linejoin:round;stroke-miterlimit:4;stroke-dasharray:none;stroke-opacity:1" />
      <path
         sodipodi:nodetypes="cczccccc"
         inkscape:connector-curvature="0"
         id="path939"
         d="m 97.192562,200.97674 c 0,0 2.432153,3.97563 6.688418,4.25627 4.25627,0.28063 7.61049,-2.30192 8.58435,-3.53531 0.97386,-1.23339 2.26112,-2.76053 3.46682,-7.74814 0.89353,-4.76956 -0.038,-9.09849 -2.22901,-14.81542 0,0 2.27011,11.02412 0.86694,15.56102 -1.96321,5.77827 -5.76207,9.41411 -10.70377,8.98399 -3.46114,-0.3274 -6.673748,-2.70241 -6.673748,-2.70241 z"
         style="fill:#b4acff;fill-opacity:1;stroke:#b4acff;stroke-width:0.5;stroke-linecap:round;stroke-linejoin:round;stroke-miterlimit:4;stroke-dasharray:none;stroke-opacity:1" />
      <path
         sodipodi:nodetypes="czzzzzsssszc"
         inkscape:connector-curvature="0"
         id="path942"
         d="m 125.23676,202.23239 c 0,0 1.52135,2.14974 3.24114,5.06016 1.7198,2.91042 2.4819,4.73626 2.84428,6.51537 0.36237,1.7791 0.66145,3.15846 0.33073,6.86263 -0.33073,3.70416 -0.56592,5.58452 -0.8599,5.82082 -0.29399,0.2363 -0.73925,-0.0796 -1.53329,-0.28964 -0.79405,-0.20999 -1.78534,-0.26174 -1.44326,-0.37181 0.58134,-0.18707 2.14973,0.1819 2.61275,-3.88607 0.53923,-4.73754 0.32641,-2.9058 0.36383,-5.09323 0.0223,-1.30482 -0.34169,-3.08391 -0.93668,-5.03174 -0.40739,-1.33369 -1.75805,-4.22868 -2.73441,-6.04769 -0.97637,-1.81902 -0.69845,-1.41012 -1.88519,-3.5388 z"
         style="fill:#b4acff;fill-opacity:1;stroke:#b4acff;stroke-width:0.5;stroke-linecap:round;stroke-linejoin:round;stroke-miterlimit:4;stroke-dasharray:none;stroke-opacity:1" />
      <path
         sodipodi:nodetypes="czczcc"
         inkscape:connector-curvature="0"
         id="path945"
         d="m 84.865103,76.403644 c 0,0 -0.215462,1.625558 -0.701179,3.493691 -0.485717,1.868133 -2.116666,2.898379 -2.116666,2.898379 0,0 0.63045,-0.330816 1.332452,-0.585712 0.702002,-0.254897 1.055445,-0.3824 1.055445,-0.3824 z"
         style="fill:#b4acff;fill-opacity:1;stroke:#b4acff;stroke-width:0.5;stroke-linecap:round;stroke-linejoin:round;stroke-miterlimit:4;stroke-dasharray:none;stroke-opacity:1" />
      <path
         sodipodi:nodetypes="cscccc"
         inkscape:connector-curvature="0"
         id="path947"
         d="m 129.44197,75.69749 c 0,0 -0.46772,2.595854 -1.05237,3.952247 -0.5677,1.317059 -1.5201,3.040192 -1.5201,3.040192 l -2.47892,-1.075761 c 0,0 2.15151,-0.07016 3.32082,-2.15152 1.1693,-2.081361 1.73057,-3.765158 1.73057,-3.765158 z"
         style="fill:#b4acff;fill-opacity:1;stroke:#b4acff;stroke-width:0.5;stroke-linecap:round;stroke-linejoin:round;stroke-miterlimit:4;stroke-dasharray:none;stroke-opacity:1" />
      <path
         sodipodi:nodetypes="cszzcszcc"
         inkscape:connector-curvature="0"
         id="path974"
         d="m 74.224622,70.584958 c 0,0 2.585713,3.635935 6.555976,3.470508 3.175,-0.132291 4.797255,-1.109151 6.267318,-2.943489 1.470063,-1.834338 1.885157,-3.472657 1.620573,-5.721615 -0.264583,-2.248959 -2.050521,-4.497916 -2.050521,-4.497916 0,0 1.216221,4.853465 -0.08621,7.278677 -0.959115,1.785937 -1.852083,2.38125 -3.373437,2.976562 -1.521354,0.595313 -3.176262,0.899331 -4.861719,0.595313 -1.934944,-0.319904 -4.07198,-1.15804 -4.07198,-1.15804 z"
         style="fill:#6e3cfc;fill-opacity:1;stroke:#6e3cfc;stroke-width:0.26499999;stroke-linecap:round;stroke-linejoin:round;stroke-miterlimit:4;stroke-dasharray:none;stroke-opacity:1" />
      <path
         sodipodi:nodetypes="cszzcszcc"
         inkscape:connector-curvature="0"
         id="path974-5"
         d="m 123.41093,68.940248 c 0,0 2.50931,3.528516 6.36229,3.367976 3.0812,-0.128383 4.65552,-1.076382 6.08215,-2.856527 1.42664,-1.780145 1.82946,-3.370062 1.5727,-5.552577 -0.25677,-2.182517 -1.98994,-4.365031 -1.98994,-4.365031 0,0 1.18029,4.710075 -0.0837,7.063638 -0.93079,1.733173 -1.79738,2.310899 -3.27378,2.888623 -1.4764,0.577725 -3.08242,0.872761 -4.71809,0.577725 -1.87777,-0.310453 -3.95167,-1.123827 -3.95167,-1.123827 z"
         style="fill:#6e3cfc;fill-opacity:1;stroke:#6e3cfc;stroke-width:0.25717089;stroke-linecap:round;stroke-linejoin:round;stroke-miterlimit:4;stroke-dasharray:none;stroke-opacity:1" />
      <path
         inkscape:connector-curvature="0"
         id="path991"
         d="m 83.24453,240.80911 c 0,0 1.852084,0.13229 4.564063,-0.39687 2.711979,-0.52917 3.869531,-1.09141 3.869531,-1.09141 l 0.198437,-4.3987 c 0,0 -0.429948,2.28203 -0.992187,3.10886 -0.56224,0.82682 -3.009636,1.12447 -3.009636,1.12447 0,0 -2.414322,0.23151 -3.241145,0.4961 -0.826823,0.26458 -1.389063,1.15755 -1.389063,1.15755 z"
         style="fill:#b4acff;fill-opacity:1;stroke:#b4acff;stroke-width:0.5;stroke-linecap:round;stroke-linejoin:round;stroke-miterlimit:4;stroke-dasharray:none;stroke-opacity:1" />
      <path
         sodipodi:nodetypes="cscccscczzcc"
         inkscape:connector-curvature="0"
         id="path993"
         d="m 126.90078,240.08151 c 0,0 0.33073,0.52916 1.91823,0.26458 1.5875,-0.26458 5.75469,-1.98438 5.75469,-1.98438 0,0 0.56224,-2.21588 0.0661,-3.96875 -0.49609,-1.75286 -0.99219,-2.18281 -0.99219,-2.18281 0,0 -1.02526,-1.42213 -2.51354,-2.18281 -1.48828,-0.76068 -1.62057,-0.69453 -1.62057,-0.69453 0,0 2.67891,1.2237 3.50573,4.99401 0.19843,1.12448 -0.21109,1.56612 -1.52136,2.05052 -1.31027,0.4844 -1.65365,0.47955 -2.9931,1.05833 -1.33945,0.57878 -1.60403,2.64584 -1.60403,2.64584 z"
         style="fill:#b4acff;fill-opacity:1;stroke:#b4acff;stroke-width:0.26458332px;stroke-linecap:butt;stroke-linejoin:miter;stroke-opacity:1" />
      <g
         transform="rotate(-6,81.53853,69.19996)"
         id="g1014">
        <path
           style="fill:none;fill-opacity:1;stroke:#00034b;stroke-width:1.5;stroke-linecap:round;stroke-linejoin:round;stroke-miterlimit:4;stroke-dasharray:none;stroke-opacity:1"
           d="m 65.752929,60.324724 c 0,0 5.551945,-9.941856 15.235572,-9.812738 9.683624,0.129109 15.106453,9.812738 15.106453,9.812738"
           id="path995"
           inkscape:connector-curvature="0"
           sodipodi:nodetypes="csc" />
        <path
           style="fill:none;fill-opacity:1;stroke:#00034b;stroke-width:1.5;stroke-linecap:round;stroke-linejoin:round;stroke-miterlimit:4;stroke-dasharray:none;stroke-opacity:1"
           d="m 58.210088,57.992849 c 0,0 8.153139,-14.599808 22.373736,-14.410195 14.220594,0.189599 22.184106,14.410195 22.184106,14.410195"
           id="path995-9"
           inkscape:connector-curvature="0"
           sodipodi:nodetypes="csc" />
      </g>
      <g
         id="g937"
         transform="rotate(6,125.98938,534.4541)">
        <path
           sodipodi:nodetypes="csc"
           inkscape:connector-curvature="0"
           id="path933"
           d="m 65.752929,60.324724 c 0,0 5.551945,-9.941856 15.235572,-9.812738 9.683624,0.129109 15.106453,9.812738 15.106453,9.812738"
           style="fill:none;fill-opacity:1;stroke:#00034b;stroke-width:1.5;stroke-linecap:round;stroke-linejoin:round;stroke-miterlimit:4;stroke-dasharray:none;stroke-opacity:1" />
        <path
           sodipodi:nodetypes="csc"
           inkscape:connector-curvature="0"
           id="path935"
           d="m 58.210088,57.992849 c 0,0 8.153139,-14.599808 22.373736,-14.410195 14.220594,0.189599 22.184106,14.410195 22.184106,14.410195"
           style="fill:none;fill-opacity:1;stroke:#00034b;stroke-width:1.5;stroke-linecap:round;stroke-linejoin:round;stroke-miterlimit:4;stroke-dasharray:none;stroke-opacity:1" />
      </g>
    </g>
  </g>
</svg>
