<?xml version="1.0" encoding="UTF-8" standalone="no"?>
<!-- Created with Inkscape (http://www.inkscape.org/) -->

<svg
   xmlns:dc="http://purl.org/dc/elements/1.1/"
   xmlns:cc="http://creativecommons.org/ns#"
   xmlns:rdf="http://www.w3.org/1999/02/22-rdf-syntax-ns#"
   xmlns:svg="http://www.w3.org/2000/svg"
   xmlns="http://www.w3.org/2000/svg"
   xmlns:sodipodi="http://sodipodi.sourceforge.net/DTD/sodipodi-0.dtd"
   xmlns:inkscape="http://www.inkscape.org/namespaces/inkscape"
   width="135.32967mm"
   height="219.89374mm"
   viewBox="0 0 135.32967 219.89374"
   version="1.1"
   id="svg8"
   inkscape:version="0.92.5 (2060ec1f9f, 2020-04-08)"
   sodipodi:docname="Sabrina.svg"
   inkscape:export-filename="/home/michael/Documents/Drawing/Artwork/Robin.png"
   inkscape:export-xdpi="96"
   inkscape:export-ydpi="96">
  <defs
     id="defs2" />
  <sodipodi:namedview
     id="base"
     pagecolor="#ffffff"
     bordercolor="#666666"
     borderopacity="1.0"
     inkscape:pageopacity="0.0"
     inkscape:pageshadow="2"
     inkscape:zoom="1.0000001"
     inkscape:cx="372.60307"
     inkscape:cy="396.59622"
     inkscape:document-units="mm"
     inkscape:current-layer="layer1"
     showgrid="false"
     inkscape:window-width="2488"
     inkscape:window-height="1376"
     inkscape:window-x="72"
     inkscape:window-y="27"
     inkscape:window-maximized="1"
     showguides="true"
     fit-margin-top="0"
     fit-margin-left="0"
     fit-margin-right="0"
     fit-margin-bottom="0" />
  <metadata
     id="metadata5">
    <rdf:RDF>
      <cc:Work
         rdf:about="">
        <dc:format>image/svg+xml</dc:format>
        <dc:type
           rdf:resource="http://purl.org/dc/dcmitype/StillImage" />
        <dc:title></dc:title>
      </cc:Work>
    </rdf:RDF>
  </metadata>
  <g
     inkscape:label="Layer 1"
     inkscape:groupmode="layer"
     id="layer1"
     transform="translate(-37.335167,-38.553131)"
     style="display:inline">
    <circle
       style="opacity:1;fill:#ff8787;fill-opacity:1;stroke:#4a0000;stroke-width:1.5;stroke-linecap:round;stroke-linejoin:round;stroke-miterlimit:4;stroke-dasharray:none;stroke-dashoffset:0;stroke-opacity:1"
       id="path1019"
       cx="153.18982"
       cy="188.99022"
       r="5.4759674" />
    <path
       sodipodi:nodetypes="cczsczzzcc"
       inkscape:connector-curvature="0"
       id="path1057"
       d="m 147.81177,191.20729 c 0,0 1.19317,1.90907 3.93745,1.96873 2.74428,0.0596 4.00967,-0.85898 4.86215,-1.96872 0.85249,-1.10973 1.01629,-1.64224 1.10368,-2.89344 0.0937,-1.34211 0.0299,-2.80394 0.0299,-2.80394 0,0 -0.83521,4.05676 -1.4318,4.92182 -0.59658,0.86504 -1.5697,1.29676 -2.65479,1.67043 -1.08509,0.37367 -2.02839,0.3878 -3.07241,0.14919 -1.04402,-0.23862 -2.77411,-1.04402 -2.77411,-1.04402 z"
       style="fill:#be2311;fill-opacity:1;stroke:#be2311;stroke-width:0.23900911;stroke-linecap:butt;stroke-linejoin:round;stroke-miterlimit:4;stroke-dasharray:none;stroke-opacity:1" />
    <path
       style="fill:#ffe8e8;fill-opacity:1;stroke:#4a0000;stroke-width:1.5;stroke-linecap:round;stroke-linejoin:round;stroke-miterlimit:4;stroke-dasharray:none;stroke-opacity:1"
       d="m 130.43542,169.3815 9.55808,-0.95911 c 0,0 6.30185,0.69023 12.17083,4.0349 6.35166,3.86972 9.19218,6.52094 8.20208,12.7 -0.59531,3.43958 -1.65364,5.15937 -1.65364,5.15937 0,0 -1.85209,1.98438 -6.15157,1.25677 -9.29507,-5.54454 -14.09757,-10.67166 -22.99132,-18.06482 z"
       id="path1323"
       inkscape:connector-curvature="0"
       sodipodi:nodetypes="cccccccc" />
    <path
       style="fill:#ffa99f;fill-opacity:1;stroke:#ffa99f;stroke-width:0.26458332px;stroke-linecap:butt;stroke-linejoin:miter;stroke-opacity:1"
       d="m 134.23881,169.14999 c 0.33073,0.1323 8.01245,0.50702 14.85817,3.82981 6.84571,3.32279 8.82816,5.86053 9.41735,8.53946 0.46302,2.51355 0.29251,5.65731 -0.59531,7.01147 -0.51577,0.78667 -0.33073,1.25676 -3.10886,1.38906 -2.77812,0.13229 -3.37343,0.13229 -3.37343,0.13229 0,0 0.48296,-2.88302 1.79728,-3.2713 5.96254,-1.73034 1.91838,-7.74819 -0.68858,-9.47516 -2.14828,-1.4139 -5.32465,-3.26373 -7.78862,-4.47311 -5.14797,-2.52674 -10.518,-3.68252 -10.518,-3.68252 z"
       id="path1102"
       inkscape:connector-curvature="0"
       sodipodi:nodetypes="czcsccccsc" />
    <circle
       style="opacity:1;fill:#ff8787;fill-opacity:1;stroke:#4a0000;stroke-width:1.5;stroke-linecap:round;stroke-linejoin:round;stroke-miterlimit:4;stroke-dasharray:none;stroke-dashoffset:0;stroke-opacity:1"
       id="path1009"
       cx="92.619865"
       cy="231.59966"
       r="7.6244507" />
    <path
       style="fill:#be2311;stroke:#be2311;stroke-width:0.26499999;stroke-linecap:butt;stroke-linejoin:round;stroke-miterlimit:4;stroke-dasharray:none;stroke-opacity:1;fill-opacity:1"
       d="m 87.804435,235.52734 c 0,0 1.322916,2.11666 4.365624,2.18281 3.042709,0.0661 4.445696,-0.95239 5.390886,-2.1828 0.94519,-1.23041 1.126805,-1.82083 1.223698,-3.20809 0.103933,-1.48806 0.03307,-3.10885 0.03307,-3.10885 0,0 -0.926041,4.49791 -1.5875,5.45703 -0.661459,0.95912 -1.740402,1.43779 -2.94349,1.85209 -1.203088,0.4143 -2.248959,0.42997 -3.40651,0.16541 -1.157552,-0.26456 -3.075781,-1.15755 -3.075781,-1.15755 z"
       id="path1051"
       inkscape:connector-curvature="0"
       sodipodi:nodetypes="cczsczzzcc" />
    <path
       style="fill:none;fill-opacity:1;stroke:#4a0000;stroke-width:1.5;stroke-linecap:round;stroke-linejoin:round;stroke-miterlimit:4;stroke-dasharray:none;stroke-opacity:1"
       d="m 98.426839,63.429526 c 0,0 6.560721,-9.307061 16.177811,-8.166434 9.61709,1.140617 13.99799,11.338038 13.99799,11.338038"
       id="path995"
       inkscape:connector-curvature="0"
       sodipodi:nodetypes="csc" />
    <path
       style="fill:none;fill-opacity:1;stroke:#4a0000;stroke-width:1.5;stroke-linecap:round;stroke-linejoin:round;stroke-miterlimit:4;stroke-dasharray:none;stroke-opacity:1"
       d="m 91.169064,60.321982 c 0,0 9.634576,-13.667593 23.757446,-11.992562 14.12288,1.675019 20.5563,16.650125 20.5563,16.650125"
       id="path995-9"
       inkscape:connector-curvature="0"
       sodipodi:nodetypes="csc" />
    <path
       style="opacity:1;fill:#ff8787;fill-opacity:1;stroke:#4a0000;stroke-width:1.56412458;stroke-linecap:round;stroke-linejoin:round;stroke-miterlimit:4;stroke-dasharray:none;stroke-dashoffset:0;stroke-opacity:1"
       d="m 119.68585,187.44829 c -3.37742,2.50824 -7.35669,4.26541 -11.68489,5.0211 L 89.211947,189.1137 C 81.644998,184.68787 75.875285,175.25656 75.213909,166.09257 l 55.221511,3.28893 c -0.55928,4.10505 -2.02027,7.85844 -4.21303,11.17164 z"
       id="path1201"
       inkscape:connector-curvature="0"
       sodipodi:nodetypes="ccccccc" />
    <path
       style="fill:#be2311;stroke:#be2311;stroke-width:0.26458332px;stroke-linecap:butt;stroke-linejoin:miter;stroke-opacity:1;fill-opacity:1"
       d="m 79.6685,175.13619 c 0,0 3.843796,6.77829 7.217232,9.42412 3.373437,2.64583 6.048804,3.90012 9.322547,4.86338 3.273742,0.96326 8.480201,1.25942 13.308841,0.46567 4.82864,-0.79374 8.7655,-3.17773 11.62149,-6.40272 2.85598,-3.22499 3.56454,-3.75839 5.77807,-8.79075 2.21354,-5.03235 1.69973,-10.87061 1.69973,-10.87061 0,0 -1.30991,5.82728 -3.16649,9.62333 -1.85658,3.79605 -3.3028,5.7877 -5.97963,8.33555 -2.67684,2.54784 -6.42884,4.90329 -12.32055,5.70058 -5.66278,0.76631 -10.13193,-0.0693 -14.590713,-2.24142 -4.458783,-2.17214 -5.971844,-3.60786 -7.751014,-5.04978 -1.77917,-1.44192 -3.533432,-3.11793 -5.139513,-5.05735 z"
       id="path1086"
       inkscape:connector-curvature="0"
       sodipodi:nodetypes="czzzzzczzszzc" />
    <circle
       style="opacity:1;fill:#ff8787;fill-opacity:1;stroke:#4a0000;stroke-width:1.5;stroke-linecap:round;stroke-linejoin:round;stroke-miterlimit:4;stroke-dasharray:none;stroke-dashoffset:0;stroke-opacity:1"
       id="path1017"
       cx="146.74036"
       cy="205.72862"
       r="5.8418045" />
    <path
       style="fill:#ffe8e8;fill-opacity:1;stroke:#4a0000;stroke-width:1.5;stroke-linecap:round;stroke-linejoin:round;stroke-miterlimit:4;stroke-dasharray:none;stroke-opacity:1"
       d="m 53.892513,157.60608 c 0,0 8.956148,4.89229 22.324358,8.67605 7.112731,2.01321 15.474478,3.7126 24.400799,4.19432 10.41234,0.56192 21.12484,-0.26724 29.85999,-1.09788 9.93879,-0.94504 17.23982,-1.95034 17.23982,-1.95034 0,0 4.58366,-5.3788 8.46576,-11.97367 3.88209,-6.59488 4.34981,-10.28988 4.34981,-10.28988 0,0 -4.39658,-16.74443 -16.27671,-36.76292 -12.23773,-20.621046 -30.49546,-35.733934 -30.49546,-35.733934 0,0 -19.083039,8.231899 -35.921019,35.546844 -16.837978,27.31495 -23.947348,49.39141 -23.947348,49.39141 z"
       id="path1197"
       inkscape:connector-curvature="0"
       sodipodi:nodetypes="csssczcscsc" />
    <path
       style="fill:none;stroke:#4a0000;stroke-width:1.5;stroke-linecap:round;stroke-linejoin:round;stroke-miterlimit:4;stroke-dasharray:none;stroke-opacity:1"
       d="m 113.76088,72.667826 c 0,0 13.7972,26.367588 21.7347,53.222794 7.9375,26.85521 12.2219,41.53761 12.2219,41.53761"
       id="path1199"
       inkscape:connector-curvature="0" />
    <path
       style="fill:#ffe8e8;fill-opacity:1;stroke:#4a0000;stroke-width:1.5;stroke-linecap:round;stroke-linejoin:round;stroke-miterlimit:4;stroke-dasharray:none;stroke-opacity:1"
       d="m 89.211947,189.1137 c 0,0 4.367926,-4.9995 10.387197,-3.87502 6.019266,1.12448 8.401816,7.23071 8.401816,7.23071 0,0 -3.1309,8.09987 -4.7184,17.36029 -1.5875,9.26042 -1.38906,19.84375 -1.38906,19.84375 0,0 -2.315107,5.4901 -9.326566,5.35781 -7.011455,-0.13229 -9.524997,-4.89479 -9.524997,-4.89479 0,0 -0.46302,-12.43542 1.322917,-22.02656 1.761387,-9.4593 4.847093,-18.99619 4.847093,-18.99619 z"
       id="path946"
       inkscape:connector-curvature="0"
       sodipodi:nodetypes="cscscscsc" />
    <circle
       style="opacity:1;fill:#ff8787;fill-opacity:1;stroke:#4a0000;stroke-width:1.5;stroke-linecap:round;stroke-linejoin:round;stroke-miterlimit:4;stroke-dasharray:none;stroke-dashoffset:0;stroke-opacity:1"
       id="path1011"
       cx="135.29713"
       cy="225.57236"
       r="6.92208" />
    <path
       style="fill:#be2311;fill-opacity:1;stroke:#be2311;stroke-width:0.23900911;stroke-linecap:butt;stroke-linejoin:round;stroke-miterlimit:4;stroke-dasharray:none;stroke-opacity:1"
       d="m 141.46177,208.14063 c 0,0 1.19317,1.90907 3.93745,1.96873 2.74428,0.0596 4.00967,-0.85898 4.86215,-1.96872 0.85249,-1.10973 1.01629,-1.64224 1.10368,-2.89344 0.0937,-1.34211 0.0299,-2.80394 0.0299,-2.80394 0,0 -0.83521,4.05676 -1.4318,4.92182 -0.59658,0.86504 -1.5697,1.29676 -2.65479,1.67043 -1.08509,0.37367 -2.02839,0.3878 -3.07241,0.14919 -1.04402,-0.23862 -2.77411,-1.04402 -2.77411,-1.04402 z"
       id="path1055"
       inkscape:connector-curvature="0"
       sodipodi:nodetypes="cczsczzzcc" />
    <path
       style="fill:#ffe8e8;fill-opacity:1;stroke:#4a0000;stroke-width:1.5;stroke-linecap:round;stroke-linejoin:round;stroke-miterlimit:4;stroke-dasharray:none;stroke-opacity:1"
       d="m 129.56988,173.50861 c 0,0 7.16357,3.11895 13.04943,7.34323 5.73222,4.11401 9.39187,7.68542 10.93471,11.66038 1.54285,3.97495 1.88086,6.15982 0.99219,9.29355 -0.88867,3.13374 -1.49671,4.81754 -1.49671,4.81754 0,0 -3.32081,2.10475 -6.54809,1.77734 -3.22728,-0.3274 -6.34498,-4.12065 -6.34498,-4.12065 0,0 0.9468,-3.74316 0.37418,-7.76751 -0.57261,-4.02435 -13.96472,-15.65468 -13.96472,-15.65468 0.95759,-2.59491 2.15922,-4.5365 3.00399,-7.3492 z"
       id="path1321"
       inkscape:connector-curvature="0"
       sodipodi:nodetypes="cszsczczcc" />
    <path
       sodipodi:nodetypes="cczsczzzcc"
       inkscape:connector-curvature="0"
       id="path1053"
       d="m 130.87844,228.74505 c 0,0 1.19317,1.90907 3.93745,1.96873 2.74428,0.0596 4.00967,-0.85898 4.86215,-1.96872 0.85249,-1.10973 1.01629,-1.64224 1.10368,-2.89344 0.0937,-1.34211 0.0299,-2.80394 0.0299,-2.80394 0,0 -0.83521,4.05676 -1.4318,4.92182 -0.59658,0.86504 -1.5697,1.29676 -2.65479,1.67043 -1.08509,0.37367 -2.02839,0.3878 -3.07241,0.14919 -1.04402,-0.23862 -2.77411,-1.04402 -2.77411,-1.04402 z"
       style="fill:#be2311;fill-opacity:1;stroke:#be2311;stroke-width:0.23900911;stroke-linecap:butt;stroke-linejoin:round;stroke-miterlimit:4;stroke-dasharray:none;stroke-opacity:1" />
    <path
       style="fill:#ffa99f;fill-opacity:1;stroke:#ffa99f;stroke-width:0.26499999;stroke-linecap:butt;stroke-linejoin:round;stroke-miterlimit:4;stroke-dasharray:none;stroke-opacity:1"
       d="m 130.365,175.56659 c 7.12936,3.94045 14.62158,8.48275 18.26797,12.56315 3.6464,4.0804 3.93843,5.96998 4.54647,9.15049 0.60804,3.1805 -1.15892,7.84637 -1.15892,7.84637 0,0 -0.42095,1.26285 -2.99342,1.6838 -2.57247,0.42095 -3.78855,-0.0468 -3.78855,-0.0468 0,0 0.24269,-0.78475 1.31845,-1.43956 1.07576,-0.6548 3.63266,-0.57331 4.47415,-1.72325 0.84149,-1.14994 0.93457,-3.36534 0.28308,-7.03295 -0.65289,-3.67546 -3.33593,-6.30907 -6.97335,-9.82605 -3.63743,-3.51699 -13.97588,-11.1752 -13.97588,-11.1752 z"
       id="path1061"
       inkscape:connector-curvature="0"
       sodipodi:nodetypes="czscscczszc" />
    <path
       style="fill:#ffe8e8;fill-opacity:1;stroke:#4a0000;stroke-width:1.5;stroke-linecap:round;stroke-linejoin:round;stroke-miterlimit:4;stroke-dasharray:none;stroke-opacity:1"
       d="m 119.68673,187.3401 c 0,0 0.13229,-2.11667 2.71197,-4.56406 2.57969,-2.4474 4.16719,-1.91823 4.16719,-1.91823 0,0 8.20209,5.4901 11.1125,9.72343 2.91042,4.23334 6.38763,9.62901 7.27799,14.25735 0.89036,4.62834 0.89021,6.64902 0.0483,11.8875 -0.8419,5.23849 -1.6838,7.85773 -1.6838,7.85773 0,0 -2.01121,4.16273 -7.81095,3.83532 -5.82507,-0.32884 -7.99804,-5.79976 -7.99804,-5.79976 0,0 2.24507,-6.92227 0.65481,-14.96708 -1.59025,-8.04482 -8.47998,-20.3122 -8.47998,-20.3122 z"
       id="path948"
       inkscape:connector-curvature="0"
       sodipodi:nodetypes="cscszscscccc" />
    <circle
       style="opacity:1;fill:#ff8787;fill-opacity:1;stroke:#4a0000;stroke-width:1.5;stroke-linecap:round;stroke-linejoin:round;stroke-miterlimit:4;stroke-dasharray:none;stroke-dashoffset:0;stroke-opacity:1"
       id="path1013"
       cx="64.05809"
       cy="218.23018"
       r="6.8159642" />
    <path
       style="fill:#be2311;fill-opacity:1;stroke:#be2311;stroke-width:0.22201554;stroke-linecap:butt;stroke-linejoin:round;stroke-miterlimit:4;stroke-dasharray:none;stroke-opacity:1"
       d="m 59.914246,221.6927 c 0,0 1.108336,1.77333 3.657497,1.82875 2.549162,0.0554 3.724582,-0.79791 4.516451,-1.82874 0.791878,-1.03083 0.944032,-1.52548 1.025208,-2.68772 0.08704,-1.24669 0.02777,-2.60458 0.02777,-2.60458 0,0 -0.775826,3.76832 -1.329998,4.57188 -0.554164,0.80353 -1.458095,1.20456 -2.466035,1.55166 -1.00794,0.3471 -1.884171,0.36023 -2.853961,0.13858 -0.96979,-0.22165 -2.576871,-0.96979 -2.576871,-0.96979 z"
       id="path1059"
       inkscape:connector-curvature="0"
       sodipodi:nodetypes="cczsczzzcc" />
    <path
       style="fill:#ffe8e8;fill-opacity:1;stroke:#4a0000;stroke-width:1.5;stroke-linecap:round;stroke-linejoin:round;stroke-miterlimit:4;stroke-dasharray:none;stroke-opacity:1"
       d="m 86.63651,187.70958 c 0,0 -7.522818,4.28982 -9.34926,11.07375 -1.852083,6.87916 -4.101042,19.51302 -4.101042,19.51302 0,0 -2.513542,3.63802 -9.128125,2.84427 -6.614583,-0.79375 -8.73125,-4.63021 -8.73125,-4.63021 0,0 3.042708,-17.79323 6.548437,-23.48177 3.50573,-5.68854 16.536459,-15.34583 16.536459,-15.34583 0,0 1.447183,3.20904 3.836458,5.76133 2.389275,2.55229 4.388323,4.26544 4.388323,4.26544 z"
       id="path950"
       inkscape:connector-curvature="0"
       sodipodi:nodetypes="csczcsczc" />
    <path
       style="fill:#ff8787;stroke:#4a0000;stroke-width:1.5;stroke-linecap:round;stroke-linejoin:round;stroke-miterlimit:4;stroke-dasharray:none;stroke-opacity:1;fill-opacity:1"
       d="m 114.50924,107.6534 c 0,0 -1.12253,8.37223 -2.15152,16.6509 -1.02899,8.27867 -2.10475,14.2655 -2.10475,14.2655 0,0 7.0626,-0.0935 11.69305,-1.12253 4.63044,-1.02899 10.43019,-2.89987 10.43019,-2.89987 0,0 -1.96443,-4.11596 -7.15614,-12.39463 -5.19171,-8.27867 -10.71083,-14.49937 -10.71083,-14.49937 z"
       id="path1325"
       inkscape:connector-curvature="0"
       sodipodi:nodetypes="cscsczc" />
    <path
       style="fill:#ff8787;stroke:#4a0000;stroke-width:1.5;stroke-linecap:round;stroke-linejoin:round;stroke-miterlimit:4;stroke-dasharray:none;stroke-opacity:1;fill-opacity:1"
       d="m 94.771387,106.01638 c 0,0 -8.793166,5.47234 -14.452599,11.97367 -5.659433,6.50133 -10.617282,14.68646 -10.617282,14.68646 0,0 4.249287,2.31963 9.159319,3.60283 4.740039,1.23878 9.051102,1.34367 9.051102,1.34367 0,0 1.387116,-8.92213 2.55642,-14.16061 1.169303,-5.23848 4.30304,-17.44602 4.30304,-17.44602 z"
       id="path1327"
       inkscape:connector-curvature="0"
       sodipodi:nodetypes="czcscsc" />
    <path
       style="fill:#ff8787;stroke:#4a0000;stroke-width:1.5;stroke-linecap:round;stroke-linejoin:round;stroke-miterlimit:4;stroke-dasharray:none;stroke-opacity:1;fill-opacity:1"
       d="m 90.130887,149.96105 7.80991,9.74947 10.065513,-8.54887 z"
       id="path1329"
       inkscape:connector-curvature="0"
       sodipodi:nodetypes="cccc" />
    <path
       style="fill:#ffe8e8;stroke:#4a0000;stroke-width:1.5;stroke-linecap:round;stroke-linejoin:round;stroke-miterlimit:4;stroke-dasharray:none;stroke-opacity:1;fill-opacity:1"
       d="m 84.341194,114.01442 c 0,0 2.291835,0.46772 3.975633,0.74835 1.683797,0.28064 4.069177,0.56127 4.069177,0.56127 0,0 -1.028985,3.41437 -2.057974,8.27867 -1.028988,4.86431 -1.141904,6.36102 -1.141904,6.36102 0,0 -4.283668,-0.14032 -7.60449,-0.79513 -3.320825,-0.65481 -7.998039,-2.38538 -7.998039,-2.38538 0,0 0.748354,-1.44993 4.490127,-6.12715 3.741773,-4.67722 6.26747,-6.64165 6.26747,-6.64165 z"
       id="path1331"
       inkscape:connector-curvature="0"
       sodipodi:nodetypes="cccscsczc" />
    <path
       style="fill:#4a0000;fill-opacity:1;stroke:#4a0000;stroke-width:1.5;stroke-linecap:round;stroke-linejoin:round;stroke-miterlimit:4;stroke-dasharray:none;stroke-opacity:1"
       d="m 78.87475,128.37109 2.976562,-12.07161 2.48988,-2.28506 4.68694,0.86292 -3.141924,14.88281 c 0,0 -1.81901,0 -3.373437,-0.3638 -1.554427,-0.3638 -3.638021,-1.02526 -3.638021,-1.02526 z"
       id="path1333"
       inkscape:connector-curvature="0"
       sodipodi:nodetypes="cccccsc" />
    <path
       style="fill:#ffe8e8;stroke:#4a0000;stroke-width:1.5;stroke-linecap:round;stroke-linejoin:round;stroke-miterlimit:4;stroke-dasharray:none;stroke-opacity:1;fill-opacity:1"
       d="m 111.65001,129.8263 c 0,0 3.04271,0.56224 7.73906,0.0331 4.69635,-0.52917 9.19427,-2.14974 9.19427,-2.14974 0,0 -1.25677,-2.24895 -3.14192,-5.22552 -1.88516,-2.97656 -3.60495,-5.35781 -3.60495,-5.35781 0,0 -3.40652,0.52917 -4.49792,0.46302 -1.09141,-0.0662 -4.10104,-0.0992 -4.10104,-0.0992 z"
       id="path1335"
       inkscape:connector-curvature="0"
       sodipodi:nodetypes="ccczcccc" />
    <path
       style="fill:#4a0000;fill-opacity:1;stroke:#4a0000;stroke-width:1.5;stroke-linecap:round;stroke-linejoin:round;stroke-miterlimit:4;stroke-dasharray:none;stroke-opacity:1"
       d="m 116.57787,117.6224 -0.7276,12.40233 c 0,0 1.9513,0.0992 4.16718,-0.19843 2.21589,-0.29766 3.47266,-0.99219 3.47266,-0.99219 l 0.33073,-8.73125 -1.98437,-2.97653 c 0,0 -1.32292,0.36377 -2.51355,0.42992 -1.19062,0.0661 -2.74505,0.0661 -2.74505,0.0661 z"
       id="path1337"
       inkscape:connector-curvature="0"
       sodipodi:nodetypes="ccccccccc" />
    <circle
       style="opacity:1;fill:#ff8787;fill-opacity:1;stroke:#4a0000;stroke-width:1.5;stroke-linecap:round;stroke-miterlimit:4;stroke-dasharray:none;stroke-dashoffset:0;stroke-opacity:1;stroke-linejoin:round"
       id="path1319"
       cx="112.85296"
       cy="71.758682"
       r="9.3265619" />
    <path
       style="fill:#be2311;fill-opacity:1;stroke:#be2311;stroke-width:0.26499999;stroke-linecap:round;stroke-linejoin:round;stroke-miterlimit:4;stroke-dasharray:none;stroke-opacity:1"
       d="m 105.97073,75.764264 c 0,0 2.58571,3.635935 6.55597,3.470508 3.175,-0.132291 4.79726,-1.109151 6.26732,-2.943489 1.47007,-1.834338 1.88516,-3.472657 1.62058,-5.721615 -0.26459,-2.248959 -2.05053,-4.497916 -2.05053,-4.497916 0,0 1.21623,4.853465 -0.0862,7.278677 -0.95911,1.785937 -1.85208,2.38125 -3.37343,2.976562 -1.52136,0.595313 -3.17626,0.899331 -4.86172,0.595313 -1.93495,-0.319904 -4.07198,-1.15804 -4.07198,-1.15804 z"
       id="path974"
       inkscape:connector-curvature="0"
       sodipodi:nodetypes="cszzcszcc" />
    <path
       style="fill:#ffa99f;fill-opacity:1;stroke:#ffa99f;stroke-width:0.26499999;stroke-linecap:round;stroke-linejoin:round;stroke-miterlimit:4;stroke-dasharray:none;stroke-opacity:1"
       d="m 105.59766,192.69791 c 0,0 -2.38125,6.35 -3.57187,12.63385 -1.19063,6.28386 -1.94398,21.62908 -2.116668,23.0849 -0.172686,1.45581 0.03307,2.64583 -2.447396,3.9026 -3.266631,1.65509 -5.159375,0.90736 -5.159375,0.90736 0,0 0.527737,-0.85743 1.303986,-1.02229 0.940861,-0.19983 2.178096,-0.58468 3.04794,-1.30955 1.5875,-1.32292 1.319481,-3.11571 1.516653,-7.63984 0.197172,-4.52413 0.498445,-8.28761 1.556777,-14.70376 1.058333,-6.41615 5.869953,-15.85327 5.869953,-15.85327 z"
       id="path1088"
       inkscape:connector-curvature="0"
       sodipodi:nodetypes="cczscsczsc" />
    <path
       style="fill:#ffa99f;fill-opacity:1;stroke:#ffa99f;stroke-width:0.25738034px;stroke-linecap:butt;stroke-linejoin:round;stroke-opacity:1"
       d="m 126.9343,183.02011 c 5.09053,3.78187 8.67052,7.52844 11.27259,11.83572 2.60207,4.30729 3.70536,7.32909 4.54318,10.34344 1.34703,4.87738 0.84023,8.75109 -0.0419,13.41009 -0.36787,1.94434 -0.50786,3.51797 -1.05201,4.84818 -0.89804,0.91196 -1.25149,1.71563 -3.00291,2.28276 -1.62275,0.40625 -2.6201,0.47611 -2.6201,0.47611 0,0 0.25736,-1.95053 1.48585,-2.40553 1.22847,-0.45498 1.46458,-0.53023 2.30644,-1.59383 0.84186,-1.06358 1.66239,-4.93895 1.79889,-8.30586 0.23306,-8.45743 -3.05389,-15.21389 -6.83482,-20.72482 -4.13282,-5.99083 -7.85519,-10.16626 -7.85519,-10.16626 z"
       id="path1098"
       inkscape:connector-curvature="0"
       sodipodi:nodetypes="czcccccszccc" />
    <path
       style="fill:#ffa99f;stroke:#ffa99f;stroke-width:0.265;stroke-linecap:butt;stroke-linejoin:round;stroke-opacity:1;fill-opacity:1;stroke-miterlimit:4;stroke-dasharray:none"
       d="m 83.306521,187.40624 c -5.357813,4.7625 -5.557627,5.22358 -7.145127,8.33243 -1.5875,3.10885 -2.539778,8.91063 -3.394759,13.55382 -0.85498,4.6432 -1.498656,8.21011 -1.498656,8.21011 0,0 -1.389062,1.78594 -3.902604,2.05052 -2.513542,0.26458 -3.770313,-0.13229 -3.770313,-0.13229 1.026557,-0.76981 1.401266,-0.77163 3.762859,-1.73172 2.361593,-0.96009 2.810226,-5.49066 3.200452,-8.2829 0.390225,-2.79223 0.534828,-6.15029 1.756591,-10.76652 1.637023,-6.15277 4.268777,-8.42521 10.991557,-11.23345 z"
       id="path1100"
       inkscape:connector-curvature="0"
       sodipodi:nodetypes="cszcsczzcc" />
    <path
       style="fill:#ffa99f;stroke:#ffa99f;stroke-width:0.5;stroke-linecap:butt;stroke-linejoin:round;stroke-opacity:1;fill-opacity:1;stroke-miterlimit:4;stroke-dasharray:none"
       d="m 57.166565,156.48355 c 0,0 17.960513,9.54152 41.533684,11.50595 23.573171,1.96443 45.181911,-2.99342 45.181911,-2.99342 l -8.13836,-29.7471 c 0,0 2.62394,13.94848 2.54839,19.24825 -0.0755,5.29976 -0.24352,7.23437 -0.95813,7.87961 -0.66558,0.60097 -12.72203,5.33202 -40.691788,1.77734 -27.969755,-3.55468 -39.475707,-7.67063 -39.475707,-7.67063 z"
       id="path1104"
       inkscape:connector-curvature="0"
       sodipodi:nodetypes="cscczssc" />
    <path
       style="fill:#ffa99f;fill-opacity:1;stroke:#ffa99f;stroke-width:0.5;stroke-linecap:butt;stroke-linejoin:round;stroke-miterlimit:4;stroke-dasharray:none;stroke-opacity:1"
       d="m 149.12064,161.53494 c 0,0 2.80633,-3.18051 5.61266,-8.51253 2.80633,-5.33203 2.71899,-6.48336 2.80634,-8.2319 0.11064,-2.21495 -5.0514,-16.74445 -12.25431,-29.84065 -7.12062,-12.94658 -21.60874,-29.279373 -21.60874,-29.279373 11.29464,23.698343 20.71741,58.189113 25.44405,75.864453 z"
       id="path1106"
       inkscape:connector-curvature="0"
       sodipodi:nodetypes="czsscc" />
    <rect
       style="display:inline;opacity:1;fill:#ffe8e8;fill-opacity:1;stroke:#ffe8e8;stroke-width:1.60456741;stroke-linecap:round;stroke-linejoin:round;stroke-miterlimit:4;stroke-dasharray:none;stroke-dashoffset:0;stroke-opacity:1"
       id="rect1108-4"
       width="3.940423"
       height="3.940423"
       x="121.86656"
       y="-121.84736"
       transform="rotate(90)" />
    <rect
       style="display:inline;opacity:1;fill:#ffe8e8;fill-opacity:1;stroke:#ffe8e8;stroke-width:1.60456753;stroke-linecap:round;stroke-linejoin:round;stroke-miterlimit:4;stroke-dasharray:none;stroke-dashoffset:0;stroke-opacity:1"
       id="rect1108-4-7"
       width="3.940423"
       height="3.940423"
       x="103.46159"
       y="-105.87051"
       transform="rotate(100)" />
    <path
       style="fill:#4a0000;fill-opacity:1;stroke:#4a0000;stroke-width:1.5;stroke-linecap:round;stroke-linejoin:round;stroke-miterlimit:4;stroke-dasharray:none;stroke-opacity:1"
       d="m 92.730234,153.14797 c 0,0 3.332743,-1.20667 5.846284,-0.94209 2.513542,0.26459 5.772122,2.07695 5.772122,2.07695 l 3.65767,-3.12118 -17.875423,-1.2006 z"
       id="path1142"
       inkscape:connector-curvature="0"
       sodipodi:nodetypes="cccccc" />
    <path
       style="fill:#be2311;fill-opacity:1;stroke:#be2311;stroke-width:0.26499999;stroke-linecap:butt;stroke-linejoin:round;stroke-miterlimit:4;stroke-dasharray:none;stroke-opacity:1"
       d="m 72.160948,132.10833 c 0,0 3.704166,1.62057 6.879166,2.48047 3.175,0.85989 6.918931,1.4383 7.342188,1.25677 0.616247,-0.2643 0.892969,-4.3987 0.892969,-4.3987 0,0 -0.655784,1.49728 -1.151878,2.25795 -0.496094,0.76068 -1.02526,0.66146 -1.02526,0.66146 0,0 -2.419997,0.0241 -6.124164,-0.7366 -3.704167,-0.76066 -6.813021,-1.52135 -6.813021,-1.52135 z"
       id="path1144"
       inkscape:connector-curvature="0"
       sodipodi:nodetypes="ccsccczc" />
    <path
       style="fill:#be2311;stroke:#be2311;stroke-width:0.26458332px;stroke-linecap:butt;stroke-linejoin:miter;stroke-opacity:1;fill-opacity:1"
       d="m 112.49804,136.74569 c 0,0 5.65943,-0.18708 9.16734,-1.02898 3.50791,-0.8419 7.63893,-1.92171 8.04481,-2.29184 0.51994,-0.56167 -1.29595,-3.15589 -1.73057,-3.92886 0,0 0.3274,1.91765 0.18709,2.66601 -0.14032,0.74836 -2.15648,1.0757 -4.81753,1.91766 -2.66105,0.84196 -4.49014,1.07575 -6.68843,1.49671 -2.19829,0.42096 -4.16271,1.1693 -4.16271,1.1693 z"
       id="path1041"
       inkscape:connector-curvature="0"
       sodipodi:nodetypes="cscczzzc" />
    <path
       style="fill:#be2311;fill-opacity:1;stroke:#be2311;stroke-width:0.26499999;stroke-linecap:butt;stroke-linejoin:round;stroke-miterlimit:4;stroke-dasharray:none;stroke-opacity:1"
       d="m 95.174306,153.98116 c 0,0 1.228877,-0.37536 3.16904,-0.242 1.940164,0.13336 3.477354,0.8153 3.477354,0.8153 0,0 -0.45694,0.54218 -1.39834,1.29455 -0.21186,-0.42836 -0.0494,-0.83493 -1.160385,-1.26093 -1.276388,-0.48945 -4.087669,-0.60692 -4.087669,-0.60692 z"
       id="path1043"
       inkscape:connector-curvature="0"
       sodipodi:nodetypes="czccsc" />
    <path
       style="fill:none;stroke:#000000;stroke-width:0.26458332px;stroke-linecap:butt;stroke-linejoin:miter;stroke-opacity:1"
       d="M 119.05834,136.20937 Z"
       id="path1045"
       inkscape:connector-curvature="0" />
    <path
       style="fill:#be2311;stroke:#be2311;stroke-width:0.265;stroke-linecap:butt;stroke-linejoin:round;stroke-opacity:1;stroke-miterlimit:4;stroke-dasharray:none;fill-opacity:1"
       d="m 87.381382,113.07898 3.882091,0.65481 0.514493,-1.96443 c 0,0 -0.187087,0.8419 -1.730569,1.02899 -1.543481,0.18709 -2.666015,0.28063 -2.666015,0.28063 z"
       id="path1047"
       inkscape:connector-curvature="0" />
    <path
       style="fill:#be2311;stroke:#be2311;stroke-width:0.26458332px;stroke-linecap:butt;stroke-linejoin:miter;stroke-opacity:1;fill-opacity:1"
       d="m 117.36234,113.40639 2.05797,2.66601 c 0,0 -0.56126,0.28063 -2.24506,0.18708 -1.6838,-0.0935 -2.33861,0 -2.33861,0 0,0 2.5257,-0.46771 2.94665,-0.6548 0.42095,-0.18709 -0.42095,-2.19829 -0.42095,-2.19829 z"
       id="path1049"
       inkscape:connector-curvature="0" />
  </g>
</svg>
